<font horiz-adv-x="1000">
<!-- Source is a trademark of Adobe Systems Incorporated in the United States and/or other countries. -->
<font-face font-family="SourceSansPro-Semibold" units-per-em="1000" underline-position="-100" underline-thickness="50"/>
<missing-glyph horiz-adv-x="672" d="M84,0l504,0l0,660l-504,0 z M166,133l0,416l111,-209 z M395,340l110,209l0,-416 z M230,75l57,104l47,100l4,0l46,-100l56,-104 z M334,401l-46,94l-49,89l193,0l-48,-89l-46,-94z"/>
<glyph unicode=" " horiz-adv-x="205"/>
<glyph unicode="A" horiz-adv-x="558" d="M194,268l23,80C238,417 257,491 275,564l4,0C298,492 317,417 338,348l23,-80 z M438,0l122,0l-213,654l-136,0l-213,-654l118,0l51,177l220,0z"/>
<glyph unicode="B" horiz-adv-x="597" d="M83,0l226,0C453,0 560,61 560,192C560,280 508,331 414,347l0,4C490,371 526,431 526,493C526,613 427,654 292,654l-209,0 z M199,383l0,181l85,0C369,564 412,539 412,479C412,418 373,383 282,383 z M199,90l0,210l98,0C395,300 447,268 447,200C447,126 393,90 297,90z"/>
<glyph unicode="C" horiz-adv-x="576" d="M49,325C49,108 179,-12 346,-12C428,-12 497,22 550,83l-65,71C448,113 406,89 348,89C238,89 168,179 168,328C168,475 244,565 352,565C402,565 439,544 472,511l65,72C496,627 430,666 351,666C183,666 49,539 49,325z"/>
<glyph unicode="D" horiz-adv-x="625" d="M83,0l181,0C458,0 576,113 576,330C576,546 458,654 258,654l-175,0 z M199,94l0,466l51,0C382,560 457,490 457,330C457,169 382,94 250,94z"/>
<glyph unicode="E" horiz-adv-x="538" d="M83,0l404,0l0,98l-288,0l0,193l235,0l0,98l-235,0l0,167l278,0l0,98l-394,0z"/>
<glyph unicode="F" horiz-adv-x="510" d="M83,0l116,0l0,273l238,0l0,98l-238,0l0,185l279,0l0,98l-395,0z"/>
<glyph unicode="G" horiz-adv-x="628" d="M49,325C49,108 180,-12 354,-12C444,-12 521,22 566,66l0,288l-228,0l0,-95l124,0l0,-141C441,99 405,89 368,89C237,89 168,179 168,328C168,475 246,565 362,565C423,565 459,543 492,511l64,72C515,625 451,666 361,666C184,666 49,539 49,325z"/>
<glyph unicode="H" horiz-adv-x="663" d="M83,0l116,0l0,290l265,0l0,-290l116,0l0,654l-116,0l0,-263l-265,0l0,263l-116,0z"/>
<glyph unicode="I" horiz-adv-x="282" d="M83,0l116,0l0,654l-116,0z"/>
<glyph unicode="J" horiz-adv-x="494" d="M24,99C65,26 128,-12 219,-12C356,-12 414,86 414,205l0,449l-116,0l0,-439C298,122 267,89 206,89C166,89 130,110 104,158z"/>
<glyph unicode="K" horiz-adv-x="597" d="M83,0l116,0l0,191l94,117l177,-308l128,0l-235,399l201,255l-129,0l-233,-297l-3,0l0,297l-116,0z"/>
<glyph unicode="L" horiz-adv-x="502" d="M83,0l388,0l0,98l-272,0l0,556l-116,0z"/>
<glyph unicode="M" horiz-adv-x="745" d="M83,0l107,0l0,299C190,360 181,447 175,507l4,0l52,-149l113,-297l54,0l113,297l53,149l4,0C562,447 553,360 553,299l0,-299l109,0l0,654l-128,0l-116,-322l-42,-124l-4,0l-43,124l-118,322l-128,0z"/>
<glyph unicode="N" horiz-adv-x="656" d="M83,0l111,0l0,286C194,359 184,438 179,507l4,0l67,-139l204,-368l119,0l0,654l-111,0l0,-284C462,297 472,214 477,147l-4,0l-67,139l-204,368l-119,0z"/>
<glyph unicode="O" horiz-adv-x="674" d="M337,-12C508,-12 626,118 626,330C626,541 508,666 337,666C167,666 49,541 49,330C49,118 167,-12 337,-12 z M337,89C234,89 168,183 168,330C168,476 234,565 337,565C440,565 506,476 506,330C506,183 440,89 337,89z"/>
<glyph unicode="P" horiz-adv-x="592" d="M83,0l116,0l0,240l104,0C444,240 552,307 552,452C552,604 446,654 303,654l-220,0 z M199,333l0,228l95,0C389,561 438,534 438,452C438,372 391,333 294,333z"/>
<glyph unicode="Q" horiz-adv-x="674" d="M168,330C168,476 234,565 337,565C440,565 506,476 506,330C506,177 440,83 337,83C234,83 168,177 168,330 z M629,-66C610,-72 587,-77 558,-77C495,-77 436,-56 406,-4C539,26 626,148 626,330C626,541 508,666 337,666C167,666 49,541 49,330C49,141 142,18 283,-7C325,-103 415,-171 545,-171C590,-171 628,-163 650,-153z"/>
<glyph unicode="R" horiz-adv-x="599" d="M199,561l93,0C381,561 430,535 430,460C430,386 381,348 292,348l-93,0 z M570,0l-156,273C492,300 544,360 544,460C544,606 440,654 304,654l-221,0l0,-654l116,0l0,256l100,0l141,-256z"/>
<glyph unicode="S" horiz-adv-x="545" d="M38,84C100,23 186,-12 274,-12C421,-12 509,76 509,182C509,277 454,326 377,359l-89,37C234,418 184,437 184,488C184,536 225,565 287,565C343,565 387,544 429,509l59,74C437,634 363,666 287,666C159,666 67,586 67,482C67,386 135,335 199,308l90,-39C348,244 390,227 390,173C390,122 350,89 276,89C216,89 153,119 106,163z"/>
<glyph unicode="T" horiz-adv-x="546" d="M215,0l116,0l0,556l189,0l0,98l-494,0l0,-98l189,0z"/>
<glyph unicode="U" horiz-adv-x="655" d="M80,287C80,72 177,-12 328,-12C480,-12 575,72 575,287l0,367l-111,0l0,-376C464,136 408,89 328,89C249,89 196,136 196,278l0,376l-116,0z"/>
<glyph unicode="V" horiz-adv-x="536" d="M200,0l137,0l203,654l-119,0l-91,-329C310,251 295,187 273,112l-4,0C247,187 232,251 211,325l-92,329l-123,0z"/>
<glyph unicode="W" horiz-adv-x="800" d="M148,0l141,0l79,344C379,395 389,445 398,495l4,0C410,445 420,395 431,344l81,-344l144,0l125,654l-111,0l-57,-330C603,255 592,185 582,115l-4,0C563,185 549,256 534,324l-80,330l-101,0l-80,-330C258,255 244,184 230,115l-4,0C216,184 205,254 194,324l-57,330l-119,0z"/>
<glyph unicode="X" horiz-adv-x="541" d="M13,0l123,0l78,154C230,188 245,221 262,261l4,0C286,221 302,188 319,154l80,-154l129,0l-186,332l174,322l-123,0l-69,-145C309,479 296,448 280,409l-4,0C256,448 242,479 226,509l-72,145l-129,0l174,-317z"/>
<glyph unicode="Y" horiz-adv-x="501" d="M192,0l116,0l0,243l197,411l-121,0l-71,-167C294,438 274,393 253,343l-4,0C228,393 210,438 191,487l-71,167l-124,0l196,-411z"/>
<glyph unicode="Z" horiz-adv-x="540" d="M40,0l462,0l0,98l-319,0l317,486l0,70l-431,0l0,-98l287,0l-316,-486z"/>
<glyph unicode="a" horiz-adv-x="523" d="M52,132C52,46 112,-12 198,-12C256,-12 306,17 350,54l3,0l9,-54l94,0l0,291C456,428 396,503 273,503C195,503 126,473 72,439l42,-77C157,388 203,410 252,410C318,410 340,366 341,314C140,292 52,237 52,132 z M164,141C164,190 208,225 341,242l0,-110C305,98 274,78 234,78C193,78 164,97 164,141z"/>
<glyph unicode="b" horiz-adv-x="564" d="M73,0l91,0l10,50l3,0C218,10 266,-12 311,-12C420,-12 521,85 521,254C521,405 450,503 327,503C277,503 226,478 185,442l3,82l0,182l-115,0 z M188,124l0,229C226,390 260,408 296,408C370,408 402,350 402,252C402,141 352,83 287,83C258,83 223,94 188,124z"/>
<glyph unicode="c" horiz-adv-x="462" d="M41,245C41,82 144,-12 278,-12C334,-12 393,10 439,51l-48,73C364,102 330,82 290,82C213,82 159,147 159,245C159,344 214,409 293,409C324,409 350,396 376,373l55,73C398,478 350,503 287,503C156,503 41,409 41,245z"/>
<glyph unicode="d" horiz-adv-x="564" d="M43,245C43,83 122,-12 245,-12C298,-12 348,17 384,53l4,0l8,-53l95,0l0,706l-115,0l0,-178l4,-79C342,482 307,503 251,503C144,503 43,405 43,245 z M162,246C162,349 213,408 276,408C309,408 342,397 376,367l0,-229C343,100 311,83 273,83C202,83 162,140 162,246z"/>
<glyph unicode="e" horiz-adv-x="507" d="M41,245C41,83 147,-12 283,-12C345,-12 404,10 451,41l-39,72C376,90 340,77 298,77C219,77 163,127 153,216l312,0C468,228 470,248 470,270C470,407 400,503 267,503C152,503 41,405 41,245 z M152,289C162,371 212,414 270,414C337,414 370,367 370,289z"/>
<glyph unicode="f" horiz-adv-x="317" d="M346,701C324,710 291,718 256,718C140,718 93,644 93,542l0,-51l-66,-5l0,-86l66,0l0,-400l115,0l0,400l96,0l0,91l-96,0l0,53C208,601 230,627 270,627C287,627 306,623 324,615z"/>
<glyph unicode="g" horiz-adv-x="520" d="M136,-72C136,-49 148,-27 174,-7C193,-12 214,-14 241,-14l67,0C364,-14 395,-25 395,-63C395,-105 341,-142 262,-142C184,-142 136,-116 136,-72 z M40,-89C40,-175 127,-217 244,-217C404,-217 506,-141 506,-44C506,41 444,77 326,77l-87,0C179,77 159,94 159,122C159,144 168,156 183,169C205,160 229,156 250,156C354,156 436,214 436,323C436,357 424,387 408,406l90,0l0,85l-176,0C302,498 277,503 250,503C147,503 56,440 56,327C56,269 87,222 120,197l0,-4C92,173 66,140 66,102C66,62 85,36 110,20l0,-4C65,-12 40,-48 40,-89 z M250,228C202,228 164,264 164,327C164,389 202,424 250,424C298,424 335,388 335,327C335,264 297,228 250,228z"/>
<glyph unicode="h" horiz-adv-x="558" d="M73,0l115,0l0,343C229,383 257,404 300,404C354,404 377,374 377,293l0,-293l115,0l0,308C492,432 446,503 341,503C274,503 225,468 184,429l4,95l0,182l-115,0z"/>
<glyph unicode="i" horiz-adv-x="262" d="M131,577C172,577 202,604 202,642C202,681 172,708 131,708C90,708 60,681 60,642C60,604 90,577 131,577 z M73,0l115,0l0,491l-115,0z"/>
<glyph unicode="j" horiz-adv-x="263" d="M74,-27C74,-84 62,-115 18,-115C3,-115 -11,-111 -24,-107l-22,-86C-27,-200 -2,-206 34,-206C150,-206 190,-129 190,-25l0,516l-116,0 z M132,577C173,577 204,604 204,642C204,681 173,708 132,708C92,708 61,681 61,642C61,604 92,577 132,577z"/>
<glyph unicode="k" horiz-adv-x="522" d="M73,0l113,0l0,125l77,88l126,-213l125,0l-185,291l168,200l-126,0l-182,-226l-3,0l0,441l-113,0z"/>
<glyph unicode="l" horiz-adv-x="271" d="M73,126C73,41 103,-12 185,-12C212,-12 232,-8 246,-2l-15,86C222,82 218,82 213,82C201,82 188,92 188,120l0,586l-115,0z"/>
<glyph unicode="m" horiz-adv-x="843" d="M73,0l115,0l0,343C226,384 261,404 291,404C343,404 367,374 367,293l0,-293l115,0l0,343C520,384 554,404 585,404C636,404 660,374 660,293l0,-293l116,0l0,308C776,432 728,503 624,503C562,503 513,465 466,415C443,470 402,503 330,503C269,503 221,468 180,424l-4,0l-8,67l-95,0z"/>
<glyph unicode="n" horiz-adv-x="560" d="M73,0l115,0l0,343C229,383 257,404 300,404C354,404 377,374 377,293l0,-293l115,0l0,308C492,432 446,503 341,503C274,503 224,468 180,425l-4,0l-8,66l-95,0z"/>
<glyph unicode="o" horiz-adv-x="549" d="M41,245C41,82 152,-12 274,-12C397,-12 508,82 508,245C508,409 397,503 274,503C152,503 41,409 41,245 z M159,245C159,344 202,409 274,409C346,409 390,344 390,245C390,147 346,82 274,82C202,82 159,147 159,245z"/>
<glyph unicode="p" horiz-adv-x="564" d="M185,42C225,8 268,-12 311,-12C420,-12 521,85 521,253C521,405 450,503 328,503C274,503 221,474 180,439l-4,0l-8,52l-95,0l0,-685l115,0l0,154 z M188,124l0,229C226,390 260,408 296,408C370,408 402,350 402,252C402,141 352,83 287,83C258,83 224,94 188,124z"/>
<glyph unicode="q" horiz-adv-x="561" d="M43,245C43,83 122,-12 245,-12C295,-12 344,14 380,48l-4,-81l0,-161l115,0l0,685l-91,0l-10,-47l-3,0C346,484 306,503 251,503C144,503 43,405 43,245 z M162,246C162,349 213,408 276,408C309,408 342,397 376,367l0,-229C343,100 311,83 273,83C202,83 162,140 162,246z"/>
<glyph unicode="r" horiz-adv-x="373" d="M73,0l115,0l0,300C218,374 265,401 304,401C325,401 338,398 355,393l20,100C360,500 344,503 319,503C267,503 215,468 180,404l-4,0l-8,87l-95,0z"/>
<glyph unicode="s" horiz-adv-x="431" d="M24,56C72,17 143,-12 210,-12C334,-12 401,56 401,140C401,232 327,264 260,289C207,308 158,323 158,362C158,393 181,416 230,416C269,416 304,399 338,374l53,70C351,475 296,503 228,503C118,503 49,442 49,356C49,274 122,237 187,213C239,193 292,175 292,134C292,100 267,75 214,75C164,75 122,96 78,130z"/>
<glyph unicode="t" horiz-adv-x="361" d="M90,166C90,60 132,-12 246,-12C285,-12 319,-3 346,6l-20,85C312,85 292,80 275,80C228,80 206,108 206,166l0,234l125,0l0,91l-125,0l0,134l-96,0l-14,-134l-76,-5l0,-86l70,0z"/>
<glyph unicode="u" horiz-adv-x="556" d="M68,183C68,59 114,-12 219,-12C286,-12 334,21 377,72l3,0l9,-72l94,0l0,491l-115,0l0,-336C331,107 302,87 259,87C206,87 183,117 183,198l0,293l-115,0z"/>
<glyph unicode="v" horiz-adv-x="495" d="M183,0l133,0l167,491l-111,0l-78,-255C280,188 266,138 252,88l-4,0C235,138 220,188 207,236l-78,255l-117,0z"/>
<glyph unicode="w" horiz-adv-x="748" d="M154,0l132,0l56,228C353,274 362,320 371,372l4,0C386,320 394,275 405,229l57,-229l137,0l125,491l-108,0l-59,-255C548,189 540,143 531,95l-4,0C516,143 506,189 494,236l-65,255l-105,0l-64,-255C248,190 238,143 229,95l-4,0C216,143 209,189 199,236l-59,255l-116,0z"/>
<glyph unicode="x" horiz-adv-x="481" d="M14,0l120,0l52,97C200,127 215,156 229,184l4,0C250,156 267,126 283,97l60,-97l124,0l-156,243l145,248l-119,0l-47,-93C278,371 264,342 252,315l-4,0C233,342 217,371 203,398l-55,93l-124,0l146,-235z"/>
<glyph unicode="y" horiz-adv-x="495" d="M63,-102l-21,-90C60,-198 79,-202 106,-202C213,-202 264,-133 305,-22l178,513l-111,0l-74,-241C286,206 273,157 261,112l-4,0C242,158 228,207 214,250l-85,241l-117,0l193,-485l-9,-31C180,-74 150,-109 98,-109C86,-109 72,-105 63,-102z"/>
<glyph unicode="z" horiz-adv-x="443" d="M34,0l384,0l0,92l-239,0l231,338l0,61l-350,0l0,-91l206,0l-232,-338z"/>
<glyph unicode="&#xC0;" horiz-adv-x="558" d="M340,704l-84,116l-126,0l116,-116 z M194,268l23,80C238,417 257,491 275,564l4,0C298,492 317,417 338,348l23,-80 z M438,0l122,0l-213,654l-136,0l-213,-654l118,0l51,177l220,0z"/>
<glyph unicode="&#xC1;" horiz-adv-x="558" d="M424,820l-126,0l-84,-116l93,0 z M194,268l23,80C238,417 257,491 275,564l4,0C298,492 317,417 338,348l23,-80 z M438,0l122,0l-213,654l-136,0l-213,-654l118,0l51,177l220,0z"/>
<glyph unicode="&#xC2;" horiz-adv-x="558" d="M275,768l4,0l60,-64l90,0l-96,116l-112,0l-96,-116l90,0 z M194,268l23,80C238,417 257,491 275,564l4,0C298,492 317,417 338,348l23,-80 z M438,0l122,0l-213,654l-136,0l-213,-654l118,0l51,177l220,0z"/>
<glyph unicode="&#xC3;" horiz-adv-x="558" d="M374,829C368,796 353,781 334,781C301,781 268,829 215,829C165,829 127,784 119,707l61,0C186,740 201,756 219,756C253,756 285,707 338,707C388,707 426,753 434,829 z M194,268l23,80C238,417 257,491 275,564l4,0C298,492 317,417 338,348l23,-80 z M438,0l122,0l-213,654l-136,0l-213,-654l118,0l51,177l220,0z"/>
<glyph unicode="&#xC4;" horiz-adv-x="558" d="M370,708C404,708 429,733 429,767C429,802 404,827 370,827C335,827 310,802 310,767C310,733 335,708 370,708 z M184,708C219,708 244,733 244,767C244,802 219,827 184,827C149,827 124,802 124,767C124,733 149,708 184,708 z M194,268l23,80C238,417 257,491 275,564l4,0C298,492 317,417 338,348l23,-80 z M438,0l122,0l-213,654l-136,0l-213,-654l118,0l51,177l220,0z"/>
<glyph unicode="&#x100;" horiz-adv-x="558" d="M410,800l-266,0l0,-76l266,0 z M194,268l23,80C238,417 257,491 275,564l4,0C298,492 317,417 338,348l23,-80 z M438,0l122,0l-213,654l-136,0l-213,-654l118,0l51,177l220,0z"/>
<glyph unicode="&#x102;" horiz-adv-x="558" d="M341,820C335,791 316,766 277,766C237,766 218,791 212,820l-65,0C154,756 193,705 277,705C360,705 400,756 407,820 z M194,268l23,80C238,417 257,491 275,564l4,0C298,492 317,417 338,348l23,-80 z M438,0l122,0l-213,654l-136,0l-213,-654l118,0l51,177l220,0z"/>
<glyph unicode="&#xC5;" horiz-adv-x="558" d="M277,838C301,838 320,820 320,791C320,761 301,744 277,744C252,744 232,761 232,791C232,820 252,838 277,838 z M277,698C337,698 380,734 380,791C380,847 337,884 277,884C216,884 174,847 174,791C174,734 216,698 277,698 z M194,268l23,80C238,417 257,491 275,564l4,0C298,492 317,417 338,348l23,-80 z M438,0l122,0l-213,654l-136,0l-213,-654l118,0l51,177l220,0z"/>
<glyph unicode="&#x1CD;" horiz-adv-x="558" d="M333,704l96,116l-90,0l-60,-64l-4,0l-60,64l-90,0l96,-116 z M194,268l23,80C238,417 257,491 275,564l4,0C298,492 317,417 338,348l23,-80 z M438,0l122,0l-213,654l-136,0l-213,-654l118,0l51,177l220,0z"/>
<glyph unicode="&#x1EA0;" horiz-adv-x="558" d="M277,-85C237,-85 209,-112 209,-150C209,-189 237,-216 277,-216C316,-216 345,-189 345,-150C345,-112 316,-85 277,-85 z M194,268l23,80C238,417 257,491 275,564l4,0C298,492 317,417 338,348l23,-80 z M560,0l-213,654l-136,0l-213,-654l118,0l51,177l220,0l51,-177z"/>
<glyph unicode="&#x1EA2;" horiz-adv-x="558" d="M245,694C312,702 370,730 370,793C370,845 323,876 217,879l-13,-61C260,815 285,803 285,780C285,759 263,749 235,743 z M194,268l23,80C238,417 257,491 275,564l4,0C298,492 317,417 338,348l23,-80 z M438,0l122,0l-213,654l-136,0l-213,-654l118,0l51,177l220,0z"/>
<glyph unicode="&#x1EA4;" horiz-adv-x="558" d="M542,886l-93,0l-70,-116l68,0 z M275,762l4,0l57,-58l84,0l-93,110l-100,0l-94,-110l84,0 z M194,268l23,80C238,417 257,491 275,564l4,0C298,492 317,417 338,348l23,-80 z M438,0l122,0l-213,654l-136,0l-213,-654l118,0l51,177l220,0z"/>
<glyph unicode="&#x1EA6;" horiz-adv-x="558" d="M488,770l-69,116l-94,0l95,-116 z M275,762l4,0l57,-58l84,0l-93,110l-100,0l-94,-110l84,0 z M194,268l23,80C238,417 257,491 275,564l4,0C298,492 317,417 338,348l23,-80 z M438,0l122,0l-213,654l-136,0l-213,-654l118,0l51,177l220,0z"/>
<glyph unicode="&#x1EA8;" horiz-adv-x="558" d="M403,752C459,758 507,780 507,835C507,880 468,908 374,912l-12,-52C412,857 430,847 430,825C430,806 414,798 392,793 z M275,762l4,0l57,-58l84,0l-93,110l-100,0l-94,-110l84,0 z M194,268l23,80C238,417 257,491 275,564l4,0C298,492 317,417 338,348l23,-80 z M438,0l122,0l-213,654l-136,0l-213,-654l118,0l51,177l220,0z"/>
<glyph unicode="&#x1EAA;" horiz-adv-x="558" d="M364,953C358,925 344,911 326,911C296,911 270,953 222,953C177,953 143,915 136,849l54,0C195,877 209,891 228,891C258,891 284,849 332,849C377,849 411,887 418,953 z M275,762l4,0l57,-58l84,0l-93,110l-100,0l-94,-110l84,0 z M194,268l23,80C238,417 257,491 275,564l4,0C298,492 317,417 338,348l23,-80 z M438,0l122,0l-213,654l-136,0l-213,-654l118,0l51,177l220,0z"/>
<glyph unicode="&#x1EAC;" horiz-adv-x="558" d="M275,768l4,0l60,-64l90,0l-96,116l-112,0l-96,-116l90,0 z M277,-85C237,-85 209,-112 209,-150C209,-189 237,-216 277,-216C316,-216 345,-189 345,-150C345,-112 316,-85 277,-85 z M194,268l23,80C238,417 257,491 275,564l4,0C298,492 317,417 338,348l23,-80 z M560,0l-213,654l-136,0l-213,-654l118,0l51,177l220,0l51,-177z"/>
<glyph unicode="&#x1EAE;" horiz-adv-x="558" d="M395,917l-91,0l-69,-112l62,0 z M350,818C342,786 323,760 277,760C231,760 212,786 204,818l-56,0C155,755 195,705 277,705C359,705 399,755 406,818 z M194,268l23,80C238,417 257,491 275,564l4,0C298,492 317,417 338,348l23,-80 z M438,0l122,0l-213,654l-136,0l-213,-654l118,0l51,177l220,0z"/>
<glyph unicode="&#x1EB0;" horiz-adv-x="558" d="M319,805l-69,112l-92,0l99,-112 z M350,818C342,786 323,760 277,760C231,760 212,786 204,818l-56,0C155,755 195,705 277,705C359,705 399,755 406,818 z M194,268l23,80C238,417 257,491 275,564l4,0C298,492 317,417 338,348l23,-80 z M438,0l122,0l-213,654l-136,0l-213,-654l118,0l51,177l220,0z"/>
<glyph unicode="&#x1EB2;" horiz-adv-x="558" d="M249,803C305,810 353,831 353,886C353,932 314,960 220,963l-12,-51C258,908 276,898 276,876C276,857 260,849 238,844 z M350,818C342,786 323,760 277,760C231,760 212,786 204,818l-56,0C155,755 195,705 277,705C359,705 399,755 406,818 z M194,268l23,80C238,417 257,491 275,564l4,0C298,492 317,417 338,348l23,-80 z M438,0l122,0l-213,654l-136,0l-213,-654l118,0l51,177l220,0z"/>
<glyph unicode="&#x1EB4;" horiz-adv-x="558" d="M364,953C358,925 344,911 326,911C296,911 270,953 222,953C177,953 143,915 136,849l54,0C195,877 209,891 228,891C258,891 284,849 332,849C377,849 411,887 418,953 z M148,818C155,755 195,705 277,705C359,705 399,755 406,818l-56,0C342,786 323,760 277,760C231,760 212,786 204,818 z M194,268l23,80C238,417 257,491 275,564l4,0C298,492 317,417 338,348l23,-80 z M438,0l122,0l-213,654l-136,0l-213,-654l118,0l51,177l220,0z"/>
<glyph unicode="&#x1EB6;" horiz-adv-x="558" d="M341,820C335,791 316,766 277,766C237,766 218,791 212,820l-65,0C154,756 193,705 277,705C360,705 400,756 407,820 z M277,-85C237,-85 209,-112 209,-150C209,-189 237,-216 277,-216C316,-216 345,-189 345,-150C345,-112 316,-85 277,-85 z M194,268l23,80C238,417 257,491 275,564l4,0C298,492 317,417 338,348l23,-80 z M560,0l-213,654l-136,0l-213,-654l118,0l51,177l220,0l51,-177z"/>
<glyph unicode="&#x104;" horiz-adv-x="558" d="M194,268l23,80C238,417 257,491 275,564l4,0C298,492 317,417 338,348l23,-80 z M558,-126C547,-135 534,-140 518,-140C495,-140 475,-126 475,-98C475,-58 510,-12 560,0l-213,654l-136,0l-213,-654l118,0l51,177l220,0l51,-177l29,0C434,-21 389,-69 389,-127C389,-186 436,-218 494,-218C525,-218 564,-204 586,-186z"/>
<glyph unicode="&#xC6;" horiz-adv-x="834" d="M246,261l51,105C328,430 358,498 390,565l4,0l0,-304 z M510,98l0,193l221,0l0,98l-221,0l0,167l263,0l0,98l-449,0l-327,-654l122,0l83,170l192,0l0,-170l389,0l0,98z"/>
<glyph unicode="&#xC7;" horiz-adv-x="576" d="M485,154C448,113 406,89 348,89C238,89 168,179 168,328C168,475 244,565 352,565C402,565 439,544 472,511l65,72C496,627 430,666 351,666C183,666 49,539 49,325C49,124 161,6 310,-10l-33,-65C320,-86 338,-100 338,-121C338,-148 302,-161 252,-167l10,-50C347,-211 423,-182 423,-119C423,-78 398,-58 364,-46l17,36C448,-2 505,31 550,83z"/>
<glyph unicode="&#x106;" horiz-adv-x="576" d="M49,325C49,108 179,-12 346,-12C428,-12 497,22 550,83l-65,71C448,113 406,89 348,89C238,89 168,179 168,328C168,475 244,565 352,565C402,565 439,544 472,511l65,72C496,627 430,666 351,666C183,666 49,539 49,325 z M484,820l-126,0l-84,-116l93,0z"/>
<glyph unicode="&#x108;" horiz-adv-x="576" d="M49,325C49,108 179,-12 346,-12C428,-12 497,22 550,83l-65,71C448,113 406,89 348,89C238,89 168,179 168,328C168,475 244,565 352,565C402,565 439,544 472,511l65,72C496,627 430,666 351,666C183,666 49,539 49,325 z M275,704l60,64l4,0l60,-64l90,0l-96,116l-112,0l-96,-116z"/>
<glyph unicode="&#x10C;" horiz-adv-x="576" d="M49,325C49,108 179,-12 346,-12C428,-12 497,22 550,83l-65,71C448,113 406,89 348,89C238,89 168,179 168,328C168,475 244,565 352,565C402,565 439,544 472,511l65,72C496,627 430,666 351,666C183,666 49,539 49,325 z M399,820l-60,-64l-4,0l-60,64l-90,0l96,-116l112,0l96,116z"/>
<glyph unicode="&#x10A;" horiz-adv-x="576" d="M49,325C49,108 179,-12 346,-12C428,-12 497,22 550,83l-65,71C448,113 406,89 348,89C238,89 168,179 168,328C168,475 244,565 352,565C402,565 439,544 472,511l65,72C496,627 430,666 351,666C183,666 49,539 49,325 z M337,707C378,707 408,734 408,773C408,811 378,838 337,838C296,838 266,811 266,773C266,734 296,707 337,707z"/>
<glyph unicode="&#x10E;" horiz-adv-x="625" d="M83,0l181,0C458,0 576,113 576,330C576,546 458,654 258,654l-175,0 z M199,94l0,466l51,0C382,560 457,490 457,330C457,169 382,94 250,94 z M375,820l-60,-64l-4,0l-60,64l-90,0l96,-116l112,0l96,116z"/>
<glyph unicode="&#x1E0C;" horiz-adv-x="625" d="M83,0l181,0C458,0 576,113 576,330C576,546 458,654 258,654l-175,0 z M199,94l0,466l51,0C382,560 457,490 457,330C457,169 382,94 250,94 z M309,-216C348,-216 377,-189 377,-150C377,-112 348,-85 309,-85C269,-85 241,-112 241,-150C241,-189 269,-216 309,-216z"/>
<glyph unicode="&#x1E0E;" horiz-adv-x="625" d="M83,0l181,0C458,0 576,113 576,330C576,546 458,654 258,654l-175,0 z M199,94l0,466l51,0C382,560 457,490 457,330C457,169 382,94 250,94 z M439,-104l-261,0l0,-76l261,0z"/>
<glyph unicode="&#x110;" horiz-adv-x="649" d="M223,94l0,217l137,0l0,59l-137,0l0,190l51,0C405,560 481,490 481,330C481,169 405,94 274,94 z M107,654l0,-284l-77,-4l0,-55l77,0l0,-311l180,0C482,0 600,113 600,330C600,546 482,654 281,654z"/>
<glyph unicode="&#xC8;" horiz-adv-x="538" d="M83,0l404,0l0,98l-288,0l0,193l235,0l0,98l-235,0l0,167l278,0l0,98l-394,0 z M256,704l94,0l-85,116l-125,0z"/>
<glyph unicode="&#xC9;" horiz-adv-x="538" d="M83,0l404,0l0,98l-288,0l0,193l235,0l0,98l-235,0l0,167l278,0l0,98l-394,0 z M433,820l-125,0l-85,-116l94,0z"/>
<glyph unicode="&#xCA;" horiz-adv-x="538" d="M83,0l404,0l0,98l-288,0l0,193l235,0l0,98l-235,0l0,167l278,0l0,98l-394,0 z M224,704l60,64l4,0l60,-64l90,0l-96,116l-112,0l-96,-116z"/>
<glyph unicode="&#x11A;" horiz-adv-x="538" d="M83,0l404,0l0,98l-288,0l0,193l235,0l0,98l-235,0l0,167l278,0l0,98l-394,0 z M348,820l-60,-64l-4,0l-60,64l-90,0l96,-116l112,0l96,116z"/>
<glyph unicode="&#xCB;" horiz-adv-x="538" d="M83,0l404,0l0,98l-288,0l0,193l235,0l0,98l-235,0l0,167l278,0l0,98l-394,0 z M194,708C228,708 253,733 253,767C253,802 228,827 194,827C159,827 134,802 134,767C134,733 159,708 194,708 z M379,708C414,708 439,733 439,767C439,802 414,827 379,827C344,827 320,802 320,767C320,733 344,708 379,708z"/>
<glyph unicode="&#x112;" horiz-adv-x="538" d="M83,0l404,0l0,98l-288,0l0,193l235,0l0,98l-235,0l0,167l278,0l0,98l-394,0 z M154,724l265,0l0,76l-265,0z"/>
<glyph unicode="&#x114;" horiz-adv-x="538" d="M83,0l404,0l0,98l-288,0l0,193l235,0l0,98l-235,0l0,167l278,0l0,98l-394,0 z M286,705C370,705 409,756 416,820l-65,0C345,791 326,766 286,766C247,766 228,791 222,820l-66,0C164,756 203,705 286,705z"/>
<glyph unicode="&#x116;" horiz-adv-x="538" d="M83,0l404,0l0,98l-288,0l0,193l235,0l0,98l-235,0l0,167l278,0l0,98l-394,0 z M286,707C327,707 358,734 358,773C358,811 327,838 286,838C246,838 215,811 215,773C215,734 246,707 286,707z"/>
<glyph unicode="&#x1EB8;" horiz-adv-x="538" d="M83,0l404,0l0,98l-288,0l0,193l235,0l0,98l-235,0l0,167l278,0l0,98l-394,0 z M295,-216C335,-216 363,-189 363,-150C363,-112 335,-85 295,-85C256,-85 227,-112 227,-150C227,-189 256,-216 295,-216z"/>
<glyph unicode="&#x1EBA;" horiz-adv-x="538" d="M83,0l404,0l0,98l-288,0l0,193l235,0l0,98l-235,0l0,167l278,0l0,98l-394,0 z M255,694C322,702 380,730 380,793C380,845 332,876 226,879l-12,-61C270,815 295,803 295,780C295,759 273,749 244,743z"/>
<glyph unicode="&#x1EBC;" horiz-adv-x="538" d="M83,0l404,0l0,98l-288,0l0,193l235,0l0,98l-235,0l0,167l278,0l0,98l-394,0 z M348,707C398,707 436,753 444,829l-60,0C377,796 362,781 344,781C310,781 278,829 225,829C175,829 137,784 129,707l60,0C196,740 210,756 229,756C262,756 295,707 348,707z"/>
<glyph unicode="&#x1EBE;" horiz-adv-x="538" d="M83,0l404,0l0,98l-288,0l0,193l235,0l0,98l-235,0l0,167l278,0l0,98l-394,0 z M389,770l68,0l94,116l-93,0 z M143,704l84,0l57,58l4,0l58,-58l84,0l-94,110l-100,0z"/>
<glyph unicode="&#x1EC0;" horiz-adv-x="538" d="M83,0l404,0l0,98l-288,0l0,193l235,0l0,98l-235,0l0,167l278,0l0,98l-394,0 z M428,886l-93,0l95,-116l68,0 z M143,704l84,0l57,58l4,0l58,-58l84,0l-94,110l-100,0z"/>
<glyph unicode="&#x1EC2;" horiz-adv-x="538" d="M83,0l404,0l0,98l-288,0l0,193l235,0l0,98l-235,0l0,167l278,0l0,98l-394,0 z M413,752C469,758 517,780 517,835C517,880 477,908 383,912l-11,-52C422,857 440,847 440,825C440,806 423,798 402,793 z M143,704l84,0l57,58l4,0l58,-58l84,0l-94,110l-100,0z"/>
<glyph unicode="&#x1EC4;" horiz-adv-x="538" d="M83,0l404,0l0,98l-288,0l0,193l235,0l0,98l-235,0l0,167l278,0l0,98l-394,0 z M143,704l84,0l57,58l4,0l58,-58l84,0l-94,110l-100,0 z M200,849C205,877 219,891 237,891C267,891 293,849 341,849C386,849 420,887 427,953l-54,0C368,925 354,911 335,911C305,911 280,953 232,953C186,953 152,915 146,849z"/>
<glyph unicode="&#x1EC6;" horiz-adv-x="538" d="M83,0l404,0l0,98l-288,0l0,193l235,0l0,98l-235,0l0,167l278,0l0,98l-394,0 z M224,704l60,64l4,0l60,-64l90,0l-96,116l-112,0l-96,-116 z M295,-216C335,-216 363,-189 363,-150C363,-112 335,-85 295,-85C256,-85 227,-112 227,-150C227,-189 256,-216 295,-216z"/>
<glyph unicode="&#x118;" horiz-adv-x="538" d="M83,0l301,0C348,-22 307,-69 307,-127C307,-186 354,-218 412,-218C443,-218 482,-204 505,-186l-29,60C465,-134 453,-140 438,-140C416,-140 394,-127 394,-98C394,-50 437,-4 482,0l5,0l0,98l-288,0l0,193l235,0l0,98l-235,0l0,167l278,0l0,98l-394,0z"/>
<glyph unicode="&#x11C;" horiz-adv-x="628" d="M49,325C49,108 180,-12 354,-12C444,-12 521,22 566,66l0,288l-228,0l0,-95l124,0l0,-141C441,99 405,89 368,89C237,89 168,179 168,328C168,475 246,565 362,565C423,565 459,543 492,511l64,72C515,625 451,666 361,666C184,666 49,539 49,325 z M298,704l60,64l4,0l60,-64l90,0l-96,116l-112,0l-96,-116z"/>
<glyph unicode="&#x11E;" horiz-adv-x="628" d="M49,325C49,108 180,-12 354,-12C444,-12 521,22 566,66l0,288l-228,0l0,-95l124,0l0,-141C441,99 405,89 368,89C237,89 168,179 168,328C168,475 246,565 362,565C423,565 459,543 492,511l64,72C515,625 451,666 361,666C184,666 49,539 49,325 z M360,705C444,705 483,756 490,820l-65,0C419,791 400,766 360,766C321,766 302,791 296,820l-66,0C238,756 277,705 360,705z"/>
<glyph unicode="&#x120;" horiz-adv-x="628" d="M49,325C49,108 180,-12 354,-12C444,-12 521,22 566,66l0,288l-228,0l0,-95l124,0l0,-141C441,99 405,89 368,89C237,89 168,179 168,328C168,475 246,565 362,565C423,565 459,543 492,511l64,72C515,625 451,666 361,666C184,666 49,539 49,325 z M360,707C401,707 432,734 432,773C432,811 401,838 360,838C320,838 289,811 289,773C289,734 320,707 360,707z"/>
<glyph unicode="&#x122;" horiz-adv-x="628" d="M49,325C49,108 180,-12 354,-12C444,-12 521,22 566,66l0,288l-228,0l0,-95l124,0l0,-141C441,99 405,89 368,89C237,89 168,179 168,328C168,475 246,565 362,565C423,565 459,543 492,511l64,72C515,625 451,666 361,666C184,666 49,539 49,325 z M323,-45l-23,-46C329,-98 347,-109 347,-132C347,-156 312,-167 262,-173l9,-50C356,-217 432,-188 432,-125C432,-78 402,-54 323,-45z"/>
<glyph unicode="&#x1E6;" horiz-adv-x="628" d="M49,325C49,108 180,-12 354,-12C444,-12 521,22 566,66l0,288l-228,0l0,-95l124,0l0,-141C441,99 405,89 368,89C237,89 168,179 168,328C168,475 246,565 362,565C423,565 459,543 492,511l64,72C515,625 451,666 361,666C184,666 49,539 49,325 z M422,820l-60,-64l-4,0l-60,64l-90,0l96,-116l112,0l96,116z"/>
<glyph unicode="&#x1E20;" horiz-adv-x="628" d="M49,325C49,108 180,-12 354,-12C444,-12 521,22 566,66l0,288l-228,0l0,-95l124,0l0,-141C441,99 405,89 368,89C237,89 168,179 168,328C168,475 246,565 362,565C423,565 459,543 492,511l64,72C515,625 451,666 361,666C184,666 49,539 49,325 z M228,724l265,0l0,76l-265,0z"/>
<glyph unicode="&#xE000;" horiz-adv-x="628" d="M49,325C49,108 180,-12 354,-12C444,-12 521,22 566,66l0,288l-228,0l0,-95l124,0l0,-141C441,99 405,89 368,89C237,89 168,179 168,328C168,475 246,565 362,565C423,565 459,543 492,511l64,72C515,625 451,666 361,666C184,666 49,539 49,325 z M422,707C472,707 510,753 518,829l-60,0C451,796 436,781 418,781C384,781 352,829 299,829C249,829 211,784 203,707l60,0C270,740 284,756 303,756C336,756 369,707 422,707z"/>
<glyph unicode="&#x124;" horiz-adv-x="663" d="M83,0l116,0l0,290l265,0l0,-290l116,0l0,654l-116,0l0,-263l-265,0l0,263l-116,0 z M269,704l60,64l4,0l60,-64l90,0l-96,116l-112,0l-96,-116z"/>
<glyph unicode="&#x1E24;" horiz-adv-x="663" d="M83,0l116,0l0,290l265,0l0,-290l116,0l0,654l-116,0l0,-263l-265,0l0,263l-116,0 z M331,-216C370,-216 399,-189 399,-150C399,-112 370,-85 331,-85C291,-85 263,-112 263,-150C263,-189 291,-216 331,-216z"/>
<glyph unicode="&#x1E2A;" horiz-adv-x="663" d="M83,0l116,0l0,290l265,0l0,-290l116,0l0,654l-116,0l0,-263l-265,0l0,263l-116,0 z M331,-208C420,-208 460,-141 464,-75l-67,0C392,-111 372,-142 331,-142C290,-142 270,-111 265,-75l-67,0C202,-141 241,-208 331,-208z"/>
<glyph unicode="&#x126;" horiz-adv-x="700" d="M484,391l-265,0l0,98l265,0 z M671,548l-71,0l0,106l-116,0l0,-106l-265,0l0,106l-116,0l0,-106l-75,-5l0,-54l75,0l0,-489l116,0l0,290l265,0l0,-290l116,0l0,489l71,0z"/>
<glyph unicode="&#xCC;" horiz-adv-x="282" d="M83,0l116,0l0,654l-116,0 z M111,704l93,0l-84,116l-126,0z"/>
<glyph unicode="&#xCD;" horiz-adv-x="282" d="M83,0l116,0l0,654l-116,0 z M288,820l-126,0l-84,-116l94,0z"/>
<glyph unicode="&#xCE;" horiz-adv-x="282" d="M83,0l116,0l0,654l-116,0 z M79,704l60,64l4,0l60,-64l90,0l-96,116l-112,0l-96,-116z"/>
<glyph unicode="&#x128;" horiz-adv-x="282" d="M83,0l116,0l0,654l-116,0 z M203,707C253,707 291,753 299,829l-61,0C232,796 217,781 199,781C165,781 133,829 80,829C30,829 -8,784 -16,707l60,0C50,740 65,756 84,756C117,756 150,707 203,707z"/>
<glyph unicode="&#xCF;" horiz-adv-x="282" d="M83,0l116,0l0,654l-116,0 z M48,708C83,708 108,733 108,767C108,802 83,827 48,827C14,827 -11,802 -11,767C-11,733 14,708 48,708 z M234,708C269,708 294,733 294,767C294,802 269,827 234,827C199,827 174,802 174,767C174,733 199,708 234,708z"/>
<glyph unicode="&#x12A;" horiz-adv-x="282" d="M83,0l116,0l0,654l-116,0 z M8,724l266,0l0,76l-266,0z"/>
<glyph unicode="&#x130;" horiz-adv-x="282" d="M83,0l116,0l0,654l-116,0 z M141,707C182,707 212,734 212,773C212,811 182,838 141,838C100,838 70,811 70,773C70,734 100,707 141,707z"/>
<glyph unicode="&#x1CF;" horiz-adv-x="282" d="M83,0l116,0l0,654l-116,0 z M203,820l-60,-64l-4,0l-60,64l-90,0l96,-116l112,0l96,116z"/>
<glyph unicode="&#x1EC8;" horiz-adv-x="282" d="M83,0l116,0l0,654l-116,0 z M110,694C176,702 235,730 235,793C235,845 187,876 81,879l-13,-61C125,815 150,803 150,780C150,759 128,749 99,743z"/>
<glyph unicode="&#x1ECA;" horiz-adv-x="282" d="M83,0l116,0l0,654l-116,0 z M142,-216C181,-216 210,-189 210,-150C210,-112 181,-85 142,-85C102,-85 74,-112 74,-150C74,-189 102,-216 142,-216z"/>
<glyph unicode="&#x12E;" horiz-adv-x="282" d="M83,0l30,0C83,-25 43,-66 43,-127C43,-186 90,-218 148,-218C179,-218 218,-204 240,-186l-28,60C202,-134 188,-140 173,-140C152,-140 129,-127 129,-98C129,-61 152,-27 199,0l0,654l-116,0z"/>
<glyph unicode="&#x134;" horiz-adv-x="494" d="M24,99C65,26 128,-12 219,-12C356,-12 414,86 414,205l0,449l-116,0l0,-439C298,122 267,89 206,89C166,89 130,110 104,158 z M292,704l60,64l4,0l60,-64l90,0l-96,116l-112,0l-96,-116z"/>
<glyph unicode="&#x136;" horiz-adv-x="597" d="M83,0l116,0l0,191l94,117l177,-308l128,0l-235,399l201,255l-129,0l-233,-297l-3,0l0,297l-116,0 z M296,-45l-23,-46C302,-98 320,-109 320,-132C320,-156 285,-167 235,-173l9,-50C330,-217 406,-188 406,-125C406,-78 375,-54 296,-45z"/>
<glyph unicode="&#x139;" horiz-adv-x="502" d="M83,0l388,0l0,98l-272,0l0,556l-116,0 z M291,820l-125,0l-85,-116l94,0z"/>
<glyph unicode="&#x13D;" horiz-adv-x="502" d="M83,0l388,0l0,98l-272,0l0,556l-116,0 z M395,512l19,154l2,63l-77,0l4,-217z"/>
<glyph unicode="&#x13B;" horiz-adv-x="502" d="M83,0l388,0l0,98l-272,0l0,556l-116,0 z M257,-45l-24,-46C263,-98 281,-109 281,-132C281,-156 245,-167 195,-173l10,-50C290,-217 366,-188 366,-125C366,-78 335,-54 257,-45z"/>
<glyph unicode="&#x13F;" horiz-adv-x="502" d="M83,0l388,0l0,98l-272,0l0,556l-116,0 z M319,327C319,282 352,249 394,249C436,249 468,282 468,327C468,372 436,405 394,405C352,405 319,372 319,327z"/>
<glyph unicode="&#x1E36;" horiz-adv-x="502" d="M83,0l388,0l0,98l-272,0l0,556l-116,0 z M289,-216C329,-216 357,-189 357,-150C357,-112 329,-85 289,-85C249,-85 221,-112 221,-150C221,-189 249,-216 289,-216z"/>
<glyph unicode="&#x1E38;" horiz-adv-x="502" d="M83,0l388,0l0,98l-272,0l0,556l-116,0 z M12,724l265,0l0,76l-265,0 z M289,-216C329,-216 357,-189 357,-150C357,-112 329,-85 289,-85C249,-85 221,-112 221,-150C221,-189 249,-216 289,-216z"/>
<glyph unicode="&#x1E3A;" horiz-adv-x="502" d="M83,0l388,0l0,98l-272,0l0,556l-116,0 z M419,-104l-261,0l0,-76l261,0z"/>
<glyph unicode="&#x141;" horiz-adv-x="507" d="M206,98l0,180l179,97l0,91l-179,-97l0,285l-116,0l0,-338l-78,-45l0,-91l78,45l0,-225l387,0l0,98z"/>
<glyph unicode="&#x1E42;" horiz-adv-x="745" d="M83,0l107,0l0,299C190,360 181,447 175,507l4,0l52,-149l113,-297l54,0l113,297l53,149l4,0C562,447 553,360 553,299l0,-299l109,0l0,654l-128,0l-116,-322l-42,-124l-4,0l-43,124l-118,322l-128,0 z M374,-216C414,-216 442,-189 442,-150C442,-112 414,-85 374,-85C334,-85 306,-112 306,-150C306,-189 334,-216 374,-216z"/>
<glyph unicode="&#x143;" horiz-adv-x="656" d="M83,0l111,0l0,286C194,359 184,438 179,507l4,0l67,-139l204,-368l119,0l0,654l-111,0l0,-284C462,297 472,214 477,147l-4,0l-67,139l-204,368l-119,0 z M477,820l-126,0l-84,-116l93,0z"/>
<glyph unicode="&#x147;" horiz-adv-x="656" d="M83,0l111,0l0,286C194,359 184,438 179,507l4,0l67,-139l204,-368l119,0l0,654l-111,0l0,-284C462,297 472,214 477,147l-4,0l-67,139l-204,368l-119,0 z M392,820l-60,-64l-4,0l-60,64l-90,0l96,-116l112,0l96,116z"/>
<glyph unicode="&#xD1;" horiz-adv-x="656" d="M83,0l111,0l0,286C194,359 184,438 179,507l4,0l67,-139l204,-368l119,0l0,654l-111,0l0,-284C462,297 472,214 477,147l-4,0l-67,139l-204,368l-119,0 z M392,707C442,707 480,753 488,829l-61,0C421,796 406,781 388,781C354,781 322,829 268,829C218,829 180,784 172,707l61,0C239,740 254,756 272,756C306,756 338,707 392,707z"/>
<glyph unicode="&#x145;" horiz-adv-x="656" d="M83,0l111,0l0,286C194,359 184,438 179,507l4,0l67,-139l204,-368l119,0l0,654l-111,0l0,-284C462,297 472,214 477,147l-4,0l-67,139l-204,368l-119,0 z M304,-45l-24,-46C310,-98 328,-109 328,-132C328,-156 292,-167 242,-173l10,-50C337,-217 413,-188 413,-125C413,-78 382,-54 304,-45z"/>
<glyph unicode="&#x1E44;" horiz-adv-x="656" d="M83,0l111,0l0,286C194,359 184,438 179,507l4,0l67,-139l204,-368l119,0l0,654l-111,0l0,-284C462,297 472,214 477,147l-4,0l-67,139l-204,368l-119,0 z M330,707C371,707 401,734 401,773C401,811 371,838 330,838C289,838 259,811 259,773C259,734 289,707 330,707z"/>
<glyph unicode="&#x1E46;" horiz-adv-x="656" d="M83,0l111,0l0,286C194,359 184,438 179,507l4,0l67,-139l204,-368l119,0l0,654l-111,0l0,-284C462,297 472,214 477,147l-4,0l-67,139l-204,368l-119,0 z M336,-216C376,-216 404,-189 404,-150C404,-112 376,-85 336,-85C296,-85 268,-112 268,-150C268,-189 296,-216 336,-216z"/>
<glyph unicode="&#x1E48;" horiz-adv-x="656" d="M83,0l111,0l0,286C194,359 184,438 179,507l4,0l67,-139l204,-368l119,0l0,654l-111,0l0,-284C462,297 472,214 477,147l-4,0l-67,139l-204,368l-119,0 z M466,-104l-261,0l0,-76l261,0z"/>
<glyph unicode="&#xD2;" horiz-adv-x="674" d="M337,-12C508,-12 626,118 626,330C626,541 508,666 337,666C167,666 49,541 49,330C49,118 167,-12 337,-12 z M337,89C234,89 168,183 168,330C168,476 234,565 337,565C440,565 506,476 506,330C506,183 440,89 337,89 z M307,704l93,0l-84,116l-126,0z"/>
<glyph unicode="&#xD3;" horiz-adv-x="674" d="M337,-12C508,-12 626,118 626,330C626,541 508,666 337,666C167,666 49,541 49,330C49,118 167,-12 337,-12 z M337,89C234,89 168,183 168,330C168,476 234,565 337,565C440,565 506,476 506,330C506,183 440,89 337,89 z M484,820l-126,0l-84,-116l94,0z"/>
<glyph unicode="&#xD4;" horiz-adv-x="674" d="M337,-12C508,-12 626,118 626,330C626,541 508,666 337,666C167,666 49,541 49,330C49,118 167,-12 337,-12 z M337,89C234,89 168,183 168,330C168,476 234,565 337,565C440,565 506,476 506,330C506,183 440,89 337,89 z M275,704l60,64l4,0l60,-64l90,0l-96,116l-112,0l-96,-116z"/>
<glyph unicode="&#xD5;" horiz-adv-x="674" d="M337,-12C508,-12 626,118 626,330C626,541 508,666 337,666C167,666 49,541 49,330C49,118 167,-12 337,-12 z M337,89C234,89 168,183 168,330C168,476 234,565 337,565C440,565 506,476 506,330C506,183 440,89 337,89 z M399,707C449,707 487,753 495,829l-61,0C428,796 413,781 395,781C361,781 329,829 276,829C226,829 188,784 180,707l60,0C246,740 261,756 280,756C313,756 346,707 399,707z"/>
<glyph unicode="&#xD6;" horiz-adv-x="674" d="M337,-12C508,-12 626,118 626,330C626,541 508,666 337,666C167,666 49,541 49,330C49,118 167,-12 337,-12 z M337,89C234,89 168,183 168,330C168,476 234,565 337,565C440,565 506,476 506,330C506,183 440,89 337,89 z M244,708C279,708 304,733 304,767C304,802 279,827 244,827C210,827 185,802 185,767C185,733 210,708 244,708 z M430,708C465,708 490,733 490,767C490,802 465,827 430,827C395,827 370,802 370,767C370,733 395,708 430,708z"/>
<glyph unicode="&#x14C;" horiz-adv-x="674" d="M337,-12C508,-12 626,118 626,330C626,541 508,666 337,666C167,666 49,541 49,330C49,118 167,-12 337,-12 z M337,89C234,89 168,183 168,330C168,476 234,565 337,565C440,565 506,476 506,330C506,183 440,89 337,89 z M204,724l266,0l0,76l-266,0z"/>
<glyph unicode="&#x150;" horiz-adv-x="674" d="M337,-12C508,-12 626,118 626,330C626,541 508,666 337,666C167,666 49,541 49,330C49,118 167,-12 337,-12 z M337,89C234,89 168,183 168,330C168,476 234,565 337,565C440,565 506,476 506,330C506,183 440,89 337,89 z M294,704l86,116l-102,0l-64,-116 z M383,704l79,0l87,116l-102,0z"/>
<glyph unicode="&#x1D1;" horiz-adv-x="674" d="M337,-12C508,-12 626,118 626,330C626,541 508,666 337,666C167,666 49,541 49,330C49,118 167,-12 337,-12 z M337,89C234,89 168,183 168,330C168,476 234,565 337,565C440,565 506,476 506,330C506,183 440,89 337,89 z M399,820l-60,-64l-4,0l-60,64l-90,0l96,-116l112,0l96,116z"/>
<glyph unicode="&#x1ECC;" horiz-adv-x="674" d="M337,-12C508,-12 626,118 626,330C626,541 508,666 337,666C167,666 49,541 49,330C49,118 167,-12 337,-12 z M337,89C234,89 168,183 168,330C168,476 234,565 337,565C440,565 506,476 506,330C506,183 440,89 337,89 z M337,-216C377,-216 405,-189 405,-150C405,-112 377,-85 337,-85C298,-85 269,-112 269,-150C269,-189 298,-216 337,-216z"/>
<glyph unicode="&#x1ECE;" horiz-adv-x="674" d="M337,-12C508,-12 626,118 626,330C626,541 508,666 337,666C167,666 49,541 49,330C49,118 167,-12 337,-12 z M337,89C234,89 168,183 168,330C168,476 234,565 337,565C440,565 506,476 506,330C506,183 440,89 337,89 z M306,694C372,702 431,730 431,793C431,845 383,876 277,879l-13,-61C321,815 346,803 346,780C346,759 324,749 295,743z"/>
<glyph unicode="&#x1ED0;" horiz-adv-x="674" d="M337,-12C508,-12 626,118 626,330C626,541 508,666 337,666C167,666 49,541 49,330C49,118 167,-12 337,-12 z M337,89C234,89 168,183 168,330C168,476 234,565 337,565C440,565 506,476 506,330C506,183 440,89 337,89 z M439,770l68,0l95,116l-93,0 z M194,704l84,0l57,58l4,0l58,-58l84,0l-94,110l-100,0z"/>
<glyph unicode="&#x1ED2;" horiz-adv-x="674" d="M337,-12C508,-12 626,118 626,330C626,541 508,666 337,666C167,666 49,541 49,330C49,118 167,-12 337,-12 z M337,89C234,89 168,183 168,330C168,476 234,565 337,565C440,565 506,476 506,330C506,183 440,89 337,89 z M479,886l-93,0l95,-116l68,0 z M194,704l84,0l57,58l4,0l58,-58l84,0l-94,110l-100,0z"/>
<glyph unicode="&#x1ED4;" horiz-adv-x="674" d="M337,-12C508,-12 626,118 626,330C626,541 508,666 337,666C167,666 49,541 49,330C49,118 167,-12 337,-12 z M337,89C234,89 168,183 168,330C168,476 234,565 337,565C440,565 506,476 506,330C506,183 440,89 337,89 z M464,752C520,758 568,780 568,835C568,880 528,908 434,912l-11,-52C473,857 491,847 491,825C491,806 474,798 452,793 z M194,704l84,0l57,58l4,0l58,-58l84,0l-94,110l-100,0z"/>
<glyph unicode="&#x1ED6;" horiz-adv-x="674" d="M337,-12C508,-12 626,118 626,330C626,541 508,666 337,666C167,666 49,541 49,330C49,118 167,-12 337,-12 z M337,89C234,89 168,183 168,330C168,476 234,565 337,565C440,565 506,476 506,330C506,183 440,89 337,89 z M194,704l84,0l57,58l4,0l58,-58l84,0l-94,110l-100,0 z M250,849C256,877 270,891 288,891C318,891 344,849 392,849C437,849 471,887 478,953l-54,0C419,925 405,911 386,911C356,911 330,953 282,953C237,953 203,915 196,849z"/>
<glyph unicode="&#x1ED8;" horiz-adv-x="674" d="M337,-12C508,-12 626,118 626,330C626,541 508,666 337,666C167,666 49,541 49,330C49,118 167,-12 337,-12 z M337,89C234,89 168,183 168,330C168,476 234,565 337,565C440,565 506,476 506,330C506,183 440,89 337,89 z M275,704l60,64l4,0l60,-64l90,0l-96,116l-112,0l-96,-116 z M337,-216C377,-216 405,-189 405,-150C405,-112 377,-85 337,-85C298,-85 269,-112 269,-150C269,-189 298,-216 337,-216z"/>
<glyph unicode="&#xD8;" horiz-adv-x="674" d="M489,450C501,417 508,376 508,330C508,183 442,89 339,89C299,89 264,103 237,130 z M192,199C178,235 170,280 170,330C170,476 236,565 339,565C382,565 418,550 446,522 z M640,642l-62,48l-64,-82C467,646 407,666 339,666C168,666 50,541 50,330C50,236 73,158 114,100l-69,-88l61,-48l62,79C215,7 273,-12 339,-12C509,-12 627,118 627,330C627,420 606,494 568,550z"/>
<glyph unicode="&#x152;" horiz-adv-x="859" d="M49,330C49,113 179,0 371,0l437,0l0,98l-272,0l0,193l220,0l0,98l-220,0l0,167l262,0l0,98l-421,0C179,654 49,546 49,330 z M168,330C168,492 249,560 384,560l36,0l0,-466l-36,0C249,94 168,168 168,330z"/>
<glyph unicode="&#x1A0;" horiz-adv-x="674" d="M339,89C236,89 170,183 170,330C170,476 236,565 339,565C442,565 508,476 508,330C508,183 442,89 339,89 z M529,742C537,730 544,715 544,698C544,661 520,644 474,635C435,655 389,666 339,666C168,666 50,541 50,330C50,118 168,-12 339,-12C509,-12 627,118 627,330C627,445 592,535 532,593C594,610 635,645 635,706C635,735 623,760 609,778z"/>
<glyph unicode="&#x1EDA;" horiz-adv-x="674" d="M484,820l-126,0l-84,-116l94,0 z M339,89C236,89 170,183 170,330C170,476 236,565 339,565C442,565 508,476 508,330C508,183 442,89 339,89 z M529,742C537,730 544,715 544,698C544,661 520,644 474,635C435,655 389,666 339,666C168,666 50,541 50,330C50,118 168,-12 339,-12C509,-12 627,118 627,330C627,445 592,535 532,593C594,610 635,645 635,706C635,735 623,760 609,778z"/>
<glyph unicode="&#x1EDC;" horiz-adv-x="674" d="M400,704l-84,116l-126,0l117,-116 z M339,89C236,89 170,183 170,330C170,476 236,565 339,565C442,565 508,476 508,330C508,183 442,89 339,89 z M529,742C537,730 544,715 544,698C544,661 520,644 474,635C435,655 389,666 339,666C168,666 50,541 50,330C50,118 168,-12 339,-12C509,-12 627,118 627,330C627,445 592,535 532,593C594,610 635,645 635,706C635,735 623,760 609,778z"/>
<glyph unicode="&#x1EDE;" horiz-adv-x="674" d="M306,694C372,702 431,730 431,793C431,845 383,876 277,879l-13,-61C321,815 346,803 346,780C346,759 324,749 295,743 z M339,89C236,89 170,183 170,330C170,476 236,565 339,565C442,565 508,476 508,330C508,183 442,89 339,89 z M529,742C537,730 544,715 544,698C544,661 520,644 474,635C435,655 389,666 339,666C168,666 50,541 50,330C50,118 168,-12 339,-12C509,-12 627,118 627,330C627,445 592,535 532,593C594,610 635,645 635,706C635,735 623,760 609,778z"/>
<glyph unicode="&#x1EE0;" horiz-adv-x="674" d="M434,829C428,796 413,781 395,781C361,781 329,829 276,829C226,829 188,784 180,707l60,0C246,740 261,756 280,756C313,756 346,707 399,707C449,707 487,753 495,829 z M339,89C236,89 170,183 170,330C170,476 236,565 339,565C442,565 508,476 508,330C508,183 442,89 339,89 z M529,742C537,730 544,715 544,698C544,661 520,644 474,635C435,655 389,666 339,666C168,666 50,541 50,330C50,118 168,-12 339,-12C509,-12 627,118 627,330C627,445 592,535 532,593C594,610 635,645 635,706C635,735 623,760 609,778z"/>
<glyph unicode="&#x1EE2;" horiz-adv-x="674" d="M337,-85C298,-85 269,-112 269,-150C269,-189 298,-216 337,-216C377,-216 405,-189 405,-150C405,-112 377,-85 337,-85 z M339,89C236,89 170,183 170,330C170,476 236,565 339,565C442,565 508,476 508,330C508,183 442,89 339,89 z M529,742C537,730 544,715 544,698C544,661 520,644 474,635C435,655 389,666 339,666C168,666 50,541 50,330C50,118 168,-12 339,-12C509,-12 627,118 627,330C627,445 592,535 532,593C594,610 635,645 635,706C635,735 623,760 609,778z"/>
<glyph unicode="&#x1EA;" horiz-adv-x="674" d="M259,-127C259,-186 306,-218 364,-218C395,-218 434,-204 457,-186l-29,60C417,-134 405,-140 390,-140C368,-140 346,-127 346,-98C346,-68 368,-29 420,-6C550,53 626,148 626,330C626,541 508,666 337,666C167,666 49,541 49,330C49,127 154,-2 322,-11C289,-38 259,-79 259,-127 z M337,89C234,89 168,183 168,330C168,476 234,565 337,565C440,565 506,476 506,330C506,183 440,89 337,89z"/>
<glyph unicode="&#x154;" horiz-adv-x="599" d="M449,820l-126,0l-84,-116l93,0 z M199,561l93,0C381,561 430,535 430,460C430,386 381,348 292,348l-93,0 z M570,0l-156,273C492,300 544,360 544,460C544,606 440,654 304,654l-221,0l0,-654l116,0l0,256l100,0l141,-256z"/>
<glyph unicode="&#x158;" horiz-adv-x="599" d="M358,704l96,116l-90,0l-60,-64l-4,0l-60,64l-90,0l96,-116 z M199,561l93,0C381,561 430,535 430,460C430,386 381,348 292,348l-93,0 z M570,0l-156,273C492,300 544,360 544,460C544,606 440,654 304,654l-221,0l0,-654l116,0l0,256l100,0l141,-256z"/>
<glyph unicode="&#x156;" horiz-adv-x="599" d="M263,-91C292,-98 310,-109 310,-132C310,-156 274,-167 224,-173l10,-50C319,-217 395,-188 395,-125C395,-78 365,-54 286,-45 z M199,561l93,0C381,561 430,535 430,460C430,386 381,348 292,348l-93,0 z M414,273C492,300 544,360 544,460C544,606 440,654 304,654l-221,0l0,-654l116,0l0,256l100,0l141,-256l130,0z"/>
<glyph unicode="&#x1E5A;" horiz-adv-x="599" d="M318,-85C279,-85 250,-112 250,-150C250,-189 279,-216 318,-216C358,-216 386,-189 386,-150C386,-112 358,-85 318,-85 z M199,561l93,0C381,561 430,535 430,460C430,386 381,348 292,348l-93,0 z M414,273C492,300 544,360 544,460C544,606 440,654 304,654l-221,0l0,-654l116,0l0,256l100,0l141,-256l130,0z"/>
<glyph unicode="&#x1E5C;" horiz-adv-x="599" d="M435,800l-266,0l0,-76l266,0 z M318,-85C279,-85 250,-112 250,-150C250,-189 279,-216 318,-216C358,-216 386,-189 386,-150C386,-112 358,-85 318,-85 z M199,561l93,0C381,561 430,535 430,460C430,386 381,348 292,348l-93,0 z M414,273C492,300 544,360 544,460C544,606 440,654 304,654l-221,0l0,-654l116,0l0,256l100,0l141,-256l130,0z"/>
<glyph unicode="&#x1E5E;" horiz-adv-x="599" d="M199,561l93,0C381,561 430,535 430,460C430,386 381,348 292,348l-93,0 z M199,256l100,0l141,-256l130,0l-156,273C492,300 544,360 544,460C544,606 440,654 304,654l-221,0l0,-654l116,0 z M187,-180l262,0l0,76l-262,0z"/>
<glyph unicode="&#x15A;" horiz-adv-x="545" d="M38,84C100,23 186,-12 274,-12C421,-12 509,76 509,182C509,277 454,326 377,359l-89,37C234,418 184,437 184,488C184,536 225,565 287,565C343,565 387,544 429,509l59,74C437,634 363,666 287,666C159,666 67,586 67,482C67,386 135,335 199,308l90,-39C348,244 390,227 390,173C390,122 350,89 276,89C216,89 153,119 106,163 z M432,820l-126,0l-84,-116l94,0z"/>
<glyph unicode="&#x15C;" horiz-adv-x="545" d="M38,84C100,23 186,-12 274,-12C421,-12 509,76 509,182C509,277 454,326 377,359l-89,37C234,418 184,437 184,488C184,536 225,565 287,565C343,565 387,544 429,509l59,74C437,634 363,666 287,666C159,666 67,586 67,482C67,386 135,335 199,308l90,-39C348,244 390,227 390,173C390,122 350,89 276,89C216,89 153,119 106,163 z M223,704l60,64l4,0l60,-64l90,0l-96,116l-112,0l-96,-116z"/>
<glyph unicode="&#x160;" horiz-adv-x="545" d="M38,84C100,23 186,-12 274,-12C421,-12 509,76 509,182C509,277 454,326 377,359l-89,37C234,418 184,437 184,488C184,536 225,565 287,565C343,565 387,544 429,509l59,74C437,634 363,666 287,666C159,666 67,586 67,482C67,386 135,335 199,308l90,-39C348,244 390,227 390,173C390,122 350,89 276,89C216,89 153,119 106,163 z M347,820l-60,-64l-4,0l-60,64l-90,0l96,-116l112,0l96,116z"/>
<glyph unicode="&#x15E;" horiz-adv-x="545" d="M288,396C234,418 184,437 184,488C184,536 225,565 287,565C343,565 387,544 429,509l59,74C437,634 363,666 287,666C159,666 67,586 67,482C67,386 135,335 199,308l90,-39C348,244 390,227 390,173C390,122 350,89 276,89C216,89 153,119 106,163l-68,-79C92,31 164,-3 240,-10l-33,-65C250,-86 268,-100 268,-121C268,-148 232,-161 182,-167l10,-50C277,-211 353,-182 353,-119C353,-78 327,-58 294,-46l17,36C436,3 509,85 509,182C509,277 454,326 377,359z"/>
<glyph unicode="&#x218;" horiz-adv-x="545" d="M38,84C100,23 186,-12 274,-12C421,-12 509,76 509,182C509,277 454,326 377,359l-89,37C234,418 184,437 184,488C184,536 225,565 287,565C343,565 387,544 429,509l59,74C437,634 363,666 287,666C159,666 67,586 67,482C67,386 135,335 199,308l90,-39C348,244 390,227 390,173C390,122 350,89 276,89C216,89 153,119 106,163 z M244,-45l-24,-46C250,-98 268,-109 268,-132C268,-156 232,-167 182,-173l10,-50C277,-217 353,-188 353,-125C353,-78 322,-54 244,-45z"/>
<glyph unicode="&#x1E60;" horiz-adv-x="545" d="M38,84C100,23 186,-12 274,-12C421,-12 509,76 509,182C509,277 454,326 377,359l-89,37C234,418 184,437 184,488C184,536 225,565 287,565C343,565 387,544 429,509l59,74C437,634 363,666 287,666C159,666 67,586 67,482C67,386 135,335 199,308l90,-39C348,244 390,227 390,173C390,122 350,89 276,89C216,89 153,119 106,163 z M285,707C326,707 356,734 356,773C356,811 326,838 285,838C244,838 214,811 214,773C214,734 244,707 285,707z"/>
<glyph unicode="&#x1E62;" horiz-adv-x="545" d="M38,84C100,23 186,-12 274,-12C421,-12 509,76 509,182C509,277 454,326 377,359l-89,37C234,418 184,437 184,488C184,536 225,565 287,565C343,565 387,544 429,509l59,74C437,634 363,666 287,666C159,666 67,586 67,482C67,386 135,335 199,308l90,-39C348,244 390,227 390,173C390,122 350,89 276,89C216,89 153,119 106,163 z M276,-216C316,-216 344,-189 344,-150C344,-112 316,-85 276,-85C236,-85 208,-112 208,-150C208,-189 236,-216 276,-216z"/>
<glyph unicode="&#x1E9E;" horiz-adv-x="686" d="M86,0l116,0l0,395C202,514 255,571 351,571C411,571 451,539 470,501l-123,-139l8,-70C486,270 526,226 526,175C526,121 492,83 436,83C397,83 363,97 328,134l-63,-72C304,21 367,-12 448,-12C572,-12 645,69 645,174C645,271 582,331 464,360l123,137C554,598 475,666 354,666C176,666 86,564 86,413z"/>
<glyph unicode="&#x164;" horiz-adv-x="546" d="M215,0l116,0l0,556l189,0l0,98l-494,0l0,-98l189,0 z M335,820l-60,-64l-4,0l-60,64l-90,0l96,-116l112,0l96,116z"/>
<glyph unicode="&#x162;" horiz-adv-x="546" d="M331,0l0,556l189,0l0,98l-494,0l0,-98l189,0l0,-556l26,0l-38,-75C246,-86 264,-100 264,-121C264,-148 228,-161 178,-167l10,-50C273,-211 349,-182 349,-119C349,-78 324,-58 290,-46l22,46z"/>
<glyph unicode="&#x21A;" horiz-adv-x="546" d="M215,0l116,0l0,556l189,0l0,98l-494,0l0,-98l189,0 z M241,-45l-23,-46C247,-98 265,-109 265,-132C265,-156 230,-167 180,-173l9,-50C274,-217 350,-188 350,-125C350,-78 320,-54 241,-45z"/>
<glyph unicode="&#x1E6C;" horiz-adv-x="546" d="M215,0l116,0l0,556l189,0l0,98l-494,0l0,-98l189,0 z M274,-216C313,-216 342,-189 342,-150C342,-112 313,-85 274,-85C234,-85 206,-112 206,-150C206,-189 234,-216 274,-216z"/>
<glyph unicode="&#x1E6E;" horiz-adv-x="546" d="M215,0l116,0l0,556l189,0l0,98l-494,0l0,-98l189,0 z M404,-104l-262,0l0,-76l262,0z"/>
<glyph unicode="&#xD9;" horiz-adv-x="655" d="M80,287C80,72 177,-12 328,-12C480,-12 575,72 575,287l0,367l-111,0l0,-376C464,136 408,89 328,89C249,89 196,136 196,278l0,376l-116,0 z M297,704l94,0l-85,116l-125,0z"/>
<glyph unicode="&#xDA;" horiz-adv-x="655" d="M80,287C80,72 177,-12 328,-12C480,-12 575,72 575,287l0,367l-111,0l0,-376C464,136 408,89 328,89C249,89 196,136 196,278l0,376l-116,0 z M474,820l-125,0l-85,-116l94,0z"/>
<glyph unicode="&#xDB;" horiz-adv-x="655" d="M80,287C80,72 177,-12 328,-12C480,-12 575,72 575,287l0,367l-111,0l0,-376C464,136 408,89 328,89C249,89 196,136 196,278l0,376l-116,0 z M266,704l60,64l4,0l60,-64l90,0l-96,116l-112,0l-96,-116z"/>
<glyph unicode="&#x168;" horiz-adv-x="655" d="M80,287C80,72 177,-12 328,-12C480,-12 575,72 575,287l0,367l-111,0l0,-376C464,136 408,89 328,89C249,89 196,136 196,278l0,376l-116,0 z M389,707C439,707 477,753 485,829l-60,0C418,796 404,781 385,781C352,781 319,829 266,829C216,829 178,784 170,707l60,0C237,740 252,756 270,756C304,756 336,707 389,707z"/>
<glyph unicode="&#xDC;" horiz-adv-x="655" d="M80,287C80,72 177,-12 328,-12C480,-12 575,72 575,287l0,367l-111,0l0,-376C464,136 408,89 328,89C249,89 196,136 196,278l0,376l-116,0 z M235,708C270,708 294,733 294,767C294,802 270,827 235,827C200,827 175,802 175,767C175,733 200,708 235,708 z M420,708C455,708 480,733 480,767C480,802 455,827 420,827C386,827 361,802 361,767C361,733 386,708 420,708z"/>
<glyph unicode="&#x16A;" horiz-adv-x="655" d="M80,287C80,72 177,-12 328,-12C480,-12 575,72 575,287l0,367l-111,0l0,-376C464,136 408,89 328,89C249,89 196,136 196,278l0,376l-116,0 z M195,724l265,0l0,76l-265,0z"/>
<glyph unicode="&#x16C;" horiz-adv-x="655" d="M80,287C80,72 177,-12 328,-12C480,-12 575,72 575,287l0,367l-111,0l0,-376C464,136 408,89 328,89C249,89 196,136 196,278l0,376l-116,0 z M328,705C411,705 450,756 458,820l-66,0C386,791 367,766 328,766C288,766 269,791 263,820l-65,0C205,756 244,705 328,705z"/>
<glyph unicode="&#x16E;" horiz-adv-x="655" d="M80,287C80,72 177,-12 328,-12C480,-12 575,72 575,287l0,367l-111,0l0,-376C464,136 408,89 328,89C249,89 196,136 196,278l0,376l-116,0 z M328,698C388,698 431,734 431,791C431,847 388,884 328,884C267,884 224,847 224,791C224,734 267,698 328,698 z M328,744C303,744 283,761 283,791C283,820 303,838 328,838C351,838 371,820 371,791C371,761 351,744 328,744z"/>
<glyph unicode="&#x170;" horiz-adv-x="655" d="M80,287C80,72 177,-12 328,-12C480,-12 575,72 575,287l0,367l-111,0l0,-376C464,136 408,89 328,89C249,89 196,136 196,278l0,376l-116,0 z M284,704l86,116l-101,0l-65,-116 z M373,704l80,0l86,116l-101,0z"/>
<glyph unicode="&#x1D3;" horiz-adv-x="655" d="M80,287C80,72 177,-12 328,-12C480,-12 575,72 575,287l0,367l-111,0l0,-376C464,136 408,89 328,89C249,89 196,136 196,278l0,376l-116,0 z M390,820l-60,-64l-4,0l-60,64l-90,0l96,-116l112,0l96,116z"/>
<glyph unicode="&#x1D5;" horiz-adv-x="655" d="M80,287C80,72 177,-12 328,-12C480,-12 575,72 575,287l0,367l-111,0l0,-376C464,136 408,89 328,89C249,89 196,136 196,278l0,376l-116,0 z M195,866l265,0l0,58l-265,0 z M235,708C266,708 288,730 288,761C288,792 266,815 235,815C204,815 181,792 181,761C181,730 204,708 235,708 z M420,708C452,708 474,730 474,761C474,792 452,815 420,815C389,815 367,792 367,761C367,730 389,708 420,708z"/>
<glyph unicode="&#x1D7;" horiz-adv-x="655" d="M80,287C80,72 177,-12 328,-12C480,-12 575,72 575,287l0,367l-111,0l0,-376C464,136 408,89 328,89C249,89 196,136 196,278l0,376l-116,0 z M264,846l93,0l115,116l-122,0 z M235,708C266,708 288,730 288,761C288,792 266,815 235,815C204,815 181,792 181,761C181,730 204,708 235,708 z M420,708C452,708 474,730 474,761C474,792 452,815 420,815C389,815 367,792 367,761C367,730 389,708 420,708z"/>
<glyph unicode="&#x1D9;" horiz-adv-x="655" d="M80,287C80,72 177,-12 328,-12C480,-12 575,72 575,287l0,367l-111,0l0,-376C464,136 408,89 328,89C249,89 196,136 196,278l0,376l-116,0 z M235,708C266,708 288,730 288,761C288,792 266,815 235,815C204,815 181,792 181,761C181,730 204,708 235,708 z M420,708C452,708 474,730 474,761C474,792 452,815 420,815C389,815 367,792 367,761C367,730 389,708 420,708 z M390,962l-60,-64l-4,0l-60,64l-90,0l96,-116l112,0l96,116z"/>
<glyph unicode="&#x1DB;" horiz-adv-x="655" d="M80,287C80,72 177,-12 328,-12C480,-12 575,72 575,287l0,367l-111,0l0,-376C464,136 408,89 328,89C249,89 196,136 196,278l0,376l-116,0 z M306,962l-123,0l115,-116l93,0 z M420,708C452,708 474,730 474,761C474,792 452,815 420,815C389,815 367,792 367,761C367,730 389,708 420,708 z M235,708C266,708 288,730 288,761C288,792 266,815 235,815C204,815 181,792 181,761C181,730 204,708 235,708z"/>
<glyph unicode="&#x1EE4;" horiz-adv-x="655" d="M80,287C80,72 177,-12 328,-12C480,-12 575,72 575,287l0,367l-111,0l0,-376C464,136 408,89 328,89C249,89 196,136 196,278l0,376l-116,0 z M328,-216C367,-216 396,-189 396,-150C396,-112 367,-85 328,-85C288,-85 260,-112 260,-150C260,-189 288,-216 328,-216z"/>
<glyph unicode="&#x1EE6;" horiz-adv-x="655" d="M80,287C80,72 177,-12 328,-12C480,-12 575,72 575,287l0,367l-111,0l0,-376C464,136 408,89 328,89C249,89 196,136 196,278l0,376l-116,0 z M296,694C363,702 421,730 421,793C421,845 374,876 268,879l-13,-61C311,815 336,803 336,780C336,759 314,749 286,743z"/>
<glyph unicode="&#x172;" horiz-adv-x="655" d="M80,287C80,83 167,-4 312,-11C291,-31 248,-68 248,-127C248,-186 295,-218 354,-218C384,-218 424,-204 446,-186l-28,60C407,-134 394,-140 380,-140C357,-140 335,-127 335,-98C335,-68 359,-30 410,-6C517,44 575,106 575,287l0,367l-111,0l0,-376C464,136 408,89 328,89C249,89 196,136 196,278l0,376l-116,0z"/>
<glyph unicode="&#x1AF;" horiz-adv-x="671" d="M586,762C594,750 601,735 601,718C601,670 562,657 515,654l-51,0l0,-376C464,136 408,89 328,89C249,89 196,136 196,278l0,376l-116,0l0,-367C80,72 177,-12 328,-12C480,-12 575,72 575,287l0,322C640,622 692,655 692,726C692,755 680,780 666,798z"/>
<glyph unicode="&#x1EE8;" horiz-adv-x="671" d="M474,820l-126,0l-84,-116l94,0 z M586,762C594,750 601,735 601,718C601,670 562,657 515,654l-51,0l0,-376C464,136 408,89 328,89C249,89 196,136 196,278l0,376l-116,0l0,-367C80,72 177,-12 328,-12C480,-12 575,72 575,287l0,322C640,622 692,655 692,726C692,755 680,780 666,798z"/>
<glyph unicode="&#x1EEA;" horiz-adv-x="671" d="M390,704l-84,116l-126,0l117,-116 z M586,762C594,750 601,735 601,718C601,670 562,657 515,654l-51,0l0,-376C464,136 408,89 328,89C249,89 196,136 196,278l0,376l-116,0l0,-367C80,72 177,-12 328,-12C480,-12 575,72 575,287l0,322C640,622 692,655 692,726C692,755 680,780 666,798z"/>
<glyph unicode="&#x1EEC;" horiz-adv-x="671" d="M296,694C362,702 421,730 421,793C421,845 373,876 267,879l-13,-61C311,815 336,803 336,780C336,759 314,749 285,743 z M586,762C594,750 601,735 601,718C601,670 562,657 515,654l-51,0l0,-376C464,136 408,89 328,89C249,89 196,136 196,278l0,376l-116,0l0,-367C80,72 177,-12 328,-12C480,-12 575,72 575,287l0,322C640,622 692,655 692,726C692,755 680,780 666,798z"/>
<glyph unicode="&#x1EEE;" horiz-adv-x="671" d="M424,829C418,796 403,781 385,781C351,781 319,829 266,829C216,829 178,784 170,707l60,0C236,740 251,756 270,756C303,756 336,707 389,707C439,707 477,753 485,829 z M586,762C594,750 601,735 601,718C601,670 562,657 515,654l-51,0l0,-376C464,136 408,89 328,89C249,89 196,136 196,278l0,376l-116,0l0,-367C80,72 177,-12 328,-12C480,-12 575,72 575,287l0,322C640,622 692,655 692,726C692,755 680,780 666,798z"/>
<glyph unicode="&#x1EF0;" horiz-adv-x="671" d="M327,-85C288,-85 259,-112 259,-150C259,-189 288,-216 327,-216C367,-216 395,-189 395,-150C395,-112 367,-85 327,-85 z M586,762C594,750 601,735 601,718C601,670 562,657 515,654l-51,0l0,-376C464,136 408,89 328,89C249,89 196,136 196,278l0,376l-116,0l0,-367C80,72 177,-12 328,-12C480,-12 575,72 575,287l0,322C640,622 692,655 692,726C692,755 680,780 666,798z"/>
<glyph unicode="&#x1E80;" horiz-adv-x="800" d="M148,0l141,0l79,344C379,395 389,445 398,495l4,0C410,445 420,395 431,344l81,-344l144,0l125,654l-111,0l-57,-330C603,255 592,185 582,115l-4,0C563,185 549,256 534,324l-80,330l-101,0l-80,-330C258,255 244,184 230,115l-4,0C216,184 205,254 194,324l-57,330l-119,0 z M370,704l93,0l-84,116l-126,0z"/>
<glyph unicode="&#x1E82;" horiz-adv-x="800" d="M148,0l141,0l79,344C379,395 389,445 398,495l4,0C410,445 420,395 431,344l81,-344l144,0l125,654l-111,0l-57,-330C603,255 592,185 582,115l-4,0C563,185 549,256 534,324l-80,330l-101,0l-80,-330C258,255 244,184 230,115l-4,0C216,184 205,254 194,324l-57,330l-119,0 z M547,820l-126,0l-84,-116l93,0z"/>
<glyph unicode="&#x174;" horiz-adv-x="800" d="M148,0l141,0l79,344C379,395 389,445 398,495l4,0C410,445 420,395 431,344l81,-344l144,0l125,654l-111,0l-57,-330C603,255 592,185 582,115l-4,0C563,185 549,256 534,324l-80,330l-101,0l-80,-330C258,255 244,184 230,115l-4,0C216,184 205,254 194,324l-57,330l-119,0 z M338,704l60,64l4,0l60,-64l90,0l-96,116l-112,0l-96,-116z"/>
<glyph unicode="&#x1E84;" horiz-adv-x="800" d="M148,0l141,0l79,344C379,395 389,445 398,495l4,0C410,445 420,395 431,344l81,-344l144,0l125,654l-111,0l-57,-330C603,255 592,185 582,115l-4,0C563,185 549,256 534,324l-80,330l-101,0l-80,-330C258,255 244,184 230,115l-4,0C216,184 205,254 194,324l-57,330l-119,0 z M307,708C342,708 367,733 367,767C367,802 342,827 307,827C272,827 248,802 248,767C248,733 272,708 307,708 z M493,708C528,708 552,733 552,767C552,802 528,827 493,827C458,827 433,802 433,767C433,733 458,708 493,708z"/>
<glyph unicode="&#x1EF2;" horiz-adv-x="501" d="M192,0l116,0l0,243l197,411l-121,0l-71,-167C294,438 274,393 253,343l-4,0C228,393 210,438 191,487l-71,167l-124,0l196,-411 z M220,704l94,0l-85,116l-125,0z"/>
<glyph unicode="&#xDD;" horiz-adv-x="501" d="M192,0l116,0l0,243l197,411l-121,0l-71,-167C294,438 274,393 253,343l-4,0C228,393 210,438 191,487l-71,167l-124,0l196,-411 z M397,820l-125,0l-85,-116l94,0z"/>
<glyph unicode="&#x176;" horiz-adv-x="501" d="M192,0l116,0l0,243l197,411l-121,0l-71,-167C294,438 274,393 253,343l-4,0C228,393 210,438 191,487l-71,167l-124,0l196,-411 z M188,704l60,64l4,0l60,-64l90,0l-96,116l-112,0l-96,-116z"/>
<glyph unicode="&#x178;" horiz-adv-x="501" d="M192,0l116,0l0,243l197,411l-121,0l-71,-167C294,438 274,393 253,343l-4,0C228,393 210,438 191,487l-71,167l-124,0l196,-411 z M158,708C192,708 217,733 217,767C217,802 192,827 158,827C123,827 98,802 98,767C98,733 123,708 158,708 z M343,708C378,708 403,733 403,767C403,802 378,827 343,827C308,827 284,802 284,767C284,733 308,708 343,708z"/>
<glyph unicode="&#x1E8E;" horiz-adv-x="501" d="M192,0l116,0l0,243l197,411l-121,0l-71,-167C294,438 274,393 253,343l-4,0C228,393 210,438 191,487l-71,167l-124,0l196,-411 z M250,707C291,707 322,734 322,773C322,811 291,838 250,838C210,838 179,811 179,773C179,734 210,707 250,707z"/>
<glyph unicode="&#x1EF4;" horiz-adv-x="501" d="M192,0l116,0l0,243l197,411l-121,0l-71,-167C294,438 274,393 253,343l-4,0C228,393 210,438 191,487l-71,167l-124,0l196,-411 z M252,-216C292,-216 320,-189 320,-150C320,-112 292,-85 252,-85C213,-85 184,-112 184,-150C184,-189 213,-216 252,-216z"/>
<glyph unicode="&#x1EF6;" horiz-adv-x="501" d="M192,0l116,0l0,243l197,411l-121,0l-71,-167C294,438 274,393 253,343l-4,0C228,393 210,438 191,487l-71,167l-124,0l196,-411 z M219,694C286,702 344,730 344,793C344,845 296,876 190,879l-12,-61C234,815 259,803 259,780C259,759 237,749 208,743z"/>
<glyph unicode="&#x1EF8;" horiz-adv-x="501" d="M192,0l116,0l0,243l197,411l-121,0l-71,-167C294,438 274,393 253,343l-4,0C228,393 210,438 191,487l-71,167l-124,0l196,-411 z M312,707C362,707 400,753 408,829l-60,0C341,796 326,781 308,781C274,781 242,829 189,829C139,829 101,784 93,707l60,0C160,740 174,756 193,756C226,756 259,707 312,707z"/>
<glyph unicode="&#x179;" horiz-adv-x="540" d="M40,0l462,0l0,98l-319,0l317,486l0,70l-431,0l0,-98l287,0l-316,-486 z M429,820l-126,0l-84,-116l93,0z"/>
<glyph unicode="&#x17D;" horiz-adv-x="540" d="M40,0l462,0l0,98l-319,0l317,486l0,70l-431,0l0,-98l287,0l-316,-486 z M344,820l-60,-64l-4,0l-60,64l-90,0l96,-116l112,0l96,116z"/>
<glyph unicode="&#x17B;" horiz-adv-x="540" d="M40,0l462,0l0,98l-319,0l317,486l0,70l-431,0l0,-98l287,0l-316,-486 z M282,707C323,707 353,734 353,773C353,811 323,838 282,838C241,838 211,811 211,773C211,734 241,707 282,707z"/>
<glyph unicode="&#x1E92;" horiz-adv-x="540" d="M40,0l462,0l0,98l-319,0l317,486l0,70l-431,0l0,-98l287,0l-316,-486 z M282,-216C321,-216 350,-189 350,-150C350,-112 321,-85 282,-85C242,-85 214,-112 214,-150C214,-189 242,-216 282,-216z"/>
<glyph unicode="&#xD0;" horiz-adv-x="649" d="M223,94l0,217l137,0l0,59l-137,0l0,190l51,0C405,560 481,490 481,330C481,169 405,94 274,94 z M107,654l0,-284l-77,-4l0,-55l77,0l0,-311l180,0C482,0 600,113 600,330C600,546 482,654 281,654z"/>
<glyph unicode="&#xDE;" horiz-adv-x="600" d="M83,0l116,0l0,136l104,0C444,136 552,202 552,348C552,499 446,550 303,550l-104,0l0,104l-116,0 z M199,229l0,228l95,0C389,457 438,429 438,348C438,268 391,229 294,229z"/>
<glyph unicode="&#x18F;" horiz-adv-x="668" d="M501,275C487,153 421,83 333,83C245,83 181,152 173,275 z M174,508C211,542 262,571 325,571C432,571 494,495 503,361l-446,0C56,348 54,335 54,324C54,118 166,-12 333,-12C501,-12 619,117 619,328C619,540 506,666 337,666C242,666 169,633 120,587z"/>
<glyph unicode="&#xE0;" horiz-adv-x="523" d="M52,132C52,46 112,-12 198,-12C256,-12 306,17 350,54l3,0l9,-54l94,0l0,291C456,428 396,503 273,503C195,503 126,473 72,439l42,-77C157,388 203,410 252,410C318,410 340,366 341,314C140,292 52,237 52,132 z M164,141C164,190 208,225 341,242l0,-110C305,98 274,78 234,78C193,78 164,97 164,141 z M263,573l86,0l-90,146l-114,0z"/>
<glyph unicode="&#xE1;" horiz-adv-x="523" d="M52,132C52,46 112,-12 198,-12C256,-12 306,17 350,54l3,0l9,-54l94,0l0,291C456,428 396,503 273,503C195,503 126,473 72,439l42,-77C157,388 203,410 252,410C318,410 340,366 341,314C140,292 52,237 52,132 z M164,141C164,190 208,225 341,242l0,-110C305,98 274,78 234,78C193,78 164,97 164,141 z M405,719l-114,0l-90,-146l86,0z"/>
<glyph unicode="&#xE2;" horiz-adv-x="523" d="M52,132C52,46 112,-12 198,-12C256,-12 306,17 350,54l3,0l9,-54l94,0l0,291C456,428 396,503 273,503C195,503 126,473 72,439l42,-77C157,388 203,410 252,410C318,410 340,366 341,314C140,292 52,237 52,132 z M164,141C164,190 208,225 341,242l0,-110C305,98 274,78 234,78C193,78 164,97 164,141 z M133,573l80,0l60,85l4,0l60,-85l80,0l-96,146l-92,0z"/>
<glyph unicode="&#xE3;" horiz-adv-x="523" d="M52,132C52,46 112,-12 198,-12C256,-12 306,17 350,54l3,0l9,-54l94,0l0,291C456,428 396,503 273,503C195,503 126,473 72,439l42,-77C157,388 203,410 252,410C318,410 340,366 341,314C140,292 52,237 52,132 z M164,141C164,190 208,225 341,242l0,-110C305,98 274,78 234,78C193,78 164,97 164,141 z M122,577l61,0C190,610 201,625 219,625C251,625 283,577 335,577C386,577 420,622 428,698l-61,0C360,665 349,650 331,650C300,650 267,698 215,698C164,698 130,653 122,577z"/>
<glyph unicode="&#xE4;" horiz-adv-x="523" d="M52,132C52,46 112,-12 198,-12C256,-12 306,17 350,54l3,0l9,-54l94,0l0,291C456,428 396,503 273,503C195,503 126,473 72,439l42,-77C157,388 203,410 252,410C318,410 340,366 341,314C140,292 52,237 52,132 z M164,141C164,190 208,225 341,242l0,-110C305,98 274,78 234,78C193,78 164,97 164,141 z M182,579C217,579 242,605 242,639C242,672 217,698 182,698C147,698 123,672 123,639C123,605 147,579 182,579 z M368,579C403,579 427,605 427,639C427,672 403,698 368,698C333,698 308,672 308,639C308,605 333,579 368,579z"/>
<glyph unicode="&#x101;" horiz-adv-x="523" d="M52,132C52,46 112,-12 198,-12C256,-12 306,17 350,54l3,0l9,-54l94,0l0,291C456,428 396,503 273,503C195,503 126,473 72,439l42,-77C157,388 203,410 252,410C318,410 340,366 341,314C140,292 52,237 52,132 z M164,141C164,190 208,225 341,242l0,-110C305,98 274,78 234,78C193,78 164,97 164,141 z M145,596l260,0l0,76l-260,0z"/>
<glyph unicode="&#x103;" horiz-adv-x="523" d="M52,132C52,46 112,-12 198,-12C256,-12 306,17 350,54l3,0l9,-54l94,0l0,291C456,428 396,503 273,503C195,503 126,473 72,439l42,-77C157,388 203,410 252,410C318,410 340,366 341,314C140,292 52,237 52,132 z M164,141C164,190 208,225 341,242l0,-110C305,98 274,78 234,78C193,78 164,97 164,141 z M275,575C365,575 404,642 408,708l-67,0C336,672 316,640 275,640C234,640 214,672 209,708l-67,0C146,642 185,575 275,575z"/>
<glyph unicode="&#xE5;" horiz-adv-x="523" d="M52,132C52,46 112,-12 198,-12C256,-12 306,17 350,54l3,0l9,-54l94,0l0,291C456,428 396,503 273,503C195,503 126,473 72,439l42,-77C157,388 203,410 252,410C318,410 340,366 341,314C140,292 52,237 52,132 z M164,141C164,190 208,225 341,242l0,-110C305,98 274,78 234,78C193,78 164,97 164,141 z M275,545C336,545 378,584 378,642C378,701 336,740 275,740C214,740 172,701 172,642C172,584 214,545 275,545 z M275,591C250,591 231,612 231,642C231,673 250,694 275,694C300,694 319,673 319,642C319,612 300,591 275,591z"/>
<glyph unicode="&#x1CE;" horiz-adv-x="523" d="M52,132C52,46 112,-12 198,-12C256,-12 306,17 350,54l3,0l9,-54l94,0l0,291C456,428 396,503 273,503C195,503 126,473 72,439l42,-77C157,388 203,410 252,410C318,410 340,366 341,314C140,292 52,237 52,132 z M164,141C164,190 208,225 341,242l0,-110C305,98 274,78 234,78C193,78 164,97 164,141 z M229,573l92,0l96,146l-80,0l-60,-85l-4,0l-60,85l-80,0z"/>
<glyph unicode="&#x1EA1;" horiz-adv-x="523" d="M52,132C52,46 112,-12 198,-12C256,-12 306,17 350,54l3,0l9,-54l94,0l0,291C456,428 396,503 273,503C195,503 126,473 72,439l42,-77C157,388 203,410 252,410C318,410 340,366 341,314C140,292 52,237 52,132 z M164,141C164,190 208,225 341,242l0,-110C305,98 274,78 234,78C193,78 164,97 164,141 z M258,-216C298,-216 326,-189 326,-150C326,-112 298,-85 258,-85C219,-85 190,-112 190,-150C190,-189 219,-216 258,-216z"/>
<glyph unicode="&#x1EA3;" horiz-adv-x="523" d="M52,132C52,46 112,-12 198,-12C256,-12 306,17 350,54l3,0l9,-54l94,0l0,291C456,428 396,503 273,503C195,503 126,473 72,439l42,-77C157,388 203,410 252,410C318,410 340,366 341,314C140,292 52,237 52,132 z M164,141C164,190 208,225 341,242l0,-110C305,98 274,78 234,78C193,78 164,97 164,141 z M243,555C310,563 369,590 369,653C369,706 321,736 215,740l-13,-61C259,676 283,663 283,641C283,619 261,610 233,603z"/>
<glyph unicode="&#x1EA5;" horiz-adv-x="523" d="M52,132C52,46 112,-12 198,-12C256,-12 306,17 350,54l3,0l9,-54l94,0l0,291C456,428 396,503 273,503C195,503 126,473 72,439l42,-77C157,388 203,410 252,410C318,410 340,366 341,314C140,292 52,237 52,132 z M164,141C164,190 208,225 341,242l0,-110C305,98 274,78 234,78C193,78 164,97 164,141 z M147,573l74,0l52,69l4,0l52,-69l74,0l-82,124l-92,0 z M373,643l67,0l93,116l-89,0z"/>
<glyph unicode="&#x1EA7;" horiz-adv-x="523" d="M52,132C52,46 112,-12 198,-12C256,-12 306,17 350,54l3,0l9,-54l94,0l0,291C456,428 396,503 273,503C195,503 126,473 72,439l42,-77C157,388 203,410 252,410C318,410 340,366 341,314C140,292 52,237 52,132 z M164,141C164,190 208,225 341,242l0,-110C305,98 274,78 234,78C193,78 164,97 164,141 z M147,573l74,0l52,69l4,0l52,-69l74,0l-82,124l-92,0 z M430,759l-90,0l94,-116l67,0z"/>
<glyph unicode="&#x1EA9;" horiz-adv-x="523" d="M52,132C52,46 112,-12 198,-12C256,-12 306,17 350,54l3,0l9,-54l94,0l0,291C456,428 396,503 273,503C195,503 126,473 72,439l42,-77C157,388 203,410 252,410C318,410 340,366 341,314C140,292 52,237 52,132 z M164,141C164,190 208,225 341,242l0,-110C305,98 274,78 234,78C193,78 164,97 164,141 z M147,573l74,0l52,69l4,0l52,-69l74,0l-82,124l-92,0 z M402,628C457,638 507,657 507,716C507,763 466,790 372,793l-10,-52C412,738 429,726 429,704C429,685 414,676 393,670z"/>
<glyph unicode="&#x1EAB;" horiz-adv-x="523" d="M52,132C52,46 112,-12 198,-12C256,-12 306,17 350,54l3,0l9,-54l94,0l0,291C456,428 396,503 273,503C195,503 126,473 72,439l42,-77C157,388 203,410 252,410C318,410 340,366 341,314C140,292 52,237 52,132 z M164,141C164,190 208,225 341,242l0,-110C305,98 274,78 234,78C193,78 164,97 164,141 z M139,572l77,0l57,62l4,0l57,-62l77,0l-84,108l-104,0 z M189,716C195,744 208,756 227,756C257,756 277,716 329,716C374,716 407,752 413,818l-52,0C355,790 342,778 323,778C293,778 273,818 221,818C176,818 143,782 137,716z"/>
<glyph unicode="&#x1EAD;" horiz-adv-x="523" d="M52,132C52,46 112,-12 198,-12C256,-12 306,17 350,54l3,0l9,-54l94,0l0,291C456,428 396,503 273,503C195,503 126,473 72,439l42,-77C157,388 203,410 252,410C318,410 340,366 341,314C140,292 52,237 52,132 z M164,141C164,190 208,225 341,242l0,-110C305,98 274,78 234,78C193,78 164,97 164,141 z M133,573l80,0l60,85l4,0l60,-85l80,0l-96,146l-92,0 z M258,-216C298,-216 326,-189 326,-150C326,-112 298,-85 258,-85C219,-85 190,-112 190,-150C190,-189 219,-216 258,-216z"/>
<glyph unicode="&#x1EAF;" horiz-adv-x="523" d="M52,132C52,46 112,-12 198,-12C256,-12 306,17 350,54l3,0l9,-54l94,0l0,291C456,428 396,503 273,503C195,503 126,473 72,439l42,-77C157,388 203,410 252,410C318,410 340,366 341,314C140,292 52,237 52,132 z M164,141C164,190 208,225 341,242l0,-110C305,98 274,78 234,78C193,78 164,97 164,141 z M233,684l62,0l88,116l-87,0 z M275,575C365,575 404,642 408,708l-55,0C347,668 323,634 275,634C227,634 203,668 197,708l-55,0C146,642 185,575 275,575z"/>
<glyph unicode="&#x1EB1;" horiz-adv-x="523" d="M52,132C52,46 112,-12 198,-12C256,-12 306,17 350,54l3,0l9,-54l94,0l0,291C456,428 396,503 273,503C195,503 126,473 72,439l42,-77C157,388 203,410 252,410C318,410 340,366 341,314C140,292 52,237 52,132 z M164,141C164,190 208,225 341,242l0,-110C305,98 274,78 234,78C193,78 164,97 164,141 z M254,800l-87,0l88,-116l62,0 z M275,575C365,575 404,642 408,708l-55,0C347,668 323,634 275,634C227,634 203,668 197,708l-55,0C146,642 185,575 275,575z"/>
<glyph unicode="&#x1EB3;" horiz-adv-x="523" d="M52,132C52,46 112,-12 198,-12C256,-12 306,17 350,54l3,0l9,-54l94,0l0,291C456,428 396,503 273,503C195,503 126,473 72,439l42,-77C157,388 203,410 252,410C318,410 340,366 341,314C140,292 52,237 52,132 z M164,141C164,190 208,225 341,242l0,-110C305,98 274,78 234,78C193,78 164,97 164,141 z M275,575C365,575 404,642 408,708l-55,0C347,668 323,634 275,634C227,634 203,668 197,708l-55,0C146,642 185,575 275,575 z M244,691C300,700 349,719 349,779C349,826 309,852 215,855l-11,-51C254,801 271,789 271,767C271,747 257,739 235,733z"/>
<glyph unicode="&#x1EB5;" horiz-adv-x="523" d="M52,132C52,46 112,-12 198,-12C256,-12 306,17 350,54l3,0l9,-54l94,0l0,291C456,428 396,503 273,503C195,503 126,473 72,439l42,-77C157,388 203,410 252,410C318,410 340,366 341,314C140,292 52,237 52,132 z M164,141C164,190 208,225 341,242l0,-110C305,98 274,78 234,78C193,78 164,97 164,141 z M275,575C365,575 403,629 407,688l-57,0C344,659 322,632 275,632C228,632 206,659 200,688l-57,0C147,629 185,575 275,575 z M137,716l52,0C195,744 208,756 227,756C257,756 277,716 329,716C374,716 407,752 413,818l-52,0C355,790 342,778 323,778C293,778 273,818 221,818C176,818 143,782 137,716z"/>
<glyph unicode="&#x1EB7;" horiz-adv-x="523" d="M52,132C52,46 112,-12 198,-12C256,-12 306,17 350,54l3,0l9,-54l94,0l0,291C456,428 396,503 273,503C195,503 126,473 72,439l42,-77C157,388 203,410 252,410C318,410 340,366 341,314C140,292 52,237 52,132 z M164,141C164,190 208,225 341,242l0,-110C305,98 274,78 234,78C193,78 164,97 164,141 z M275,575C365,575 404,642 408,708l-67,0C336,672 316,640 275,640C234,640 214,672 209,708l-67,0C146,642 185,575 275,575 z M258,-216C298,-216 326,-189 326,-150C326,-112 298,-85 258,-85C219,-85 190,-112 190,-150C190,-189 219,-216 258,-216z"/>
<glyph unicode="&#x105;" horiz-adv-x="523" d="M164,141C164,190 208,225 341,242l0,-110C305,98 274,78 234,78C193,78 164,97 164,141 z M52,132C52,46 112,-12 198,-12C256,-12 306,17 350,54l3,0l10,-53C331,-20 289,-64 289,-120C289,-178 332,-208 387,-208C416,-208 455,-196 477,-178l-26,54C441,-132 428,-137 413,-137C391,-137 369,-124 369,-95C369,-60 396,-20 456,0l0,291C456,428 396,503 273,503C195,503 126,473 72,439l42,-77C157,388 203,410 252,410C318,410 340,366 341,314C140,292 52,237 52,132z"/>
<glyph unicode="&#xE6;" horiz-adv-x="785" d="M164,141C164,191 211,225 336,242l2,-23C339,190 344,159 354,136C318,100 273,78 234,78C193,78 164,97 164,141 z M114,362C157,388 203,410 250,410C317,410 336,366 338,314C139,293 52,237 52,132C52,46 112,-12 198,-12C262,-12 324,14 392,72C431,25 486,-12 563,-12C625,-12 683,10 730,41l-41,77C653,95 620,80 578,80C507,80 451,129 443,214l300,0C746,226 748,246 748,268C748,405 682,503 557,503C494,503 444,470 404,414C379,469 332,503 265,503C193,503 126,473 72,439 z M443,287C452,368 497,414 553,414C617,414 649,366 649,287z"/>
<glyph unicode="&#xE7;" horiz-adv-x="462" d="M312,-9C357,-2 402,18 439,51l-48,73C364,102 330,82 290,82C213,82 159,147 159,245C159,344 214,409 293,409C324,409 350,396 376,373l55,73C398,478 350,503 287,503C156,503 41,409 41,245C41,97 126,6 242,-10l-34,-65C251,-86 269,-100 269,-121C269,-148 233,-161 183,-167l10,-50C278,-211 354,-182 354,-119C354,-78 329,-58 295,-46z"/>
<glyph unicode="&#x107;" horiz-adv-x="462" d="M41,245C41,82 144,-12 278,-12C334,-12 393,10 439,51l-48,73C364,102 330,82 290,82C213,82 159,147 159,245C159,344 214,409 293,409C324,409 350,396 376,373l55,73C398,478 350,503 287,503C156,503 41,409 41,245 z M415,719l-114,0l-90,-146l86,0z"/>
<glyph unicode="&#x109;" horiz-adv-x="462" d="M41,245C41,82 144,-12 278,-12C334,-12 393,10 439,51l-48,73C364,102 330,82 290,82C213,82 159,147 159,245C159,344 214,409 293,409C324,409 350,396 376,373l55,73C398,478 350,503 287,503C156,503 41,409 41,245 z M143,573l80,0l60,85l4,0l60,-85l79,0l-95,146l-93,0z"/>
<glyph unicode="&#x10D;" horiz-adv-x="462" d="M41,245C41,82 144,-12 278,-12C334,-12 393,10 439,51l-48,73C364,102 330,82 290,82C213,82 159,147 159,245C159,344 214,409 293,409C324,409 350,396 376,373l55,73C398,478 350,503 287,503C156,503 41,409 41,245 z M238,573l93,0l95,146l-79,0l-60,-85l-4,0l-60,85l-80,0z"/>
<glyph unicode="&#x10B;" horiz-adv-x="462" d="M41,245C41,82 144,-12 278,-12C334,-12 393,10 439,51l-48,73C364,102 330,82 290,82C213,82 159,147 159,245C159,344 214,409 293,409C324,409 350,396 376,373l55,73C398,478 350,503 287,503C156,503 41,409 41,245 z M285,577C324,577 353,604 353,643C353,681 324,708 285,708C245,708 217,681 217,643C217,604 245,577 285,577z"/>
<glyph unicode="&#x10F;" horiz-adv-x="594" d="M43,245C43,83 122,-12 245,-12C298,-12 348,17 384,53l4,0l8,-53l95,0l0,706l-115,0l0,-178l4,-79C342,482 307,503 251,503C144,503 43,405 43,245 z M162,246C162,349 213,408 276,408C309,408 342,397 376,367l0,-229C343,100 311,83 273,83C202,83 162,140 162,246 z M593,548l19,154l1,63l-77,0l5,-217z"/>
<glyph unicode="&#x1E0D;" horiz-adv-x="564" d="M43,245C43,83 122,-12 245,-12C298,-12 348,17 384,53l4,0l8,-53l95,0l0,706l-115,0l0,-178l4,-79C342,482 307,503 251,503C144,503 43,405 43,245 z M162,246C162,349 213,408 276,408C309,408 342,397 376,367l0,-229C343,100 311,83 273,83C202,83 162,140 162,246 z M307,-216C347,-216 375,-189 375,-150C375,-112 347,-85 307,-85C268,-85 239,-112 239,-150C239,-189 268,-216 307,-216z"/>
<glyph unicode="&#x1E0F;" horiz-adv-x="564" d="M43,245C43,83 122,-12 245,-12C298,-12 348,17 384,53l4,0l8,-53l95,0l0,706l-115,0l0,-178l4,-79C342,482 307,503 251,503C144,503 43,405 43,245 z M162,246C162,349 213,408 276,408C309,408 342,397 376,367l0,-229C343,100 311,83 273,83C202,83 162,140 162,246 z M437,-104l-261,0l0,-76l261,0z"/>
<glyph unicode="&#x111;" horiz-adv-x="564" d="M376,138C343,100 311,83 273,83C202,83 162,135 162,236C162,332 213,388 276,388C309,388 342,377 376,347 z M561,623l-70,0l0,83l-115,0l0,-83l-156,0l0,-59l156,0l0,-56l4,-79C342,462 307,483 251,483C144,483 43,388 43,235C43,78 122,-12 245,-12C299,-12 347,14 383,50l3,0l8,-50l97,0l0,564l70,5z"/>
<glyph unicode="&#xE8;" horiz-adv-x="507" d="M41,245C41,83 147,-12 283,-12C345,-12 404,10 451,41l-39,72C376,90 340,77 298,77C219,77 163,127 153,216l312,0C468,228 470,248 470,270C470,407 400,503 267,503C152,503 41,405 41,245 z M152,289C162,371 212,414 270,414C337,414 370,367 370,289 z M255,573l86,0l-90,146l-114,0z"/>
<glyph unicode="&#xE9;" horiz-adv-x="507" d="M41,245C41,83 147,-12 283,-12C345,-12 404,10 451,41l-39,72C376,90 340,77 298,77C219,77 163,127 153,216l312,0C468,228 470,248 470,270C470,407 400,503 267,503C152,503 41,405 41,245 z M152,289C162,371 212,414 270,414C337,414 370,367 370,289 z M398,719l-115,0l-89,-146l85,0z"/>
<glyph unicode="&#xEA;" horiz-adv-x="507" d="M41,245C41,83 147,-12 283,-12C345,-12 404,10 451,41l-39,72C376,90 340,77 298,77C219,77 163,127 153,216l312,0C468,228 470,248 470,270C470,407 400,503 267,503C152,503 41,405 41,245 z M152,289C162,371 212,414 270,414C337,414 370,367 370,289 z M126,573l79,0l60,85l4,0l60,-85l80,0l-95,146l-93,0z"/>
<glyph unicode="&#x11B;" horiz-adv-x="507" d="M41,245C41,83 147,-12 283,-12C345,-12 404,10 451,41l-39,72C376,90 340,77 298,77C219,77 163,127 153,216l312,0C468,228 470,248 470,270C470,407 400,503 267,503C152,503 41,405 41,245 z M152,289C162,371 212,414 270,414C337,414 370,367 370,289 z M221,573l93,0l95,146l-80,0l-60,-85l-4,0l-60,85l-79,0z"/>
<glyph unicode="&#xEB;" horiz-adv-x="507" d="M41,245C41,83 147,-12 283,-12C345,-12 404,10 451,41l-39,72C376,90 340,77 298,77C219,77 163,127 153,216l312,0C468,228 470,248 470,270C470,407 400,503 267,503C152,503 41,405 41,245 z M152,289C162,371 212,414 270,414C337,414 370,367 370,289 z M174,579C209,579 234,605 234,639C234,672 209,698 174,698C140,698 115,672 115,639C115,605 140,579 174,579 z M360,579C395,579 420,605 420,639C420,672 395,698 360,698C325,698 300,672 300,639C300,605 325,579 360,579z"/>
<glyph unicode="&#x113;" horiz-adv-x="507" d="M41,245C41,83 147,-12 283,-12C345,-12 404,10 451,41l-39,72C376,90 340,77 298,77C219,77 163,127 153,216l312,0C468,228 470,248 470,270C470,407 400,503 267,503C152,503 41,405 41,245 z M152,289C162,371 212,414 270,414C337,414 370,367 370,289 z M137,596l261,0l0,76l-261,0z"/>
<glyph unicode="&#x115;" horiz-adv-x="507" d="M41,245C41,83 147,-12 283,-12C345,-12 404,10 451,41l-39,72C376,90 340,77 298,77C219,77 163,127 153,216l312,0C468,228 470,248 470,270C470,407 400,503 267,503C152,503 41,405 41,245 z M152,289C162,371 212,414 270,414C337,414 370,367 370,289 z M267,575C357,575 396,642 400,708l-67,0C328,672 308,640 267,640C226,640 206,672 201,708l-67,0C138,642 178,575 267,575z"/>
<glyph unicode="&#x117;" horiz-adv-x="507" d="M41,245C41,83 147,-12 283,-12C345,-12 404,10 451,41l-39,72C376,90 340,77 298,77C219,77 163,127 153,216l312,0C468,228 470,248 470,270C470,407 400,503 267,503C152,503 41,405 41,245 z M152,289C162,371 212,414 270,414C337,414 370,367 370,289 z M267,577C307,577 335,604 335,643C335,681 307,708 267,708C228,708 199,681 199,643C199,604 228,577 267,577z"/>
<glyph unicode="&#x1EB9;" horiz-adv-x="507" d="M41,245C41,83 147,-12 283,-12C345,-12 404,10 451,41l-39,72C376,90 340,77 298,77C219,77 163,127 153,216l312,0C468,228 470,248 470,270C470,407 400,503 267,503C152,503 41,405 41,245 z M152,289C162,371 212,414 270,414C337,414 370,367 370,289 z M266,-216C306,-216 334,-189 334,-150C334,-112 306,-85 266,-85C226,-85 198,-112 198,-150C198,-189 226,-216 266,-216z"/>
<glyph unicode="&#x1EBB;" horiz-adv-x="507" d="M41,245C41,83 147,-12 283,-12C345,-12 404,10 451,41l-39,72C376,90 340,77 298,77C219,77 163,127 153,216l312,0C468,228 470,248 470,270C470,407 400,503 267,503C152,503 41,405 41,245 z M152,289C162,371 212,414 270,414C337,414 370,367 370,289 z M236,555C302,563 361,590 361,653C361,706 313,736 207,740l-13,-61C251,676 276,663 276,641C276,619 254,610 225,603z"/>
<glyph unicode="&#x1EBD;" horiz-adv-x="507" d="M41,245C41,83 147,-12 283,-12C345,-12 404,10 451,41l-39,72C376,90 340,77 298,77C219,77 163,127 153,216l312,0C468,228 470,248 470,270C470,407 400,503 267,503C152,503 41,405 41,245 z M152,289C162,371 212,414 270,414C337,414 370,367 370,289 z M114,577l62,0C182,610 193,625 211,625C243,625 276,577 327,577C378,577 412,622 420,698l-61,0C352,665 342,650 323,650C292,650 259,698 207,698C156,698 122,653 114,577z"/>
<glyph unicode="&#x1EBF;" horiz-adv-x="507" d="M41,245C41,83 147,-12 283,-12C345,-12 404,10 451,41l-39,72C376,90 340,77 298,77C219,77 163,127 153,216l312,0C468,228 470,248 470,270C470,407 400,503 267,503C152,503 41,405 41,245 z M152,289C162,371 212,414 270,414C337,414 370,367 370,289 z M139,573l74,0l52,69l4,0l53,-69l73,0l-81,124l-93,0 z M365,643l67,0l94,116l-90,0z"/>
<glyph unicode="&#x1EC1;" horiz-adv-x="507" d="M41,245C41,83 147,-12 283,-12C345,-12 404,10 451,41l-39,72C376,90 340,77 298,77C219,77 163,127 153,216l312,0C468,228 470,248 470,270C470,407 400,503 267,503C152,503 41,405 41,245 z M152,289C162,371 212,414 270,414C337,414 370,367 370,289 z M139,573l74,0l52,69l4,0l53,-69l73,0l-81,124l-93,0 z M422,759l-90,0l94,-116l67,0z"/>
<glyph unicode="&#x1EC3;" horiz-adv-x="507" d="M41,245C41,83 147,-12 283,-12C345,-12 404,10 451,41l-39,72C376,90 340,77 298,77C219,77 163,127 153,216l312,0C468,228 470,248 470,270C470,407 400,503 267,503C152,503 41,405 41,245 z M152,289C162,371 212,414 270,414C337,414 370,367 370,289 z M139,573l74,0l52,69l4,0l53,-69l73,0l-81,124l-93,0 z M394,628C450,638 499,657 499,716C499,763 458,790 364,793l-10,-52C404,738 421,726 421,704C421,685 406,676 385,670z"/>
<glyph unicode="&#x1EC5;" horiz-adv-x="507" d="M41,245C41,83 147,-12 283,-12C345,-12 404,10 451,41l-39,72C376,90 340,77 298,77C219,77 163,127 153,216l312,0C468,228 470,248 470,270C470,407 400,503 267,503C152,503 41,405 41,245 z M152,289C162,371 212,414 270,414C337,414 370,367 370,289 z M131,572l77,0l57,62l4,0l57,-62l77,0l-83,108l-105,0 z M182,716C187,744 200,756 219,756C249,756 269,716 321,716C366,716 399,752 406,818l-53,0C348,790 334,778 316,778C286,778 265,818 214,818C168,818 136,782 129,716z"/>
<glyph unicode="&#x1EC7;" horiz-adv-x="507" d="M41,245C41,83 147,-12 283,-12C345,-12 404,10 451,41l-39,72C376,90 340,77 298,77C219,77 163,127 153,216l312,0C468,228 470,248 470,270C470,407 400,503 267,503C152,503 41,405 41,245 z M152,289C162,371 212,414 270,414C337,414 370,367 370,289 z M126,573l79,0l60,85l4,0l60,-85l80,0l-95,146l-93,0 z M266,-216C305,-216 334,-189 334,-150C334,-112 305,-85 266,-85C226,-85 198,-112 198,-150C198,-189 226,-216 266,-216z"/>
<glyph unicode="&#x119;" horiz-adv-x="507" d="M41,245C41,83 147,-12 283,-12C295,-12 306,-11 321,-7C295,-30 263,-71 263,-120C263,-178 305,-208 360,-208C388,-208 428,-196 450,-178l-26,54C413,-132 401,-137 387,-137C362,-137 342,-123 342,-95C342,-54 364,-20 451,41l-39,72C376,90 340,77 298,77C219,77 163,127 153,216l312,0C468,228 470,247 470,270C470,407 400,503 267,503C152,503 41,405 41,245 z M152,289C162,372 212,414 270,414C337,414 370,367 370,289z"/>
<glyph unicode="&#x11D;" horiz-adv-x="520" d="M136,-72C136,-49 148,-27 174,-7C193,-12 214,-14 241,-14l67,0C364,-14 395,-25 395,-63C395,-105 341,-142 262,-142C184,-142 136,-116 136,-72 z M40,-89C40,-175 127,-217 244,-217C404,-217 506,-141 506,-44C506,41 444,77 326,77l-87,0C179,77 159,94 159,122C159,144 168,156 183,169C205,160 229,156 250,156C354,156 436,214 436,323C436,357 424,387 408,406l90,0l0,85l-176,0C302,498 277,503 250,503C147,503 56,440 56,327C56,269 87,222 120,197l0,-4C92,173 66,140 66,102C66,62 85,36 110,20l0,-4C65,-12 40,-48 40,-89 z M250,228C202,228 164,264 164,327C164,389 202,424 250,424C298,424 335,388 335,327C335,264 297,228 250,228 z M104,573l80,0l60,85l4,0l60,-85l79,0l-95,146l-93,0z"/>
<glyph unicode="&#x11F;" horiz-adv-x="520" d="M136,-72C136,-49 148,-27 174,-7C193,-12 214,-14 241,-14l67,0C364,-14 395,-25 395,-63C395,-105 341,-142 262,-142C184,-142 136,-116 136,-72 z M40,-89C40,-175 127,-217 244,-217C404,-217 506,-141 506,-44C506,41 444,77 326,77l-87,0C179,77 159,94 159,122C159,144 168,156 183,169C205,160 229,156 250,156C354,156 436,214 436,323C436,357 424,387 408,406l90,0l0,85l-176,0C302,498 277,503 250,503C147,503 56,440 56,327C56,269 87,222 120,197l0,-4C92,173 66,140 66,102C66,62 85,36 110,20l0,-4C65,-12 40,-48 40,-89 z M250,228C202,228 164,264 164,327C164,389 202,424 250,424C298,424 335,388 335,327C335,264 297,228 250,228 z M246,575C335,575 375,642 378,708l-66,0C307,672 287,640 246,640C205,640 184,672 180,708l-67,0C116,642 156,575 246,575z"/>
<glyph unicode="&#x121;" horiz-adv-x="520" d="M136,-72C136,-49 148,-27 174,-7C193,-12 214,-14 241,-14l67,0C364,-14 395,-25 395,-63C395,-105 341,-142 262,-142C184,-142 136,-116 136,-72 z M40,-89C40,-175 127,-217 244,-217C404,-217 506,-141 506,-44C506,41 444,77 326,77l-87,0C179,77 159,94 159,122C159,144 168,156 183,169C205,160 229,156 250,156C354,156 436,214 436,323C436,357 424,387 408,406l90,0l0,85l-176,0C302,498 277,503 250,503C147,503 56,440 56,327C56,269 87,222 120,197l0,-4C92,173 66,140 66,102C66,62 85,36 110,20l0,-4C65,-12 40,-48 40,-89 z M250,228C202,228 164,264 164,327C164,389 202,424 250,424C298,424 335,388 335,327C335,264 297,228 250,228 z M246,577C285,577 314,604 314,643C314,681 285,708 246,708C206,708 178,681 178,643C178,604 206,577 246,577z"/>
<glyph unicode="&#x123;" horiz-adv-x="520" d="M136,-72C136,-49 148,-27 174,-7C193,-12 214,-14 241,-14l67,0C364,-14 395,-25 395,-63C395,-105 341,-142 262,-142C184,-142 136,-116 136,-72 z M40,-89C40,-175 127,-217 244,-217C404,-217 506,-141 506,-44C506,41 444,77 326,77l-87,0C179,77 159,94 159,122C159,144 168,156 183,169C205,160 229,156 250,156C354,156 436,214 436,323C436,357 424,387 408,406l90,0l0,85l-176,0C302,498 277,503 250,503C147,503 56,440 56,327C56,269 87,222 120,197l0,-4C92,173 66,140 66,102C66,62 85,36 110,20l0,-4C65,-12 40,-48 40,-89 z M250,228C202,228 164,264 164,327C164,389 202,424 250,424C298,424 335,388 335,327C335,264 297,228 250,228 z M277,543l23,46C271,596 253,607 253,630C253,654 289,665 339,671l-10,50C244,715 168,686 168,623C168,576 198,552 277,543z"/>
<glyph unicode="&#x1E7;" horiz-adv-x="520" d="M136,-72C136,-49 148,-27 174,-7C193,-12 214,-14 241,-14l67,0C364,-14 395,-25 395,-63C395,-105 341,-142 262,-142C184,-142 136,-116 136,-72 z M40,-89C40,-175 127,-217 244,-217C404,-217 506,-141 506,-44C506,41 444,77 326,77l-87,0C179,77 159,94 159,122C159,144 168,156 183,169C205,160 229,156 250,156C354,156 436,214 436,323C436,357 424,387 408,406l90,0l0,85l-176,0C302,498 277,503 250,503C147,503 56,440 56,327C56,269 87,222 120,197l0,-4C92,173 66,140 66,102C66,62 85,36 110,20l0,-4C65,-12 40,-48 40,-89 z M250,228C202,228 164,264 164,327C164,389 202,424 250,424C298,424 335,388 335,327C335,264 297,228 250,228 z M199,573l93,0l95,146l-79,0l-60,-85l-4,0l-60,85l-80,0z"/>
<glyph unicode="&#x1E21;" horiz-adv-x="520" d="M136,-72C136,-49 148,-27 174,-7C193,-12 214,-14 241,-14l67,0C364,-14 395,-25 395,-63C395,-105 341,-142 262,-142C184,-142 136,-116 136,-72 z M40,-89C40,-175 127,-217 244,-217C404,-217 506,-141 506,-44C506,41 444,77 326,77l-87,0C179,77 159,94 159,122C159,144 168,156 183,169C205,160 229,156 250,156C354,156 436,214 436,323C436,357 424,387 408,406l90,0l0,85l-176,0C302,498 277,503 250,503C147,503 56,440 56,327C56,269 87,222 120,197l0,-4C92,173 66,140 66,102C66,62 85,36 110,20l0,-4C65,-12 40,-48 40,-89 z M250,228C202,228 164,264 164,327C164,389 202,424 250,424C298,424 335,388 335,327C335,264 297,228 250,228 z M115,596l261,0l0,76l-261,0z"/>
<glyph unicode="&#xE001;" horiz-adv-x="520" d="M136,-72C136,-49 148,-27 174,-7C193,-12 214,-14 241,-14l67,0C364,-14 395,-25 395,-63C395,-105 341,-142 262,-142C184,-142 136,-116 136,-72 z M40,-89C40,-175 127,-217 244,-217C404,-217 506,-141 506,-44C506,41 444,77 326,77l-87,0C179,77 159,94 159,122C159,144 168,156 183,169C205,160 229,156 250,156C354,156 436,214 436,323C436,357 424,387 408,406l90,0l0,85l-176,0C302,498 277,503 250,503C147,503 56,440 56,327C56,269 87,222 120,197l0,-4C92,173 66,140 66,102C66,62 85,36 110,20l0,-4C65,-12 40,-48 40,-89 z M250,228C202,228 164,264 164,327C164,389 202,424 250,424C298,424 335,388 335,327C335,264 297,228 250,228 z M93,577l61,0C160,610 171,625 190,625C221,625 254,577 306,577C357,577 390,622 398,698l-61,0C331,665 320,650 302,650C271,650 237,698 186,698C134,698 101,653 93,577z"/>
<glyph unicode="&#x125;" horiz-adv-x="558" d="M73,0l115,0l0,343C229,383 257,404 300,404C354,404 377,374 377,293l0,-293l115,0l0,308C492,432 446,503 341,503C274,503 225,468 184,429l4,95l0,182l-115,0 z M68,749l60,65l4,0l60,-65l90,0l-96,116l-112,0l-96,-116z"/>
<glyph unicode="&#x1E25;" horiz-adv-x="558" d="M73,0l115,0l0,343C229,383 257,404 300,404C354,404 377,374 377,293l0,-293l115,0l0,308C492,432 446,503 341,503C274,503 225,468 184,429l4,95l0,182l-115,0 z M290,-216C329,-216 358,-189 358,-150C358,-112 329,-85 290,-85C250,-85 222,-112 222,-150C222,-189 250,-216 290,-216z"/>
<glyph unicode="&#x1E2B;" horiz-adv-x="558" d="M73,0l115,0l0,343C229,383 257,404 300,404C354,404 377,374 377,293l0,-293l115,0l0,308C492,432 446,503 341,503C274,503 225,468 184,429l4,95l0,182l-115,0 z M289,-208C379,-208 418,-141 422,-75l-67,0C350,-111 330,-142 289,-142C248,-142 228,-111 223,-75l-67,0C160,-141 200,-208 289,-208z"/>
<glyph unicode="&#x127;" horiz-adv-x="558" d="M188,504l0,60l176,0l0,59l-176,0l0,83l-115,0l0,-83l-71,-5l0,-54l71,0l0,-564l115,0l0,323C229,363 257,384 300,384C354,384 377,354 377,273l0,-273l115,0l0,288C492,412 446,483 341,483C274,483 225,448 184,409z"/>
<glyph unicode="&#xEC;" horiz-adv-x="262" d="M73,0l115,0l0,491l-115,0 z M119,573l85,0l-89,146l-115,0z"/>
<glyph unicode="&#xED;" horiz-adv-x="262" d="M73,0l115,0l0,491l-115,0 z M261,719l-114,0l-90,-146l86,0z"/>
<glyph unicode="&#xEE;" horiz-adv-x="262" d="M73,0l115,0l0,491l-115,0 z M-11,573l80,0l60,85l4,0l60,-85l79,0l-95,146l-93,0z"/>
<glyph unicode="&#x129;" horiz-adv-x="262" d="M73,0l115,0l0,491l-115,0 z M-22,577l61,0C46,610 56,625 75,625C106,625 139,577 191,577C242,577 276,622 284,698l-62,0C216,665 205,650 187,650C156,650 122,698 71,698C20,698 -14,653 -22,577z"/>
<glyph unicode="&#xEF;" horiz-adv-x="262" d="M73,0l115,0l0,491l-115,0 z M38,579C73,579 98,605 98,639C98,672 73,698 38,698C3,698 -22,672 -22,639C-22,605 3,579 38,579 z M224,579C258,579 283,605 283,639C283,672 258,698 224,698C189,698 164,672 164,639C164,605 189,579 224,579z"/>
<glyph unicode="&#x12B;" horiz-adv-x="262" d="M73,0l115,0l0,491l-115,0 z M0,596l261,0l0,76l-261,0z"/>
<glyph unicode="&#x1D0;" horiz-adv-x="262" d="M73,0l115,0l0,491l-115,0 z M84,573l93,0l95,146l-79,0l-60,-85l-4,0l-60,85l-80,0z"/>
<glyph unicode="&#x1EC9;" horiz-adv-x="262" d="M73,0l115,0l0,491l-115,0 z M99,555C166,563 224,590 224,653C224,706 177,736 71,740l-13,-61C114,676 139,663 139,641C139,619 117,610 89,603z"/>
<glyph unicode="&#x1ECB;" horiz-adv-x="262" d="M131,577C172,577 202,604 202,642C202,681 172,708 131,708C90,708 60,681 60,642C60,604 90,577 131,577 z M73,0l115,0l0,491l-115,0 z M131,-216C171,-216 199,-189 199,-150C199,-112 171,-85 131,-85C92,-85 63,-112 63,-150C63,-189 92,-216 131,-216z"/>
<glyph unicode="&#x12F;" horiz-adv-x="262" d="M73,0l31,0C78,-24 40,-64 40,-120C40,-178 83,-208 138,-208C166,-208 206,-196 228,-178l-26,54C190,-132 178,-137 165,-137C141,-137 120,-123 120,-95C120,-60 142,-24 188,0l0,491l-115,0 z M130,577C171,577 202,604 202,642C202,681 171,708 130,708C90,708 59,681 59,642C59,604 90,577 130,577z"/>
<glyph unicode="&#xE002;" horiz-adv-x="262" d="M73,0l31,0C78,-24 40,-64 40,-120C40,-178 83,-208 138,-208C166,-208 206,-196 228,-178l-26,54C190,-132 178,-137 165,-137C141,-137 120,-123 120,-95C120,-60 142,-24 188,0l0,491l-115,0z"/>
<glyph unicode="&#x131;" horiz-adv-x="262" d="M73,0l115,0l0,491l-115,0z"/>
<glyph unicode="&#x135;" horiz-adv-x="263" d="M74,-27C74,-84 62,-115 18,-115C3,-115 -11,-111 -24,-107l-22,-86C-27,-200 -2,-206 34,-206C150,-206 190,-129 190,-25l0,516l-116,0 z M-10,573l80,0l60,85l4,0l60,-85l80,0l-96,146l-92,0z"/>
<glyph unicode="&#x137;" horiz-adv-x="522" d="M73,0l113,0l0,125l77,88l126,-213l125,0l-185,291l168,200l-126,0l-182,-226l-3,0l0,441l-113,0 z M251,-45l-23,-46C257,-98 275,-109 275,-132C275,-156 239,-167 189,-173l10,-50C284,-217 360,-188 360,-125C360,-78 330,-54 251,-45z"/>
<glyph unicode="&#x138;" horiz-adv-x="522" d="M73,0l115,0l0,121l75,89l126,-210l125,0l-183,291l166,200l-126,0l-179,-228l-4,0l0,228l-115,0z"/>
<glyph unicode="&#x13A;" horiz-adv-x="271" d="M73,126C73,41 103,-12 185,-12C212,-12 232,-8 246,-2l-15,86C222,82 218,82 213,82C201,82 188,92 188,120l0,586l-115,0 z M277,874l-126,0l-84,-116l94,0z"/>
<glyph unicode="&#x13E;" horiz-adv-x="292" d="M73,126C73,41 103,-12 185,-12C212,-12 232,-8 246,-2l-15,86C222,82 218,82 213,82C201,82 188,92 188,120l0,586l-115,0 z M290,548l20,154l1,63l-77,0l4,-217z"/>
<glyph unicode="&#x140;" horiz-adv-x="408" d="M73,126C73,41 103,-12 185,-12C212,-12 232,-8 246,-2l-15,86C222,82 218,82 213,82C201,82 188,92 188,120l0,586l-115,0 z M260,327C260,282 292,249 334,249C376,249 409,282 409,327C409,372 376,405 334,405C292,405 260,372 260,327z"/>
<glyph unicode="&#x13C;" horiz-adv-x="271" d="M73,126C73,41 103,-12 185,-12C212,-12 232,-8 246,-2l-15,86C222,82 218,82 213,82C201,82 188,92 188,120l0,586l-115,0 z M148,-45l-23,-46C154,-98 172,-109 172,-132C172,-156 136,-167 86,-173l10,-50C181,-217 257,-188 257,-125C257,-78 227,-54 148,-45z"/>
<glyph unicode="&#x1E37;" horiz-adv-x="271" d="M73,126C73,41 103,-12 185,-12C212,-12 232,-8 246,-2l-15,86C222,82 218,82 213,82C201,82 188,92 188,120l0,586l-115,0 z M180,-216C220,-216 248,-189 248,-150C248,-112 220,-85 180,-85C141,-85 112,-112 112,-150C112,-189 141,-216 180,-216z"/>
<glyph unicode="&#x1E39;" horiz-adv-x="271" d="M73,126C73,41 103,-12 185,-12C212,-12 232,-8 246,-2l-15,86C222,82 218,82 213,82C201,82 188,92 188,120l0,586l-115,0 z M-1,812l261,0l0,76l-261,0 z M180,-216C220,-216 248,-189 248,-150C248,-112 220,-85 180,-85C141,-85 112,-112 112,-150C112,-189 141,-216 180,-216z"/>
<glyph unicode="&#x1E3B;" horiz-adv-x="271" d="M73,126C73,41 103,-12 185,-12C212,-12 232,-8 246,-2l-15,86C222,82 218,82 213,82C201,82 188,92 188,120l0,586l-115,0 z M311,-104l-262,0l0,-76l262,0z"/>
<glyph unicode="&#x142;" horiz-adv-x="283" d="M264,403l0,95l-68,-41l0,249l-116,0l0,-309l-61,-38l0,-94l61,38l0,-177C80,41 110,-12 192,-12C220,-12 239,-8 253,-2l-15,86C230,82 226,82 220,82C208,82 196,92 196,120l0,242z"/>
<glyph unicode="&#x1E43;" horiz-adv-x="843" d="M73,0l115,0l0,343C226,384 261,404 291,404C343,404 367,374 367,293l0,-293l115,0l0,343C520,384 554,404 585,404C636,404 660,374 660,293l0,-293l116,0l0,308C776,432 728,503 624,503C562,503 513,465 466,415C443,470 402,503 330,503C269,503 221,468 180,424l-4,0l-8,67l-95,0 z M433,-216C472,-216 501,-189 501,-150C501,-112 472,-85 433,-85C393,-85 365,-112 365,-150C365,-189 393,-216 433,-216z"/>
<glyph unicode="&#x144;" horiz-adv-x="560" d="M73,0l115,0l0,343C229,383 257,404 300,404C354,404 377,374 377,293l0,-293l115,0l0,308C492,432 446,503 341,503C274,503 224,468 180,425l-4,0l-8,66l-95,0 z M430,719l-114,0l-90,-146l86,0z"/>
<glyph unicode="&#x148;" horiz-adv-x="560" d="M73,0l115,0l0,343C229,383 257,404 300,404C354,404 377,374 377,293l0,-293l115,0l0,308C492,432 446,503 341,503C274,503 224,468 180,425l-4,0l-8,66l-95,0 z M254,573l92,0l96,146l-80,0l-60,-85l-4,0l-60,85l-80,0z"/>
<glyph unicode="&#xF1;" horiz-adv-x="560" d="M73,0l115,0l0,343C229,383 257,404 300,404C354,404 377,374 377,293l0,-293l115,0l0,308C492,432 446,503 341,503C274,503 224,468 180,425l-4,0l-8,66l-95,0 z M147,577l61,0C215,610 226,625 244,625C276,625 308,577 360,577C411,577 445,622 453,698l-61,0C385,665 374,650 356,650C325,650 292,698 240,698C189,698 155,653 147,577z"/>
<glyph unicode="&#x146;" horiz-adv-x="560" d="M73,0l115,0l0,343C229,383 257,404 300,404C354,404 377,374 377,293l0,-293l115,0l0,308C492,432 446,503 341,503C274,503 224,468 180,425l-4,0l-8,66l-95,0 z M253,-45l-23,-46C259,-98 277,-109 277,-132C277,-156 241,-167 191,-173l10,-50C286,-217 362,-188 362,-125C362,-78 332,-54 253,-45z"/>
<glyph unicode="&#x1E45;" horiz-adv-x="560" d="M73,0l115,0l0,343C229,383 257,404 300,404C354,404 377,374 377,293l0,-293l115,0l0,308C492,432 446,503 341,503C274,503 224,468 180,425l-4,0l-8,66l-95,0 z M300,577C340,577 368,604 368,643C368,681 340,708 300,708C260,708 232,681 232,643C232,604 260,577 300,577z"/>
<glyph unicode="&#x1E47;" horiz-adv-x="560" d="M73,0l115,0l0,343C229,383 257,404 300,404C354,404 377,374 377,293l0,-293l115,0l0,308C492,432 446,503 341,503C274,503 224,468 180,425l-4,0l-8,66l-95,0 z M286,-216C325,-216 354,-189 354,-150C354,-112 325,-85 286,-85C246,-85 218,-112 218,-150C218,-189 246,-216 286,-216z"/>
<glyph unicode="&#x1E49;" horiz-adv-x="560" d="M73,0l115,0l0,343C229,383 257,404 300,404C354,404 377,374 377,293l0,-293l115,0l0,308C492,432 446,503 341,503C274,503 224,468 180,425l-4,0l-8,66l-95,0 z M416,-104l-262,0l0,-76l262,0z"/>
<glyph unicode="&#x149;" horiz-adv-x="814" d="M95,391C178,434 220,500 220,587C220,657 192,698 141,698C103,698 76,671 76,629C76,590 106,567 141,567C144,567 147,567 150,568C150,509 122,474 67,442 z M427,425l-9,66l-94,0l0,-491l115,0l0,343C480,383 508,404 551,404C604,404 628,374 628,293l0,-293l115,0l0,308C743,432 697,503 592,503C524,503 474,468 430,425z"/>
<glyph unicode="&#xF2;" horiz-adv-x="549" d="M41,245C41,82 152,-12 274,-12C397,-12 508,82 508,245C508,409 397,503 274,503C152,503 41,409 41,245 z M159,245C159,344 202,409 274,409C346,409 390,344 390,245C390,147 346,82 274,82C202,82 159,147 159,245 z M262,573l86,0l-90,146l-114,0z"/>
<glyph unicode="&#xF3;" horiz-adv-x="549" d="M41,245C41,82 152,-12 274,-12C397,-12 508,82 508,245C508,409 397,503 274,503C152,503 41,409 41,245 z M159,245C159,344 202,409 274,409C346,409 390,344 390,245C390,147 346,82 274,82C202,82 159,147 159,245 z M405,719l-115,0l-89,-146l85,0z"/>
<glyph unicode="&#xF4;" horiz-adv-x="549" d="M41,245C41,82 152,-12 274,-12C397,-12 508,82 508,245C508,409 397,503 274,503C152,503 41,409 41,245 z M159,245C159,344 202,409 274,409C346,409 390,344 390,245C390,147 346,82 274,82C202,82 159,147 159,245 z M133,573l79,0l60,85l4,0l60,-85l80,0l-95,146l-93,0z"/>
<glyph unicode="&#xF5;" horiz-adv-x="549" d="M41,245C41,82 152,-12 274,-12C397,-12 508,82 508,245C508,409 397,503 274,503C152,503 41,409 41,245 z M159,245C159,344 202,409 274,409C346,409 390,344 390,245C390,147 346,82 274,82C202,82 159,147 159,245 z M122,577l61,0C189,610 200,625 218,625C250,625 283,577 334,577C386,577 419,622 427,698l-61,0C360,665 349,650 330,650C300,650 266,698 214,698C163,698 130,653 122,577z"/>
<glyph unicode="&#xF6;" horiz-adv-x="549" d="M41,245C41,82 152,-12 274,-12C397,-12 508,82 508,245C508,409 397,503 274,503C152,503 41,409 41,245 z M159,245C159,344 202,409 274,409C346,409 390,344 390,245C390,147 346,82 274,82C202,82 159,147 159,245 z M182,579C216,579 241,605 241,639C241,672 216,698 182,698C147,698 122,672 122,639C122,605 147,579 182,579 z M367,579C402,579 427,605 427,639C427,672 402,698 367,698C332,698 308,672 308,639C308,605 332,579 367,579z"/>
<glyph unicode="&#x14D;" horiz-adv-x="549" d="M41,245C41,82 152,-12 274,-12C397,-12 508,82 508,245C508,409 397,503 274,503C152,503 41,409 41,245 z M159,245C159,344 202,409 274,409C346,409 390,344 390,245C390,147 346,82 274,82C202,82 159,147 159,245 z M144,596l261,0l0,76l-261,0z"/>
<glyph unicode="&#x151;" horiz-adv-x="549" d="M41,245C41,82 152,-12 274,-12C397,-12 508,82 508,245C508,409 397,503 274,503C152,503 41,409 41,245 z M159,245C159,344 202,409 274,409C346,409 390,344 390,245C390,147 346,82 274,82C202,82 159,147 159,245 z M162,572l73,0l92,147l-95,0 z M322,572l72,0l92,147l-95,0z"/>
<glyph unicode="&#x1D2;" horiz-adv-x="549" d="M41,245C41,82 152,-12 274,-12C397,-12 508,82 508,245C508,409 397,503 274,503C152,503 41,409 41,245 z M159,245C159,344 202,409 274,409C346,409 390,344 390,245C390,147 346,82 274,82C202,82 159,147 159,245 z M228,573l93,0l95,146l-80,0l-60,-85l-4,0l-60,85l-79,0z"/>
<glyph unicode="&#x1ECD;" horiz-adv-x="549" d="M41,245C41,82 152,-12 274,-12C397,-12 508,82 508,245C508,409 397,503 274,503C152,503 41,409 41,245 z M159,245C159,344 202,409 274,409C346,409 390,344 390,245C390,147 346,82 274,82C202,82 159,147 159,245 z M275,-216C314,-216 343,-189 343,-150C343,-112 314,-85 275,-85C235,-85 207,-112 207,-150C207,-189 235,-216 275,-216z"/>
<glyph unicode="&#x1ECF;" horiz-adv-x="549" d="M41,245C41,82 152,-12 274,-12C397,-12 508,82 508,245C508,409 397,503 274,503C152,503 41,409 41,245 z M159,245C159,344 202,409 274,409C346,409 390,344 390,245C390,147 346,82 274,82C202,82 159,147 159,245 z M243,555C310,563 368,590 368,653C368,706 320,736 214,740l-12,-61C258,676 283,663 283,641C283,619 261,610 232,603z"/>
<glyph unicode="&#x1ED1;" horiz-adv-x="549" d="M41,245C41,82 152,-12 274,-12C397,-12 508,82 508,245C508,409 397,503 274,503C152,503 41,409 41,245 z M159,245C159,344 202,409 274,409C346,409 390,344 390,245C390,147 346,82 274,82C202,82 159,147 159,245 z M146,573l74,0l52,69l4,0l53,-69l73,0l-81,124l-93,0 z M372,643l67,0l94,116l-90,0z"/>
<glyph unicode="&#x1ED3;" horiz-adv-x="549" d="M41,245C41,82 152,-12 274,-12C397,-12 508,82 508,245C508,409 397,503 274,503C152,503 41,409 41,245 z M159,245C159,344 202,409 274,409C346,409 390,344 390,245C390,147 346,82 274,82C202,82 159,147 159,245 z M146,573l74,0l52,69l4,0l53,-69l73,0l-81,124l-93,0 z M429,759l-89,0l93,-116l67,0z"/>
<glyph unicode="&#x1ED5;" horiz-adv-x="549" d="M41,245C41,82 152,-12 274,-12C397,-12 508,82 508,245C508,409 397,503 274,503C152,503 41,409 41,245 z M159,245C159,344 202,409 274,409C346,409 390,344 390,245C390,147 346,82 274,82C202,82 159,147 159,245 z M146,573l74,0l52,69l4,0l53,-69l73,0l-81,124l-93,0 z M401,628C457,638 506,657 506,716C506,763 466,790 372,793l-11,-52C411,738 428,726 428,704C428,685 414,676 392,670z"/>
<glyph unicode="&#x1ED7;" horiz-adv-x="549" d="M41,245C41,82 152,-12 274,-12C397,-12 508,82 508,245C508,409 397,503 274,503C152,503 41,409 41,245 z M159,245C159,344 202,409 274,409C346,409 390,344 390,245C390,147 346,82 274,82C202,82 159,147 159,245 z M138,572l78,0l56,62l4,0l57,-62l77,0l-83,108l-105,0 z M189,716C194,744 208,756 226,756C256,756 276,716 328,716C373,716 406,752 413,818l-53,0C355,790 341,778 323,778C293,778 272,818 221,818C176,818 143,782 136,716z"/>
<glyph unicode="&#x1ED9;" horiz-adv-x="549" d="M41,245C41,82 152,-12 274,-12C397,-12 508,82 508,245C508,409 397,503 274,503C152,503 41,409 41,245 z M159,245C159,344 202,409 274,409C346,409 390,344 390,245C390,147 346,82 274,82C202,82 159,147 159,245 z M133,573l79,0l60,85l4,0l60,-85l80,0l-95,146l-93,0 z M275,-216C314,-216 343,-189 343,-150C343,-112 314,-85 275,-85C235,-85 207,-112 207,-150C207,-189 235,-216 275,-216z"/>
<glyph unicode="&#xF8;" horiz-adv-x="549" d="M382,331C391,306 396,275 396,239C396,143 346,78 274,78C244,78 219,88 199,108 z M167,160C158,185 153,216 153,251C153,347 202,413 274,413C304,413 329,403 349,384 z M503,480l-46,36l-47,-57C371,488 324,503 274,503C152,503 41,409 41,245C41,174 62,116 96,73l-50,-61l46,-36l46,56C177,3 225,-12 274,-12C397,-12 508,82 508,245C508,317 487,375 453,418z"/>
<glyph unicode="&#x153;" horiz-adv-x="830" d="M158,245C158,344 202,409 268,409C335,409 379,344 379,245C379,147 335,82 268,82C202,82 158,147 158,245 z M41,245C41,82 144,-12 266,-12C342,-12 398,24 438,92C476,27 539,-12 606,-12C669,-12 728,10 775,41l-41,77C698,95 664,80 622,80C550,80 494,129 486,214l303,0C791,226 794,246 794,268C794,405 726,503 600,503C535,503 475,464 436,399C400,465 340,503 268,503C146,503 41,409 41,245 z M486,287C495,368 540,414 597,414C660,414 694,366 694,287z"/>
<glyph unicode="&#x1A1;" horiz-adv-x="549" d="M274,82C202,82 159,147 159,245C159,344 202,409 274,409C346,409 390,344 390,245C390,147 346,82 274,82 z M418,589C427,577 434,562 434,545C434,508 409,490 369,483C340,496 307,503 274,503C152,503 41,409 41,245C41,82 152,-12 274,-12C397,-12 508,82 508,245C508,331 477,398 430,442C482,458 525,492 525,553C525,582 513,608 498,626z"/>
<glyph unicode="&#x1EDB;" horiz-adv-x="549" d="M405,719l-115,0l-89,-146l85,0 z M274,82C202,82 159,147 159,245C159,344 202,409 274,409C346,409 390,344 390,245C390,147 346,82 274,82 z M418,589C427,577 434,562 434,545C434,508 409,490 369,483C340,496 307,503 274,503C152,503 41,409 41,245C41,82 152,-12 274,-12C397,-12 508,82 508,245C508,331 477,398 430,442C482,458 525,492 525,553C525,582 513,608 498,626z"/>
<glyph unicode="&#x1EDD;" horiz-adv-x="549" d="M348,573l-90,146l-114,0l118,-146 z M274,82C202,82 159,147 159,245C159,344 202,409 274,409C346,409 390,344 390,245C390,147 346,82 274,82 z M418,589C427,577 434,562 434,545C434,508 409,490 369,483C340,496 307,503 274,503C152,503 41,409 41,245C41,82 152,-12 274,-12C397,-12 508,82 508,245C508,331 477,398 430,442C482,458 525,492 525,553C525,582 513,608 498,626z"/>
<glyph unicode="&#x1EDF;" horiz-adv-x="549" d="M243,555C310,563 368,590 368,653C368,706 320,736 214,740l-12,-61C258,676 283,663 283,641C283,619 261,610 232,603 z M274,82C202,82 159,147 159,245C159,344 202,409 274,409C346,409 390,344 390,245C390,147 346,82 274,82 z M418,589C427,577 434,562 434,545C434,508 409,490 369,483C340,496 307,503 274,503C152,503 41,409 41,245C41,82 152,-12 274,-12C397,-12 508,82 508,245C508,331 477,398 430,442C482,458 525,492 525,553C525,582 513,608 498,626z"/>
<glyph unicode="&#x1EE1;" horiz-adv-x="549" d="M366,698C360,665 349,650 330,650C300,650 266,698 214,698C163,698 130,653 122,577l61,0C189,610 200,625 218,625C250,625 283,577 334,577C386,577 419,622 427,698 z M274,82C202,82 159,147 159,245C159,344 202,409 274,409C346,409 390,344 390,245C390,147 346,82 274,82 z M418,589C427,577 434,562 434,545C434,508 409,490 369,483C340,496 307,503 274,503C152,503 41,409 41,245C41,82 152,-12 274,-12C397,-12 508,82 508,245C508,331 477,398 430,442C482,458 525,492 525,553C525,582 513,608 498,626z"/>
<glyph unicode="&#x1EE3;" horiz-adv-x="549" d="M275,-85C235,-85 207,-112 207,-150C207,-189 235,-216 275,-216C314,-216 343,-189 343,-150C343,-112 314,-85 275,-85 z M274,82C202,82 159,147 159,245C159,344 202,409 274,409C346,409 390,344 390,245C390,147 346,82 274,82 z M418,589C427,577 434,562 434,545C434,508 409,490 369,483C340,496 307,503 274,503C152,503 41,409 41,245C41,82 152,-12 274,-12C397,-12 508,82 508,245C508,331 477,398 430,442C482,458 525,492 525,553C525,582 513,608 498,626z"/>
<glyph unicode="&#x1EB;" horiz-adv-x="549" d="M198,-120C198,-178 242,-208 296,-208C325,-208 364,-196 386,-178l-26,54C349,-132 337,-137 322,-137C300,-137 278,-124 278,-95C278,-62 300,-24 347,-2C443,42 508,112 508,245C508,409 397,503 274,503C152,503 41,409 41,245C41,93 138,0 253,-10C230,-30 198,-70 198,-120 z M159,245C159,344 202,409 274,409C346,409 390,344 390,245C390,147 346,82 274,82C202,82 159,147 159,245z"/>
<glyph unicode="&#x155;" horiz-adv-x="373" d="M73,0l115,0l0,300C218,374 265,401 304,401C325,401 338,398 355,393l20,100C360,500 344,503 319,503C267,503 215,468 180,404l-4,0l-8,87l-95,0 z M363,719l-115,0l-89,-146l85,0z"/>
<glyph unicode="&#x157;" horiz-adv-x="373" d="M73,0l115,0l0,300C218,374 265,401 304,401C325,401 338,398 355,393l20,100C360,500 344,503 319,503C267,503 215,468 180,404l-4,0l-8,87l-95,0 z M97,-45l-23,-46C103,-98 121,-109 121,-132C121,-156 86,-167 36,-173l9,-50C130,-217 206,-188 206,-125C206,-78 176,-54 97,-45z"/>
<glyph unicode="&#x159;" horiz-adv-x="373" d="M73,0l115,0l0,300C218,374 265,401 304,401C325,401 338,398 355,393l20,100C360,500 344,503 319,503C267,503 215,468 180,404l-4,0l-8,87l-95,0 z M186,573l93,0l95,146l-80,0l-60,-85l-4,0l-60,85l-79,0z"/>
<glyph unicode="&#x1E5B;" horiz-adv-x="373" d="M73,0l115,0l0,300C218,374 265,401 304,401C325,401 338,398 355,393l20,100C360,500 344,503 319,503C267,503 215,468 180,404l-4,0l-8,87l-95,0 z M130,-216C170,-216 198,-189 198,-150C198,-112 170,-85 130,-85C90,-85 62,-112 62,-150C62,-189 90,-216 130,-216z"/>
<glyph unicode="&#x1E5D;" horiz-adv-x="373" d="M73,0l115,0l0,300C218,374 265,401 304,401C325,401 338,398 355,393l20,100C360,500 344,503 319,503C267,503 215,468 180,404l-4,0l-8,87l-95,0 z M102,596l261,0l0,76l-261,0 z M130,-216C170,-216 198,-189 198,-150C198,-112 170,-85 130,-85C90,-85 62,-112 62,-150C62,-189 90,-216 130,-216z"/>
<glyph unicode="&#x1E5F;" horiz-adv-x="373" d="M73,0l115,0l0,300C218,374 265,401 304,401C325,401 338,398 355,393l20,100C360,500 344,503 319,503C267,503 215,468 180,404l-4,0l-8,87l-95,0 z M260,-104l-262,0l0,-76l262,0z"/>
<glyph unicode="&#x15B;" horiz-adv-x="431" d="M24,56C72,17 143,-12 210,-12C334,-12 401,56 401,140C401,232 327,264 260,289C207,308 158,323 158,362C158,393 181,416 230,416C269,416 304,399 338,374l53,70C351,475 296,503 228,503C118,503 49,442 49,356C49,274 122,237 187,213C239,193 292,175 292,134C292,100 267,75 214,75C164,75 122,96 78,130 z M358,719l-114,0l-90,-146l86,0z"/>
<glyph unicode="&#x15D;" horiz-adv-x="431" d="M24,56C72,17 143,-12 210,-12C334,-12 401,56 401,140C401,232 327,264 260,289C207,308 158,323 158,362C158,393 181,416 230,416C269,416 304,399 338,374l53,70C351,475 296,503 228,503C118,503 49,442 49,356C49,274 122,237 187,213C239,193 292,175 292,134C292,100 267,75 214,75C164,75 122,96 78,130 z M86,573l80,0l60,85l4,0l60,-85l80,0l-96,146l-92,0z"/>
<glyph unicode="&#x161;" horiz-adv-x="431" d="M24,56C72,17 143,-12 210,-12C334,-12 401,56 401,140C401,232 327,264 260,289C207,308 158,323 158,362C158,393 181,416 230,416C269,416 304,399 338,374l53,70C351,475 296,503 228,503C118,503 49,442 49,356C49,274 122,237 187,213C239,193 292,175 292,134C292,100 267,75 214,75C164,75 122,96 78,130 z M182,573l92,0l96,146l-80,0l-60,-85l-4,0l-60,85l-80,0z"/>
<glyph unicode="&#x15F;" horiz-adv-x="431" d="M391,444C351,475 296,503 228,503C118,503 49,442 49,356C49,274 122,237 187,213C239,193 292,175 292,134C292,100 267,75 214,75C164,75 122,96 78,130l-54,-74C68,20 131,-7 193,-11l-33,-64C203,-86 221,-100 221,-121C221,-148 186,-161 136,-167l9,-50C230,-211 306,-182 306,-119C306,-78 281,-58 248,-46l18,39C354,10 401,70 401,140C401,232 327,264 260,289C207,308 158,323 158,362C158,393 181,416 230,416C269,416 304,399 338,374z"/>
<glyph unicode="&#x219;" horiz-adv-x="431" d="M24,56C72,17 143,-12 210,-12C334,-12 401,56 401,140C401,232 327,264 260,289C207,308 158,323 158,362C158,393 181,416 230,416C269,416 304,399 338,374l53,70C351,475 296,503 228,503C118,503 49,442 49,356C49,274 122,237 187,213C239,193 292,175 292,134C292,100 267,75 214,75C164,75 122,96 78,130 z M195,-45l-23,-46C201,-98 219,-109 219,-132C219,-156 184,-167 134,-173l9,-50C228,-217 304,-188 304,-125C304,-78 274,-54 195,-45z"/>
<glyph unicode="&#x1E61;" horiz-adv-x="431" d="M24,56C72,17 143,-12 210,-12C334,-12 401,56 401,140C401,232 327,264 260,289C207,308 158,323 158,362C158,393 181,416 230,416C269,416 304,399 338,374l53,70C351,475 296,503 228,503C118,503 49,442 49,356C49,274 122,237 187,213C239,193 292,175 292,134C292,100 267,75 214,75C164,75 122,96 78,130 z M228,577C268,577 296,604 296,643C296,681 268,708 228,708C188,708 160,681 160,643C160,604 188,577 228,577z"/>
<glyph unicode="&#x1E63;" horiz-adv-x="431" d="M24,56C72,17 143,-12 210,-12C334,-12 401,56 401,140C401,232 327,264 260,289C207,308 158,323 158,362C158,393 181,416 230,416C269,416 304,399 338,374l53,70C351,475 296,503 228,503C118,503 49,442 49,356C49,274 122,237 187,213C239,193 292,175 292,134C292,100 267,75 214,75C164,75 122,96 78,130 z M228,-216C268,-216 296,-189 296,-150C296,-112 268,-85 228,-85C188,-85 160,-112 160,-150C160,-189 188,-216 228,-216z"/>
<glyph unicode="&#xDF;" horiz-adv-x="604" d="M73,0l114,0l0,484C187,575 224,625 290,625C338,625 363,592 363,547C363,468 284,440 284,357C284,222 470,234 470,139C470,104 445,75 401,75C366,75 335,87 300,114l-42,-79C303,6 348,-12 404,-12C514,-12 577,57 577,144C577,302 390,290 390,371C390,431 474,462 474,560C474,642 411,716 290,716C147,716 73,628 73,501z"/>
<glyph unicode="&#x165;" horiz-adv-x="361" d="M90,166C90,60 132,-12 246,-12C285,-12 319,-3 346,6l-20,85C312,85 292,80 275,80C228,80 206,108 206,166l0,234l125,0l0,91l-125,0l0,134l-96,0l-14,-134l-76,-5l0,-86l70,0 z M320,548l19,154l1,63l-76,0l4,-217z"/>
<glyph unicode="&#x163;" horiz-adv-x="361" d="M263,-11C295,-9 323,-2 346,6l-20,85C312,85 292,80 275,80C228,80 206,108 206,166l0,234l125,0l0,91l-125,0l0,134l-96,0l-14,-134l-76,-5l0,-86l70,0l0,-234C90,78 119,13 195,-6l-35,-69C202,-86 220,-100 220,-121C220,-148 185,-161 135,-167l9,-50C230,-211 306,-182 306,-119C306,-78 280,-58 247,-46z"/>
<glyph unicode="&#x21B;" horiz-adv-x="361" d="M90,166C90,60 132,-12 246,-12C285,-12 319,-3 346,6l-20,85C312,85 292,80 275,80C228,80 206,108 206,166l0,234l125,0l0,91l-125,0l0,134l-96,0l-14,-134l-76,-5l0,-86l70,0 z M192,-45l-23,-46C198,-98 216,-109 216,-132C216,-156 180,-167 130,-173l10,-50C225,-217 301,-188 301,-125C301,-78 271,-54 192,-45z"/>
<glyph unicode="&#x1E6D;" horiz-adv-x="361" d="M90,166C90,60 132,-12 246,-12C285,-12 319,-3 346,6l-20,85C312,85 292,80 275,80C228,80 206,108 206,166l0,234l125,0l0,91l-125,0l0,134l-96,0l-14,-134l-76,-5l0,-86l70,0 z M225,-216C264,-216 293,-189 293,-150C293,-112 264,-85 225,-85C185,-85 157,-112 157,-150C157,-189 185,-216 225,-216z"/>
<glyph unicode="&#x1E6F;" horiz-adv-x="361" d="M90,166C90,60 132,-12 246,-12C285,-12 319,-3 346,6l-20,85C312,85 292,80 275,80C228,80 206,108 206,166l0,234l125,0l0,91l-125,0l0,134l-96,0l-14,-134l-76,-5l0,-86l70,0 z M355,-104l-262,0l0,-76l262,0z"/>
<glyph unicode="&#x1E97;" horiz-adv-x="361" d="M90,166C90,60 132,-12 246,-12C285,-12 319,-3 346,6l-20,85C312,85 292,80 275,80C228,80 206,108 206,166l0,234l125,0l0,91l-125,0l0,134l-96,0l-14,-134l-76,-5l0,-86l70,0 z M63,717C98,717 122,743 122,777C122,810 98,836 63,836C28,836 3,810 3,777C3,743 28,717 63,717 z M248,717C283,717 308,743 308,777C308,810 283,836 248,836C214,836 189,810 189,777C189,743 214,717 248,717z"/>
<glyph unicode="&#xF9;" horiz-adv-x="556" d="M68,183C68,59 114,-12 219,-12C286,-12 334,21 377,72l3,0l9,-72l94,0l0,491l-115,0l0,-336C331,107 302,87 259,87C206,87 183,117 183,198l0,293l-115,0 z M267,573l85,0l-89,146l-115,0z"/>
<glyph unicode="&#xFA;" horiz-adv-x="556" d="M68,183C68,59 114,-12 219,-12C286,-12 334,21 377,72l3,0l9,-72l94,0l0,491l-115,0l0,-336C331,107 302,87 259,87C206,87 183,117 183,198l0,293l-115,0 z M409,719l-114,0l-90,-146l86,0z"/>
<glyph unicode="&#xFB;" horiz-adv-x="556" d="M68,183C68,59 114,-12 219,-12C286,-12 334,21 377,72l3,0l9,-72l94,0l0,491l-115,0l0,-336C331,107 302,87 259,87C206,87 183,117 183,198l0,293l-115,0 z M137,573l80,0l60,85l4,0l60,-85l79,0l-95,146l-93,0z"/>
<glyph unicode="&#x169;" horiz-adv-x="556" d="M68,183C68,59 114,-12 219,-12C286,-12 334,21 377,72l3,0l9,-72l94,0l0,491l-115,0l0,-336C331,107 302,87 259,87C206,87 183,117 183,198l0,293l-115,0 z M126,577l61,0C194,610 204,625 223,625C254,625 287,577 339,577C390,577 424,622 432,698l-62,0C364,665 353,650 335,650C304,650 270,698 219,698C168,698 134,653 126,577z"/>
<glyph unicode="&#xFC;" horiz-adv-x="556" d="M68,183C68,59 114,-12 219,-12C286,-12 334,21 377,72l3,0l9,-72l94,0l0,491l-115,0l0,-336C331,107 302,87 259,87C206,87 183,117 183,198l0,293l-115,0 z M186,579C221,579 246,605 246,639C246,672 221,698 186,698C151,698 126,672 126,639C126,605 151,579 186,579 z M372,579C406,579 431,605 431,639C431,672 406,698 372,698C337,698 312,672 312,639C312,605 337,579 372,579z"/>
<glyph unicode="&#x16B;" horiz-adv-x="556" d="M68,183C68,59 114,-12 219,-12C286,-12 334,21 377,72l3,0l9,-72l94,0l0,491l-115,0l0,-336C331,107 302,87 259,87C206,87 183,117 183,198l0,293l-115,0 z M146,596l261,0l0,76l-261,0z"/>
<glyph unicode="&#x16D;" horiz-adv-x="556" d="M68,183C68,59 114,-12 219,-12C286,-12 334,21 377,72l3,0l9,-72l94,0l0,491l-115,0l0,-336C331,107 302,87 259,87C206,87 183,117 183,198l0,293l-115,0 z M279,575C368,575 408,642 412,708l-67,0C340,672 320,640 279,640C238,640 218,672 213,708l-67,0C150,642 189,575 279,575z"/>
<glyph unicode="&#x16F;" horiz-adv-x="556" d="M68,183C68,59 114,-12 219,-12C286,-12 334,21 377,72l3,0l9,-72l94,0l0,491l-115,0l0,-336C331,107 302,87 259,87C206,87 183,117 183,198l0,293l-115,0 z M279,545C340,545 382,584 382,642C382,701 340,740 279,740C218,740 176,701 176,642C176,584 218,545 279,545 z M279,591C254,591 234,612 234,642C234,673 254,694 279,694C303,694 323,673 323,642C323,612 303,591 279,591z"/>
<glyph unicode="&#x171;" horiz-adv-x="556" d="M68,183C68,59 114,-12 219,-12C286,-12 334,21 377,72l3,0l9,-72l94,0l0,491l-115,0l0,-336C331,107 302,87 259,87C206,87 183,117 183,198l0,293l-115,0 z M167,572l73,0l91,147l-95,0 z M326,572l73,0l91,147l-94,0z"/>
<glyph unicode="&#x1D4;" horiz-adv-x="556" d="M68,183C68,59 114,-12 219,-12C286,-12 334,21 377,72l3,0l9,-72l94,0l0,491l-115,0l0,-336C331,107 302,87 259,87C206,87 183,117 183,198l0,293l-115,0 z M232,573l93,0l95,146l-79,0l-60,-85l-4,0l-60,85l-80,0z"/>
<glyph unicode="&#x1D6;" horiz-adv-x="556" d="M68,183C68,59 114,-12 219,-12C286,-12 334,21 377,72l3,0l9,-72l94,0l0,491l-115,0l0,-336C331,107 302,87 259,87C206,87 183,117 183,198l0,293l-115,0 z M186,579C217,579 240,603 240,633C240,663 217,686 186,686C155,686 132,663 132,633C132,603 155,579 186,579 z M372,579C403,579 425,603 425,633C425,663 403,686 372,686C340,686 318,663 318,633C318,603 340,579 372,579 z M148,753l261,0l0,58l-261,0z"/>
<glyph unicode="&#x1D8;" horiz-adv-x="556" d="M68,183C68,59 114,-12 219,-12C286,-12 334,21 377,72l3,0l9,-72l94,0l0,491l-115,0l0,-336C331,107 302,87 259,87C206,87 183,117 183,198l0,293l-115,0 z M218,729l76,0l110,107l-103,0 z M186,579C217,579 240,603 240,633C240,663 217,686 186,686C155,686 132,663 132,633C132,603 155,579 186,579 z M372,579C403,579 425,603 425,633C425,663 403,686 372,686C340,686 318,663 318,633C318,603 340,579 372,579z"/>
<glyph unicode="&#x1DA;" horiz-adv-x="556" d="M68,183C68,59 114,-12 219,-12C286,-12 334,21 377,72l3,0l9,-72l94,0l0,491l-115,0l0,-336C331,107 302,87 259,87C206,87 183,117 183,198l0,293l-115,0 z M230,729l98,0l88,107l-81,0l-54,-61l-4,0l-55,61l-80,0 z M186,579C217,579 240,603 240,633C240,663 217,686 186,686C155,686 132,663 132,633C132,603 155,579 186,579 z M372,579C403,579 425,603 425,633C425,663 403,686 372,686C340,686 318,663 318,633C318,603 340,579 372,579z"/>
<glyph unicode="&#x1DC;" horiz-adv-x="556" d="M68,183C68,59 114,-12 219,-12C286,-12 334,21 377,72l3,0l9,-72l94,0l0,491l-115,0l0,-336C331,107 302,87 259,87C206,87 183,117 183,198l0,293l-115,0 z M257,836l-103,0l109,-107l76,0 z M372,579C403,579 425,603 425,633C425,663 403,686 372,686C340,686 318,663 318,633C318,603 340,579 372,579 z M186,579C217,579 240,603 240,633C240,663 217,686 186,686C155,686 132,663 132,633C132,603 155,579 186,579z"/>
<glyph unicode="&#x1EE5;" horiz-adv-x="556" d="M68,183C68,59 114,-12 219,-12C286,-12 334,21 377,72l3,0l9,-72l94,0l0,491l-115,0l0,-336C331,107 302,87 259,87C206,87 183,117 183,198l0,293l-115,0 z M297,-216C336,-216 365,-189 365,-150C365,-112 336,-85 297,-85C257,-85 229,-112 229,-150C229,-189 257,-216 297,-216z"/>
<glyph unicode="&#x1EE7;" horiz-adv-x="556" d="M68,183C68,59 114,-12 219,-12C286,-12 334,21 377,72l3,0l9,-72l94,0l0,491l-115,0l0,-336C331,107 302,87 259,87C206,87 183,117 183,198l0,293l-115,0 z M247,555C314,563 372,590 372,653C372,706 325,736 219,740l-13,-61C262,676 287,663 287,641C287,619 265,610 237,603z"/>
<glyph unicode="&#x173;" horiz-adv-x="556" d="M68,183C68,59 114,-12 219,-12C286,-12 334,21 377,72l3,0l10,-71C356,-24 316,-64 316,-120C316,-178 359,-208 414,-208C442,-208 482,-196 504,-178l-26,54C468,-132 454,-137 440,-137C418,-137 396,-123 396,-95C396,-60 421,-24 483,0l0,491l-115,0l0,-336C331,107 302,87 259,87C206,87 183,117 183,198l0,293l-115,0z"/>
<glyph unicode="&#x1B0;" horiz-adv-x="556" d="M470,599C478,587 485,572 485,555C485,507 444,494 402,491l-34,0l0,-336C331,107 302,87 259,87C206,87 183,117 183,198l0,293l-115,0l0,-308C68,59 114,-12 219,-12C286,-12 334,21 377,72l3,0l9,-72l94,0l0,453C532,468 576,501 576,563C576,592 564,618 550,636z"/>
<glyph unicode="&#x1EE9;" horiz-adv-x="556" d="M400,719l-114,0l-90,-146l86,0 z M470,599C478,587 485,572 485,555C485,507 444,494 402,491l-34,0l0,-336C331,107 302,87 259,87C206,87 183,117 183,198l0,293l-115,0l0,-308C68,59 114,-12 219,-12C286,-12 334,21 377,72l3,0l9,-72l94,0l0,453C532,468 576,501 576,563C576,592 564,618 550,636z"/>
<glyph unicode="&#x1EEB;" horiz-adv-x="556" d="M343,573l-89,146l-115,0l119,-146 z M470,599C478,587 485,572 485,555C485,507 444,494 402,491l-34,0l0,-336C331,107 302,87 259,87C206,87 183,117 183,198l0,293l-115,0l0,-308C68,59 114,-12 219,-12C286,-12 334,21 377,72l3,0l9,-72l94,0l0,453C532,468 576,501 576,563C576,592 564,618 550,636z"/>
<glyph unicode="&#x1EED;" horiz-adv-x="556" d="M238,555C305,563 363,590 363,653C363,706 316,736 210,740l-13,-61C253,676 278,663 278,641C278,619 256,610 228,603 z M470,599C478,587 485,572 485,555C485,507 444,494 402,491l-34,0l0,-336C331,107 302,87 259,87C206,87 183,117 183,198l0,293l-115,0l0,-308C68,59 114,-12 219,-12C286,-12 334,21 377,72l3,0l9,-72l94,0l0,453C532,468 576,501 576,563C576,592 564,618 550,636z"/>
<glyph unicode="&#x1EEF;" horiz-adv-x="556" d="M361,698C355,665 344,650 326,650C295,650 261,698 210,698C159,698 125,653 117,577l61,0C185,610 195,625 214,625C245,625 278,577 330,577C381,577 415,622 423,698 z M470,599C478,587 485,572 485,555C485,507 444,494 402,491l-34,0l0,-336C331,107 302,87 259,87C206,87 183,117 183,198l0,293l-115,0l0,-308C68,59 114,-12 219,-12C286,-12 334,21 377,72l3,0l9,-72l94,0l0,453C532,468 576,501 576,563C576,592 564,618 550,636z"/>
<glyph unicode="&#x1EF1;" horiz-adv-x="556" d="M288,-85C249,-85 220,-112 220,-150C220,-189 249,-216 288,-216C328,-216 356,-189 356,-150C356,-112 328,-85 288,-85 z M470,599C478,587 485,572 485,555C485,507 444,494 402,491l-34,0l0,-336C331,107 302,87 259,87C206,87 183,117 183,198l0,293l-115,0l0,-308C68,59 114,-12 219,-12C286,-12 334,21 377,72l3,0l9,-72l94,0l0,453C532,468 576,501 576,563C576,592 564,618 550,636z"/>
<glyph unicode="&#x1E81;" horiz-adv-x="748" d="M154,0l132,0l56,228C353,274 362,320 371,372l4,0C386,320 394,275 405,229l57,-229l137,0l125,491l-108,0l-59,-255C548,189 540,143 531,95l-4,0C516,143 506,189 494,236l-65,255l-105,0l-64,-255C248,190 238,143 229,95l-4,0C216,143 209,189 199,236l-59,255l-116,0 z M363,573l85,0l-89,146l-115,0z"/>
<glyph unicode="&#x1E83;" horiz-adv-x="748" d="M154,0l132,0l56,228C353,274 362,320 371,372l4,0C386,320 394,275 405,229l57,-229l137,0l125,491l-108,0l-59,-255C548,189 540,143 531,95l-4,0C516,143 506,189 494,236l-65,255l-105,0l-64,-255C248,190 238,143 229,95l-4,0C216,143 209,189 199,236l-59,255l-116,0 z M505,719l-114,0l-90,-146l86,0z"/>
<glyph unicode="&#x175;" horiz-adv-x="748" d="M154,0l132,0l56,228C353,274 362,320 371,372l4,0C386,320 394,275 405,229l57,-229l137,0l125,491l-108,0l-59,-255C548,189 540,143 531,95l-4,0C516,143 506,189 494,236l-65,255l-105,0l-64,-255C248,190 238,143 229,95l-4,0C216,143 209,189 199,236l-59,255l-116,0 z M233,573l80,0l60,85l4,0l60,-85l79,0l-95,146l-93,0z"/>
<glyph unicode="&#x1E85;" horiz-adv-x="748" d="M154,0l132,0l56,228C353,274 362,320 371,372l4,0C386,320 394,275 405,229l57,-229l137,0l125,491l-108,0l-59,-255C548,189 540,143 531,95l-4,0C516,143 506,189 494,236l-65,255l-105,0l-64,-255C248,190 238,143 229,95l-4,0C216,143 209,189 199,236l-59,255l-116,0 z M282,579C317,579 342,605 342,639C342,672 317,698 282,698C247,698 222,672 222,639C222,605 247,579 282,579 z M468,579C502,579 527,605 527,639C527,672 502,698 468,698C433,698 408,672 408,639C408,605 433,579 468,579z"/>
<glyph unicode="&#x1EF3;" horiz-adv-x="495" d="M63,-102l-21,-90C60,-198 79,-202 106,-202C213,-202 264,-133 305,-22l178,513l-111,0l-74,-241C286,206 273,157 261,112l-4,0C242,158 228,207 214,250l-85,241l-117,0l193,-485l-9,-31C180,-74 150,-109 98,-109C86,-109 72,-105 63,-102 z M243,573l86,0l-90,146l-114,0z"/>
<glyph unicode="&#xFD;" horiz-adv-x="495" d="M63,-102l-21,-90C60,-198 79,-202 106,-202C213,-202 264,-133 305,-22l178,513l-111,0l-74,-241C286,206 273,157 261,112l-4,0C242,158 228,207 214,250l-85,241l-117,0l193,-485l-9,-31C180,-74 150,-109 98,-109C86,-109 72,-105 63,-102 z M386,719l-115,0l-89,-146l85,0z"/>
<glyph unicode="&#x177;" horiz-adv-x="495" d="M63,-102l-21,-90C60,-198 79,-202 106,-202C213,-202 264,-133 305,-22l178,513l-111,0l-74,-241C286,206 273,157 261,112l-4,0C242,158 228,207 214,250l-85,241l-117,0l193,-485l-9,-31C180,-74 150,-109 98,-109C86,-109 72,-105 63,-102 z M114,573l79,0l60,85l4,0l60,-85l80,0l-95,146l-93,0z"/>
<glyph unicode="&#xFF;" horiz-adv-x="495" d="M63,-102l-21,-90C60,-198 79,-202 106,-202C213,-202 264,-133 305,-22l178,513l-111,0l-74,-241C286,206 273,157 261,112l-4,0C242,158 228,207 214,250l-85,241l-117,0l193,-485l-9,-31C180,-74 150,-109 98,-109C86,-109 72,-105 63,-102 z M162,579C197,579 222,605 222,639C222,672 197,698 162,698C128,698 103,672 103,639C103,605 128,579 162,579 z M348,579C383,579 408,605 408,639C408,672 383,698 348,698C313,698 288,672 288,639C288,605 313,579 348,579z"/>
<glyph unicode="&#x1E8F;" horiz-adv-x="495" d="M63,-102l-21,-90C60,-198 79,-202 106,-202C213,-202 264,-133 305,-22l178,513l-111,0l-74,-241C286,206 273,157 261,112l-4,0C242,158 228,207 214,250l-85,241l-117,0l193,-485l-9,-31C180,-74 150,-109 98,-109C86,-109 72,-105 63,-102 z M255,577C295,577 323,604 323,643C323,681 295,708 255,708C216,708 187,681 187,643C187,604 216,577 255,577z"/>
<glyph unicode="&#x1EF5;" horiz-adv-x="495" d="M63,-102l-21,-90C60,-198 79,-202 106,-202C213,-202 264,-133 305,-22l178,513l-111,0l-74,-241C286,206 273,157 261,112l-4,0C242,158 228,207 214,250l-85,241l-117,0l193,-485l-9,-31C180,-74 150,-109 98,-109C86,-109 72,-105 63,-102 z M420,-210C460,-210 488,-183 488,-144C488,-106 460,-79 420,-79C380,-79 352,-106 352,-144C352,-183 380,-210 420,-210z"/>
<glyph unicode="&#x1EF7;" horiz-adv-x="495" d="M63,-102l-21,-90C60,-198 79,-202 106,-202C213,-202 264,-133 305,-22l178,513l-111,0l-74,-241C286,206 273,157 261,112l-4,0C242,158 228,207 214,250l-85,241l-117,0l193,-485l-9,-31C180,-74 150,-109 98,-109C86,-109 72,-105 63,-102 z M224,555C290,563 349,590 349,653C349,706 301,736 195,740l-13,-61C239,676 264,663 264,641C264,619 242,610 213,603z"/>
<glyph unicode="&#x1EF9;" horiz-adv-x="495" d="M63,-102l-21,-90C60,-198 79,-202 106,-202C213,-202 264,-133 305,-22l178,513l-111,0l-74,-241C286,206 273,157 261,112l-4,0C242,158 228,207 214,250l-85,241l-117,0l193,-485l-9,-31C180,-74 150,-109 98,-109C86,-109 72,-105 63,-102 z M102,577l62,0C170,610 181,625 199,625C231,625 264,577 315,577C366,577 400,622 408,698l-61,0C340,665 330,650 311,650C280,650 247,698 195,698C144,698 110,653 102,577z"/>
<glyph unicode="&#x17A;" horiz-adv-x="443" d="M34,0l384,0l0,92l-239,0l231,338l0,61l-350,0l0,-91l206,0l-232,-338 z M368,719l-115,0l-89,-146l85,0z"/>
<glyph unicode="&#x17E;" horiz-adv-x="443" d="M34,0l384,0l0,92l-239,0l231,338l0,61l-350,0l0,-91l206,0l-232,-338 z M191,573l93,0l95,146l-80,0l-60,-85l-4,0l-60,85l-79,0z"/>
<glyph unicode="&#x17C;" horiz-adv-x="443" d="M34,0l384,0l0,92l-239,0l231,338l0,61l-350,0l0,-91l206,0l-232,-338 z M237,577C277,577 305,604 305,643C305,681 277,708 237,708C198,708 169,681 169,643C169,604 198,577 237,577z"/>
<glyph unicode="&#x1E93;" horiz-adv-x="443" d="M34,0l384,0l0,92l-239,0l231,338l0,61l-350,0l0,-91l206,0l-232,-338 z M237,-216C276,-216 305,-189 305,-150C305,-112 276,-85 237,-85C197,-85 169,-112 169,-150C169,-189 197,-216 237,-216z"/>
<glyph unicode="&#xF0;" horiz-adv-x="552" d="M274,82C209,82 154,136 154,225C154,311 200,364 273,364C313,364 351,351 387,306C388,290 389,273 389,256C389,146 347,82 274,82 z M487,666l-31,54l-143,-73C270,682 223,710 175,735l-51,-71C161,644 195,624 225,602l-122,-62l31,-53l142,72C321,515 354,464 372,397C341,435 297,451 252,451C142,451 48,365 48,225C48,79 152,-12 271,-12C410,-12 498,101 498,262C498,415 442,523 363,603z"/>
<glyph unicode="&#xFE;" horiz-adv-x="564" d="M188,-40l-2,78C225,6 264,-12 311,-12C420,-12 521,85 521,253C521,405 448,503 322,503C272,503 225,479 186,447l2,77l0,182l-115,0l0,-900l115,0 z M188,124l0,229C226,390 260,408 296,408C370,408 402,350 402,252C402,141 352,83 287,83C258,83 224,94 188,124z"/>
<glyph unicode="&#x237;" horiz-adv-x="263" d="M74,-27C74,-84 62,-115 18,-115C3,-115 -11,-111 -24,-107l-22,-86C-27,-200 -2,-206 34,-206C150,-206 190,-129 190,-25l0,516l-116,0z"/>
<glyph unicode="&#x251;" horiz-adv-x="564" d="M162,246C162,349 213,408 276,408C309,408 342,397 376,367l0,-229C343,100 311,83 273,83C202,83 162,140 162,246 z M43,245C43,83 122,-12 245,-12C298,-12 348,17 384,53l4,0l8,-53l95,0l0,491l-92,0l-9,-48l-3,0C346,484 306,503 254,503C146,503 43,405 43,245z"/>
<glyph unicode="&#x259;" horiz-adv-x="507" d="M37,225C37,84 112,-12 244,-12C365,-12 466,86 466,246C466,407 370,503 243,503C178,503 117,482 68,448l39,-71C144,400 181,414 224,414C299,414 345,365 354,279l-312,0C39,267 37,247 37,225 z M136,206l219,0C345,120 302,77 241,77C173,77 136,123 136,206z"/>
<glyph unicode="&#x261;" horiz-adv-x="571" d="M120,-73l-40,-78C134,-186 203,-205 260,-205C410,-205 494,-134 494,-10l0,501l-94,0l-8,-45l-4,0C349,485 309,503 257,503C150,503 47,406 47,254C47,106 126,9 248,9C300,9 347,33 382,66l-3,-76C376,-73 341,-114 260,-114C217,-114 167,-102 120,-73 z M277,103C206,103 164,160 164,255C164,349 216,408 279,408C312,408 346,397 379,367l0,-208C346,120 315,103 277,103z"/>
<glyph unicode="&#xE003;" horiz-adv-x="616" d="M646,701C624,710 592,718 556,718C440,718 393,644 393,542l0,-51l-185,0l0,43C208,589 234,617 275,617C301,617 318,613 337,604l22,86C335,701 300,708 263,708C144,708 93,635 93,534l0,-43l-66,-5l0,-86l66,0l0,-400l115,0l0,400l185,0l0,-400l115,0l0,400l96,0l0,91l-96,0l0,53C508,601 530,627 571,627C588,627 606,623 624,615z"/>
<glyph unicode="&#xFB01;" horiz-adv-x="596" d="M93,491l-66,-5l0,-86l66,0l0,-400l115,0l0,400l96,0l0,91l-96,0l0,53C208,601 230,627 270,627C287,627 306,623 324,615l22,86C324,710 291,718 256,718C140,718 93,644 93,542 z M466,577C507,577 537,604 537,642C537,681 507,708 466,708C425,708 395,681 395,642C395,604 425,577 466,577 z M408,0l115,0l0,491l-115,0z"/>
<glyph unicode="&#xFB02;" horiz-adv-x="588" d="M93,491l-66,-5l0,-86l66,0l0,-400l115,0l0,400l96,0l0,91l-96,0l0,53C208,601 230,627 270,627C287,627 306,623 324,615l22,86C324,710 291,718 256,718C140,718 93,644 93,542 z M548,84C539,82 535,82 530,82C518,82 505,92 505,120l0,586l-115,0l0,-580C390,41 420,-12 502,-12C529,-12 548,-8 562,-2z"/>
<glyph unicode="&#xE004;" horiz-adv-x="642" d="M607,91C593,85 573,80 556,80C509,80 486,108 486,166l0,234l126,0l0,91l-126,0l0,134l-95,0l-14,-134l-169,0l0,53C208,601 230,627 270,627C287,627 306,623 324,615l22,86C324,710 291,718 256,718C140,718 93,644 93,542l0,-51l-66,-5l0,-86l66,0l0,-400l115,0l0,400l163,0l0,-234C371,60 413,-12 526,-12C566,-12 600,-3 627,6z"/>
<glyph unicode="&#xE005;" horiz-adv-x="370" d="M49,0l271,0l0,98l-77,0l0,458l77,0l0,98l-271,0l0,-98l78,0l0,-458l-78,0z"/>
<glyph unicode="&#xE006;" horiz-adv-x="370" d="M49,0l271,0l0,98l-77,0l0,458l77,0l0,98l-271,0l0,-98l78,0l0,-458l-78,0 z M155,704l93,0l-84,116l-126,0z"/>
<glyph unicode="&#xE007;" horiz-adv-x="370" d="M49,0l271,0l0,98l-77,0l0,458l77,0l0,98l-271,0l0,-98l78,0l0,-458l-78,0 z M332,820l-126,0l-84,-116l94,0z"/>
<glyph unicode="&#xE008;" horiz-adv-x="370" d="M49,0l271,0l0,98l-77,0l0,458l77,0l0,98l-271,0l0,-98l78,0l0,-458l-78,0 z M123,704l60,64l4,0l60,-64l90,0l-96,116l-112,0l-96,-116z"/>
<glyph unicode="&#xE009;" horiz-adv-x="370" d="M49,0l271,0l0,98l-77,0l0,458l77,0l0,98l-271,0l0,-98l78,0l0,-458l-78,0 z M247,707C297,707 335,753 343,829l-61,0C276,796 261,781 243,781C209,781 177,829 124,829C74,829 36,784 28,707l60,0C94,740 109,756 128,756C161,756 194,707 247,707z"/>
<glyph unicode="&#xE00A;" horiz-adv-x="370" d="M49,0l271,0l0,98l-77,0l0,458l77,0l0,98l-271,0l0,-98l78,0l0,-458l-78,0 z M92,708C127,708 152,733 152,767C152,802 127,827 92,827C58,827 33,802 33,767C33,733 58,708 92,708 z M278,708C313,708 338,733 338,767C338,802 313,827 278,827C243,827 218,802 218,767C218,733 243,708 278,708z"/>
<glyph unicode="&#xE00B;" horiz-adv-x="370" d="M49,0l271,0l0,98l-77,0l0,458l77,0l0,98l-271,0l0,-98l78,0l0,-458l-78,0 z M52,724l266,0l0,76l-266,0z"/>
<glyph unicode="&#xE00C;" horiz-adv-x="370" d="M49,0l271,0l0,98l-77,0l0,458l77,0l0,98l-271,0l0,-98l78,0l0,-458l-78,0 z M185,707C226,707 256,734 256,773C256,811 226,838 185,838C144,838 114,811 114,773C114,734 144,707 185,707z"/>
<glyph unicode="&#xE00D;" horiz-adv-x="370" d="M49,0l271,0l0,98l-77,0l0,458l77,0l0,98l-271,0l0,-98l78,0l0,-458l-78,0 z M247,820l-60,-64l-4,0l-60,64l-90,0l96,-116l112,0l96,116z"/>
<glyph unicode="&#xE00E;" horiz-adv-x="370" d="M49,0l271,0l0,98l-77,0l0,458l77,0l0,98l-271,0l0,-98l78,0l0,-458l-78,0 z M154,694C220,702 279,730 279,793C279,845 231,876 125,879l-13,-61C169,815 194,803 194,780C194,759 172,749 143,743z"/>
<glyph unicode="&#xE00F;" horiz-adv-x="370" d="M49,0l271,0l0,98l-77,0l0,458l77,0l0,98l-271,0l0,-98l78,0l0,-458l-78,0 z M186,-216C226,-216 254,-189 254,-150C254,-112 226,-85 186,-85C146,-85 118,-112 118,-150C118,-189 146,-216 186,-216z"/>
<glyph unicode="&#xE010;" horiz-adv-x="370" d="M49,0l106,0C126,-23 86,-70 86,-127C86,-186 132,-218 191,-218C222,-218 261,-204 283,-186l-28,60C244,-134 231,-140 217,-140C194,-140 172,-127 172,-98C172,-64 194,-29 231,0l89,0l0,98l-77,0l0,458l77,0l0,98l-271,0l0,-98l78,0l0,-458l-78,0z"/>
<glyph unicode="&#xE011;" horiz-adv-x="564" d="M162,246C162,349 213,408 276,408C309,408 342,397 376,367l0,-229C343,100 311,83 273,83C202,83 162,140 162,246 z M43,245C43,83 122,-12 245,-12C298,-12 348,17 384,53l4,0l8,-53l95,0l0,491l-92,0l-9,-48l-3,0C346,484 306,503 254,503C146,503 43,405 43,245z"/>
<glyph unicode="&#xE012;" horiz-adv-x="564" d="M162,246C162,349 213,408 276,408C309,408 342,397 376,367l0,-229C343,100 311,83 273,83C202,83 162,140 162,246 z M43,245C43,83 122,-12 245,-12C298,-12 348,17 384,53l4,0l8,-53l95,0l0,491l-92,0l-9,-48l-3,0C346,484 306,503 254,503C146,503 43,405 43,245 z M279,573l86,0l-90,146l-114,0z"/>
<glyph unicode="&#xE013;" horiz-adv-x="564" d="M162,246C162,349 213,408 276,408C309,408 342,397 376,367l0,-229C343,100 311,83 273,83C202,83 162,140 162,246 z M43,245C43,83 122,-12 245,-12C298,-12 348,17 384,53l4,0l8,-53l95,0l0,491l-92,0l-9,-48l-3,0C346,484 306,503 254,503C146,503 43,405 43,245 z M422,719l-115,0l-89,-146l85,0z"/>
<glyph unicode="&#xE014;" horiz-adv-x="564" d="M162,246C162,349 213,408 276,408C309,408 342,397 376,367l0,-229C343,100 311,83 273,83C202,83 162,140 162,246 z M43,245C43,83 122,-12 245,-12C298,-12 348,17 384,53l4,0l8,-53l95,0l0,491l-92,0l-9,-48l-3,0C346,484 306,503 254,503C146,503 43,405 43,245 z M150,573l79,0l60,85l4,0l60,-85l80,0l-95,146l-93,0z"/>
<glyph unicode="&#xE015;" horiz-adv-x="564" d="M162,246C162,349 213,408 276,408C309,408 342,397 376,367l0,-229C343,100 311,83 273,83C202,83 162,140 162,246 z M43,245C43,83 122,-12 245,-12C298,-12 348,17 384,53l4,0l8,-53l95,0l0,491l-92,0l-9,-48l-3,0C346,484 306,503 254,503C146,503 43,405 43,245 z M138,577l62,0C206,610 217,625 235,625C267,625 300,577 351,577C402,577 436,622 444,698l-61,0C376,665 366,650 347,650C316,650 283,698 231,698C180,698 146,653 138,577z"/>
<glyph unicode="&#xE016;" horiz-adv-x="564" d="M162,246C162,349 213,408 276,408C309,408 342,397 376,367l0,-229C343,100 311,83 273,83C202,83 162,140 162,246 z M43,245C43,83 122,-12 245,-12C298,-12 348,17 384,53l4,0l8,-53l95,0l0,491l-92,0l-9,-48l-3,0C346,484 306,503 254,503C146,503 43,405 43,245 z M198,579C233,579 258,605 258,639C258,672 233,698 198,698C164,698 139,672 139,639C139,605 164,579 198,579 z M384,579C419,579 444,605 444,639C444,672 419,698 384,698C349,698 324,672 324,639C324,605 349,579 384,579z"/>
<glyph unicode="&#xE017;" horiz-adv-x="564" d="M162,246C162,349 213,408 276,408C309,408 342,397 376,367l0,-229C343,100 311,83 273,83C202,83 162,140 162,246 z M43,245C43,83 122,-12 245,-12C298,-12 348,17 384,53l4,0l8,-53l95,0l0,491l-92,0l-9,-48l-3,0C346,484 306,503 254,503C146,503 43,405 43,245 z M161,596l261,0l0,76l-261,0z"/>
<glyph unicode="&#xE018;" horiz-adv-x="564" d="M162,246C162,349 213,408 276,408C309,408 342,397 376,367l0,-229C343,100 311,83 273,83C202,83 162,140 162,246 z M43,245C43,83 122,-12 245,-12C298,-12 348,17 384,53l4,0l8,-53l95,0l0,491l-92,0l-9,-48l-3,0C346,484 306,503 254,503C146,503 43,405 43,245 z M291,575C381,575 420,642 424,708l-67,0C352,672 332,640 291,640C250,640 230,672 225,708l-67,0C162,642 202,575 291,575z"/>
<glyph unicode="&#xE019;" horiz-adv-x="564" d="M162,246C162,349 213,408 276,408C309,408 342,397 376,367l0,-229C343,100 311,83 273,83C202,83 162,140 162,246 z M43,245C43,83 122,-12 245,-12C298,-12 348,17 384,53l4,0l8,-53l95,0l0,491l-92,0l-9,-48l-3,0C346,484 306,503 254,503C146,503 43,405 43,245 z M291,545C352,545 394,584 394,642C394,701 352,740 291,740C230,740 188,701 188,642C188,584 230,545 291,545 z M291,591C267,591 247,612 247,642C247,673 267,694 291,694C316,694 336,673 336,642C336,612 316,591 291,591z"/>
<glyph unicode="&#xE01A;" horiz-adv-x="564" d="M162,246C162,349 213,408 276,408C309,408 342,397 376,367l0,-229C343,100 311,83 273,83C202,83 162,140 162,246 z M43,245C43,83 122,-12 245,-12C298,-12 348,17 384,53l4,0l8,-53l95,0l0,491l-92,0l-9,-48l-3,0C346,484 306,503 254,503C146,503 43,405 43,245 z M245,573l93,0l95,146l-80,0l-60,-85l-4,0l-60,85l-79,0z"/>
<glyph unicode="&#xE01B;" horiz-adv-x="564" d="M162,246C162,349 213,408 276,408C309,408 342,397 376,367l0,-229C343,100 311,83 273,83C202,83 162,140 162,246 z M43,245C43,83 122,-12 245,-12C298,-12 348,17 384,53l4,0l8,-53l95,0l0,491l-92,0l-9,-48l-3,0C346,484 306,503 254,503C146,503 43,405 43,245 z M293,-216C332,-216 361,-189 361,-150C361,-112 332,-85 293,-85C253,-85 225,-112 225,-150C225,-189 253,-216 293,-216z"/>
<glyph unicode="&#xE01C;" horiz-adv-x="564" d="M162,246C162,349 213,408 276,408C309,408 342,397 376,367l0,-229C343,100 311,83 273,83C202,83 162,140 162,246 z M43,245C43,83 122,-12 245,-12C298,-12 348,17 384,53l4,0l8,-53l95,0l0,491l-92,0l-9,-48l-3,0C346,484 306,503 254,503C146,503 43,405 43,245 z M260,555C326,563 385,590 385,653C385,706 337,736 231,740l-13,-61C275,676 300,663 300,641C300,619 278,610 249,603z"/>
<glyph unicode="&#xE01D;" horiz-adv-x="564" d="M162,246C162,349 213,408 276,408C309,408 342,397 376,367l0,-229C343,100 311,83 273,83C202,83 162,140 162,246 z M43,245C43,83 122,-12 245,-12C298,-12 348,17 384,53l4,0l8,-53l95,0l0,491l-92,0l-9,-48l-3,0C346,484 306,503 254,503C146,503 43,405 43,245 z M163,573l74,0l52,69l4,0l53,-69l73,0l-81,124l-93,0 z M389,643l67,0l94,116l-90,0z"/>
<glyph unicode="&#xE01E;" horiz-adv-x="564" d="M162,246C162,349 213,408 276,408C309,408 342,397 376,367l0,-229C343,100 311,83 273,83C202,83 162,140 162,246 z M43,245C43,83 122,-12 245,-12C298,-12 348,17 384,53l4,0l8,-53l95,0l0,491l-92,0l-9,-48l-3,0C346,484 306,503 254,503C146,503 43,405 43,245 z M163,573l74,0l52,69l4,0l53,-69l73,0l-81,124l-93,0 z M446,759l-90,0l94,-116l67,0z"/>
<glyph unicode="&#xE01F;" horiz-adv-x="564" d="M162,246C162,349 213,408 276,408C309,408 342,397 376,367l0,-229C343,100 311,83 273,83C202,83 162,140 162,246 z M43,245C43,83 122,-12 245,-12C298,-12 348,17 384,53l4,0l8,-53l95,0l0,491l-92,0l-9,-48l-3,0C346,484 306,503 254,503C146,503 43,405 43,245 z M163,573l74,0l52,69l4,0l53,-69l73,0l-81,124l-93,0 z M418,628C474,638 523,657 523,716C523,763 482,790 388,793l-10,-52C428,738 445,726 445,704C445,685 430,676 409,670z"/>
<glyph unicode="&#xE020;" horiz-adv-x="564" d="M162,246C162,349 213,408 276,408C309,408 342,397 376,367l0,-229C343,100 311,83 273,83C202,83 162,140 162,246 z M43,245C43,83 122,-12 245,-12C298,-12 348,17 384,53l4,0l8,-53l95,0l0,491l-92,0l-9,-48l-3,0C346,484 306,503 254,503C146,503 43,405 43,245 z M155,572l77,0l57,62l4,0l57,-62l77,0l-83,108l-105,0 z M206,716C211,744 224,756 243,756C273,756 293,716 345,716C390,716 423,752 430,818l-53,0C372,790 358,778 340,778C310,778 289,818 238,818C192,818 160,782 153,716z"/>
<glyph unicode="&#xE021;" horiz-adv-x="564" d="M162,246C162,349 213,408 276,408C309,408 342,397 376,367l0,-229C343,100 311,83 273,83C202,83 162,140 162,246 z M43,245C43,83 122,-12 245,-12C298,-12 348,17 384,53l4,0l8,-53l95,0l0,491l-92,0l-9,-48l-3,0C346,484 306,503 254,503C146,503 43,405 43,245 z M150,573l79,0l60,85l4,0l60,-85l80,0l-95,146l-93,0 z M293,-216C332,-216 361,-189 361,-150C361,-112 332,-85 293,-85C253,-85 225,-112 225,-150C225,-189 253,-216 293,-216z"/>
<glyph unicode="&#xE022;" horiz-adv-x="564" d="M162,246C162,349 213,408 276,408C309,408 342,397 376,367l0,-229C343,100 311,83 273,83C202,83 162,140 162,246 z M43,245C43,83 122,-12 245,-12C298,-12 348,17 384,53l4,0l8,-53l95,0l0,491l-92,0l-9,-48l-3,0C346,484 306,503 254,503C146,503 43,405 43,245 z M249,684l62,0l88,116l-87,0 z M291,575C381,575 420,642 424,708l-55,0C363,668 339,634 291,634C243,634 219,668 213,708l-55,0C162,642 202,575 291,575z"/>
<glyph unicode="&#xE023;" horiz-adv-x="564" d="M162,246C162,349 213,408 276,408C309,408 342,397 376,367l0,-229C343,100 311,83 273,83C202,83 162,140 162,246 z M43,245C43,83 122,-12 245,-12C298,-12 348,17 384,53l4,0l8,-53l95,0l0,491l-92,0l-9,-48l-3,0C346,484 306,503 254,503C146,503 43,405 43,245 z M270,800l-87,0l89,-116l61,0 z M291,575C381,575 420,642 424,708l-55,0C363,668 339,634 291,634C243,634 219,668 213,708l-55,0C162,642 202,575 291,575z"/>
<glyph unicode="&#xE024;" horiz-adv-x="564" d="M162,246C162,349 213,408 276,408C309,408 342,397 376,367l0,-229C343,100 311,83 273,83C202,83 162,140 162,246 z M43,245C43,83 122,-12 245,-12C298,-12 348,17 384,53l4,0l8,-53l95,0l0,491l-92,0l-9,-48l-3,0C346,484 306,503 254,503C146,503 43,405 43,245 z M291,575C381,575 420,642 424,708l-55,0C363,668 339,634 291,634C243,634 219,668 213,708l-55,0C162,642 202,575 291,575 z M260,691C316,700 366,719 366,779C366,826 325,852 231,855l-11,-51C270,801 288,789 288,767C288,747 273,739 251,733z"/>
<glyph unicode="&#xE025;" horiz-adv-x="564" d="M162,246C162,349 213,408 276,408C309,408 342,397 376,367l0,-229C343,100 311,83 273,83C202,83 162,140 162,246 z M43,245C43,83 122,-12 245,-12C298,-12 348,17 384,53l4,0l8,-53l95,0l0,491l-92,0l-9,-48l-3,0C346,484 306,503 254,503C146,503 43,405 43,245 z M291,575C381,575 420,629 423,688l-57,0C360,659 339,632 291,632C244,632 222,659 216,688l-57,0C163,629 202,575 291,575 z M153,716l53,0C211,744 224,756 243,756C273,756 293,716 345,716C390,716 423,752 430,818l-53,0C372,790 358,778 340,778C310,778 289,818 238,818C192,818 160,782 153,716z"/>
<glyph unicode="&#xE026;" horiz-adv-x="564" d="M162,246C162,349 213,408 276,408C309,408 342,397 376,367l0,-229C343,100 311,83 273,83C202,83 162,140 162,246 z M43,245C43,83 122,-12 245,-12C298,-12 348,17 384,53l4,0l8,-53l95,0l0,491l-92,0l-9,-48l-3,0C346,484 306,503 254,503C146,503 43,405 43,245 z M291,575C381,575 420,642 424,708l-67,0C352,672 332,640 291,640C250,640 230,672 225,708l-67,0C162,642 202,575 291,575 z M293,-216C332,-216 361,-189 361,-150C361,-112 332,-85 293,-85C253,-85 225,-112 225,-150C225,-189 253,-216 293,-216z"/>
<glyph unicode="&#xE027;" horiz-adv-x="564" d="M162,246C162,349 213,408 276,408C309,408 342,397 376,367l0,-229C343,100 311,83 273,83C202,83 162,140 162,246 z M43,245C43,83 122,-12 245,-12C298,-12 348,17 384,53l4,0l10,-52C363,-24 323,-64 323,-120C323,-178 367,-208 422,-208C450,-208 489,-196 512,-178l-26,54C475,-132 462,-137 448,-137C425,-137 404,-123 404,-95C404,-60 428,-24 491,0l0,491l-92,0l-9,-48l-3,0C346,484 306,503 254,503C146,503 43,405 43,245z"/>
<glyph unicode="&#xE028;" horiz-adv-x="571" d="M120,-73l-40,-78C134,-186 203,-205 260,-205C410,-205 494,-134 494,-10l0,501l-94,0l-8,-45l-4,0C349,485 309,503 257,503C150,503 47,406 47,254C47,106 126,9 248,9C300,9 347,33 382,66l-3,-76C376,-73 341,-114 260,-114C217,-114 167,-102 120,-73 z M277,103C206,103 164,160 164,255C164,349 216,408 279,408C312,408 346,397 379,367l0,-208C346,120 315,103 277,103z"/>
<glyph unicode="&#xE029;" horiz-adv-x="571" d="M120,-73l-40,-78C134,-186 203,-205 260,-205C410,-205 494,-134 494,-10l0,501l-94,0l-8,-45l-4,0C349,485 309,503 257,503C150,503 47,406 47,254C47,106 126,9 248,9C300,9 347,33 382,66l-3,-76C376,-73 341,-114 260,-114C217,-114 167,-102 120,-73 z M277,103C206,103 164,160 164,255C164,349 216,408 279,408C312,408 346,397 379,367l0,-208C346,120 315,103 277,103 z M153,573l79,0l60,85l4,0l60,-85l80,0l-95,146l-93,0z"/>
<glyph unicode="&#xE02A;" horiz-adv-x="571" d="M120,-73l-40,-78C134,-186 203,-205 260,-205C410,-205 494,-134 494,-10l0,501l-94,0l-8,-45l-4,0C349,485 309,503 257,503C150,503 47,406 47,254C47,106 126,9 248,9C300,9 347,33 382,66l-3,-76C376,-73 341,-114 260,-114C217,-114 167,-102 120,-73 z M277,103C206,103 164,160 164,255C164,349 216,408 279,408C312,408 346,397 379,367l0,-208C346,120 315,103 277,103 z M294,575C384,575 424,642 427,708l-67,0C356,672 335,640 294,640C253,640 233,672 228,708l-66,0C165,642 205,575 294,575z"/>
<glyph unicode="&#xE02B;" horiz-adv-x="571" d="M120,-73l-40,-78C134,-186 203,-205 260,-205C410,-205 494,-134 494,-10l0,501l-94,0l-8,-45l-4,0C349,485 309,503 257,503C150,503 47,406 47,254C47,106 126,9 248,9C300,9 347,33 382,66l-3,-76C376,-73 341,-114 260,-114C217,-114 167,-102 120,-73 z M277,103C206,103 164,160 164,255C164,349 216,408 279,408C312,408 346,397 379,367l0,-208C346,120 315,103 277,103 z M294,577C334,577 362,604 362,643C362,681 334,708 294,708C255,708 226,681 226,643C226,604 255,577 294,577z"/>
<glyph unicode="&#xE02C;" horiz-adv-x="571" d="M120,-73l-40,-78C134,-186 203,-205 260,-205C410,-205 494,-134 494,-10l0,501l-94,0l-8,-45l-4,0C349,485 309,503 257,503C150,503 47,406 47,254C47,106 126,9 248,9C300,9 347,33 382,66l-3,-76C376,-73 341,-114 260,-114C217,-114 167,-102 120,-73 z M277,103C206,103 164,160 164,255C164,349 216,408 279,408C312,408 346,397 379,367l0,-208C346,120 315,103 277,103 z M326,543l23,46C320,596 302,607 302,630C302,654 338,665 388,671l-10,50C293,715 217,686 217,623C217,576 247,552 326,543z"/>
<glyph unicode="&#xE02D;" horiz-adv-x="571" d="M120,-73l-40,-78C134,-186 203,-205 260,-205C410,-205 494,-134 494,-10l0,501l-94,0l-8,-45l-4,0C349,485 309,503 257,503C150,503 47,406 47,254C47,106 126,9 248,9C300,9 347,33 382,66l-3,-76C376,-73 341,-114 260,-114C217,-114 167,-102 120,-73 z M277,103C206,103 164,160 164,255C164,349 216,408 279,408C312,408 346,397 379,367l0,-208C346,120 315,103 277,103 z M248,573l93,0l95,146l-80,0l-60,-85l-4,0l-60,85l-79,0z"/>
<glyph unicode="&#xE02E;" horiz-adv-x="571" d="M120,-73l-40,-78C134,-186 203,-205 260,-205C410,-205 494,-134 494,-10l0,501l-94,0l-8,-45l-4,0C349,485 309,503 257,503C150,503 47,406 47,254C47,106 126,9 248,9C300,9 347,33 382,66l-3,-76C376,-73 341,-114 260,-114C217,-114 167,-102 120,-73 z M277,103C206,103 164,160 164,255C164,349 216,408 279,408C312,408 346,397 379,367l0,-208C346,120 315,103 277,103 z M164,596l261,0l0,76l-261,0z"/>
<glyph unicode="&#xE02F;" horiz-adv-x="571" d="M120,-73l-40,-78C134,-186 203,-205 260,-205C410,-205 494,-134 494,-10l0,501l-94,0l-8,-45l-4,0C349,485 309,503 257,503C150,503 47,406 47,254C47,106 126,9 248,9C300,9 347,33 382,66l-3,-76C376,-73 341,-114 260,-114C217,-114 167,-102 120,-73 z M277,103C206,103 164,160 164,255C164,349 216,408 279,408C312,408 346,397 379,367l0,-208C346,120 315,103 277,103 z M142,577l61,0C209,610 220,625 238,625C270,625 303,577 354,577C406,577 439,622 447,698l-61,0C380,665 369,650 350,650C320,650 286,698 234,698C183,698 150,653 142,577z"/>
<glyph unicode="&#xE030;" horiz-adv-x="262" d="M73,0l115,0l0,706l-115,0z"/>
<glyph unicode="&#xE031;" horiz-adv-x="262" d="M73,0l115,0l0,706l-115,0 z M278,874l-126,0l-84,-116l93,0z"/>
<glyph unicode="&#xE032;" horiz-adv-x="292" d="M73,0l115,0l0,706l-115,0 z M290,548l20,154l1,63l-77,0l4,-217z"/>
<glyph unicode="&#xE033;" horiz-adv-x="408" d="M73,0l115,0l0,706l-115,0 z M260,327C260,282 293,249 335,249C377,249 409,282 409,327C409,372 377,405 335,405C293,405 260,372 260,327z"/>
<glyph unicode="&#xE034;" horiz-adv-x="262" d="M73,0l115,0l0,706l-115,0 z M98,-45l-23,-46C104,-98 122,-109 122,-132C122,-156 86,-167 36,-173l10,-50C131,-217 207,-188 207,-125C207,-78 177,-54 98,-45z"/>
<glyph unicode="&#xE035;" horiz-adv-x="262" d="M73,0l115,0l0,706l-115,0 z M131,-216C170,-216 199,-189 199,-150C199,-112 170,-85 131,-85C91,-85 63,-112 63,-150C63,-189 91,-216 131,-216z"/>
<glyph unicode="&#xE036;" horiz-adv-x="262" d="M73,0l115,0l0,706l-115,0 z M0,812l261,0l0,76l-261,0 z M131,-216C170,-216 199,-189 199,-150C199,-112 170,-85 131,-85C91,-85 63,-112 63,-150C63,-189 91,-216 131,-216z"/>
<glyph unicode="&#xE037;" horiz-adv-x="262" d="M73,0l115,0l0,706l-115,0 z M261,-104l-262,0l0,-76l262,0z"/>
<glyph unicode="&#xE038;" horiz-adv-x="278" d="M264,498l-76,-46l0,254l-115,0l0,-313l-54,-34l0,-94l54,34l0,-299l115,0l0,357l76,46z"/>
<glyph unicode="&#xE039;" horiz-adv-x="596" d="M93,491l-66,-5l0,-86l66,0l0,-400l115,0l0,400l96,0l0,91l-96,0l0,53C208,601 230,627 270,627C287,627 306,623 324,615l22,86C324,710 291,718 256,718C140,718 93,644 93,542 z M408,706l0,-706l115,0l0,706z"/>
<glyph unicode="&amp;" horiz-adv-x="639" d="M138,179C138,219 164,251 201,281C243,222 298,165 356,116C323,92 287,77 251,77C186,77 138,118 138,179 z M207,504C207,554 236,588 277,588C315,588 330,561 330,526C330,475 287,442 233,408C217,442 207,474 207,504 z M622,82C587,89 547,108 504,134C555,202 592,279 616,361l-106,0C492,293 463,235 427,187C371,230 318,283 278,337C349,387 420,441 420,527C420,610 365,666 276,666C176,666 111,593 111,503C111,458 126,409 153,359C87,315 28,262 28,172C28,69 107,-12 237,-12C317,-12 382,15 434,58C488,23 543,0 593,-12z"/>
<glyph unicode="0" horiz-adv-x="513" d="M256,-12C388,-12 472,106 472,321C472,535 388,648 256,648C124,648 40,536 40,321C40,106 124,-12 256,-12 z M256,78C195,78 150,141 150,321C150,501 195,558 256,558C318,558 362,501 362,321C362,141 318,78 256,78z"/>
<glyph unicode="1" horiz-adv-x="513" d="M74,0l383,0l0,94l-125,0l0,542l-86,0C206,612 162,596 99,584l0,-72l117,0l0,-418l-142,0z"/>
<glyph unicode="2" horiz-adv-x="513" d="M38,0l430,0l0,98l-156,0C281,98 239,94 206,91C332,224 437,340 437,453C437,571 358,648 236,648C149,648 91,612 33,550l64,-64C131,524 172,557 221,557C289,557 326,514 326,447C326,350 215,238 38,67z"/>
<glyph unicode="3" horiz-adv-x="513" d="M24,78C69,28 137,-12 240,-12C362,-12 463,56 463,172C463,256 406,310 331,330l0,4C400,361 442,409 442,480C442,588 358,648 236,648C160,648 99,616 45,568l59,-71C143,533 182,557 232,557C290,557 326,525 326,472C326,413 285,370 160,370l0,-84C305,286 347,244 347,178C347,118 299,82 230,82C166,82 117,113 79,152z"/>
<glyph unicode="4" horiz-adv-x="513" d="M132,253l116,177C266,464 284,496 300,529l4,0C302,492 299,434 299,397l0,-144 z M487,253l-80,0l0,383l-137,0l-252,-394l0,-78l281,0l0,-164l108,0l0,164l80,0z"/>
<glyph unicode="5" horiz-adv-x="513" d="M24,76C71,29 138,-12 241,-12C358,-12 465,68 465,207C465,344 374,406 265,406C232,406 208,398 181,385l13,154l240,0l0,97l-340,0l-19,-314l55,-35C168,312 191,323 232,323C302,323 349,280 349,204C349,127 297,82 226,82C162,82 115,114 77,150z"/>
<glyph unicode="6" horiz-adv-x="513" d="M273,76C211,76 166,124 154,237C190,290 232,310 268,310C331,310 368,272 368,197C368,119 326,76 273,76 z M464,576C426,616 371,648 294,648C164,648 44,546 44,299C44,85 150,-12 275,-12C384,-12 475,70 475,197C475,330 399,394 289,394C243,394 188,366 151,319C156,495 221,554 301,554C339,554 379,534 402,506z"/>
<glyph unicode="7" horiz-adv-x="513" d="M168,0l117,0C296,248 322,381 471,566l0,70l-427,0l0,-97l301,0C222,368 179,226 168,0z"/>
<glyph unicode="8" horiz-adv-x="513" d="M142,175C142,224 171,265 211,294C297,259 364,234 364,165C364,106 320,70 259,70C194,70 142,112 142,175 z M299,359C228,387 171,415 171,479C171,534 209,566 258,566C317,566 352,525 352,469C352,429 333,393 299,359 z M41,163C41,60 133,-12 257,-12C386,-12 472,63 472,161C472,246 421,293 362,326l0,4C403,360 447,413 447,476C447,579 374,648 260,648C150,648 68,582 68,479C68,412 107,365 156,330l0,-4C96,294 41,242 41,163z"/>
<glyph unicode="9" horiz-adv-x="513" d="M244,326C180,326 143,365 143,440C143,517 186,560 238,560C300,560 346,512 358,400C323,347 280,326 244,326 z M47,60C85,20 141,-12 217,-12C348,-12 467,91 467,338C467,552 361,648 237,648C128,648 37,567 37,440C37,307 113,243 222,243C268,243 324,271 361,317C356,141 291,82 211,82C172,82 133,102 109,130z"/>
<glyph unicode="&#xE03A;" horiz-adv-x="559" d="M280,-12C418,-12 506,111 506,321C506,530 418,648 280,648C142,648 54,530 54,321C54,111 142,-12 280,-12 z M280,82C213,82 170,146 170,321C170,496 213,554 280,554C346,554 390,496 390,321C390,146 346,82 280,82z"/>
<glyph unicode="&#xE03B;" horiz-adv-x="390" d="M162,0l115,0l0,636l-86,0C151,612 108,596 44,584l0,-72l118,0z"/>
<glyph unicode="&#xE03C;" horiz-adv-x="514" d="M44,0l418,0l0,98l-144,0C287,98 245,94 212,91C335,224 437,340 437,453C437,571 361,648 240,648C154,648 95,614 35,550l64,-64C133,524 175,557 224,557C293,557 326,514 326,447C326,350 218,238 44,67z"/>
<glyph unicode="&#xE03D;" horiz-adv-x="513" d="M24,78C69,28 137,-12 240,-12C362,-12 463,56 463,172C463,256 406,310 331,330l0,4C400,361 442,409 442,480C442,588 358,648 236,648C160,648 99,616 45,568l59,-71C143,533 182,557 232,557C290,557 326,525 326,472C326,413 285,370 160,370l0,-84C305,286 347,244 347,178C347,118 299,82 230,82C166,82 117,113 79,152z"/>
<glyph unicode="&#xE03E;" horiz-adv-x="540" d="M150,253l115,177C283,464 301,496 317,529l4,0C319,492 316,434 316,397l0,-144 z M504,253l-80,0l0,383l-136,0l-252,-394l0,-78l280,0l0,-164l108,0l0,164l80,0z"/>
<glyph unicode="&#xE03F;" horiz-adv-x="513" d="M24,76C71,29 138,-12 241,-12C358,-12 465,68 465,207C465,344 374,406 265,406C232,406 208,398 181,385l13,154l240,0l0,97l-340,0l-19,-314l55,-35C168,312 191,323 232,323C302,323 349,280 349,204C349,127 297,82 226,82C162,82 115,114 77,150z"/>
<glyph unicode="&#xE040;" horiz-adv-x="544" d="M288,76C226,76 181,124 169,237C204,291 247,310 283,310C346,310 383,272 383,197C383,119 341,76 288,76 z M479,576C441,616 386,648 309,648C179,648 59,546 59,299C59,85 165,-12 290,-12C398,-12 490,70 490,197C490,330 414,394 304,394C259,394 203,366 166,320C171,495 236,554 316,554C354,554 394,534 417,506z"/>
<glyph unicode="&#xE041;" horiz-adv-x="504" d="M158,0l117,0C286,248 310,381 457,566l0,70l-413,0l0,-97l287,0C210,368 169,226 158,0z"/>
<glyph unicode="&#xE042;" horiz-adv-x="537" d="M154,175C154,224 183,265 223,294C309,259 376,234 376,165C376,106 332,70 271,70C206,70 154,112 154,175 z M311,359C240,387 183,415 183,479C183,534 221,566 270,566C329,566 364,525 364,469C364,429 345,393 311,359 z M53,163C53,60 145,-12 269,-12C398,-12 484,63 484,161C484,246 433,293 374,326l0,4C415,360 459,413 459,476C459,579 386,648 272,648C162,648 80,582 80,479C80,412 119,365 168,330l0,-4C108,294 53,242 53,163z"/>
<glyph unicode="&#xE043;" horiz-adv-x="544" d="M258,326C194,326 157,365 157,440C157,517 200,560 252,560C314,560 360,512 372,400C337,347 294,326 258,326 z M61,60C99,20 155,-12 231,-12C362,-12 481,91 481,338C481,552 375,648 251,648C142,648 51,567 51,440C51,307 127,243 236,243C282,243 338,271 375,317C370,141 305,82 225,82C186,82 147,102 123,130z"/>
<glyph unicode="&#xE044;" horiz-adv-x="513" d="M256,-12C386,-12 472,92 472,288C472,484 386,588 256,588C127,588 40,484 40,288C40,92 127,-12 256,-12 z M256,78C188,78 150,159 150,288C150,417 188,498 256,498C325,498 362,417 362,288C362,159 325,78 256,78z"/>
<glyph unicode="&#xE045;" horiz-adv-x="513" d="M74,0l383,0l0,94l-125,0l0,482l-86,0C206,552 162,535 99,524l0,-73l117,0l0,-357l-142,0z"/>
<glyph unicode="&#xE046;" horiz-adv-x="513" d="M38,0l430,0l0,98l-145,0C292,98 250,94 216,91C343,209 434,294 434,396C434,510 355,587 236,587C149,587 91,551 33,488l64,-63C131,463 172,496 222,496C287,496 322,453 322,391C322,303 214,209 38,67z"/>
<glyph unicode="&#xE047;" horiz-adv-x="513" d="M24,2C69,-48 137,-88 240,-88C362,-88 463,-16 463,100C463,186 406,243 331,262l0,4C400,294 442,346 442,417C442,525 358,588 236,588C160,588 99,556 45,508l59,-72C143,473 182,496 232,496C290,496 326,462 326,409C326,350 285,302 160,302l0,-84C305,218 347,172 347,107C347,47 299,6 230,6C166,6 117,37 79,76z"/>
<glyph unicode="&#xE048;" horiz-adv-x="513" d="M132,178l116,184C266,396 284,433 300,467l4,0C302,430 299,373 299,336l0,-158 z M487,178l-80,0l0,398l-137,0l-252,-409l0,-79l281,0l0,-164l108,0l0,164l80,0z"/>
<glyph unicode="&#xE049;" horiz-adv-x="513" d="M24,2C71,-46 138,-88 241,-88C358,-88 465,-7 465,136C465,274 374,338 265,338C232,338 208,331 181,318l13,160l240,0l0,98l-340,0l-19,-321l55,-35C168,244 191,255 232,255C302,255 349,210 349,133C349,54 297,6 226,6C162,6 115,38 77,74z"/>
<glyph unicode="&#xE04A;" horiz-adv-x="513" d="M274,76C212,76 167,124 155,237C190,291 233,310 269,310C332,310 369,272 369,197C369,119 327,76 274,76 z M465,576C427,616 372,648 295,648C165,648 45,546 45,299C45,85 151,-12 276,-12C384,-12 476,70 476,197C476,330 400,394 290,394C245,394 189,366 152,320C157,495 222,554 302,554C340,554 380,534 403,506z"/>
<glyph unicode="&#xE04B;" horiz-adv-x="513" d="M168,-76l117,0C296,175 322,318 471,505l0,71l-427,0l0,-98l301,0C222,306 179,152 168,-76z"/>
<glyph unicode="&#xE04C;" horiz-adv-x="513" d="M142,175C142,224 171,265 211,294C297,259 364,234 364,165C364,106 320,70 259,70C194,70 142,112 142,175 z M299,359C228,387 171,415 171,479C171,534 209,566 258,566C317,566 352,525 352,469C352,429 333,393 299,359 z M41,163C41,60 133,-12 257,-12C386,-12 472,63 472,161C472,246 421,293 362,326l0,4C403,360 447,413 447,476C447,579 374,648 260,648C150,648 68,582 68,479C68,412 107,365 156,330l0,-4C96,294 41,242 41,163z"/>
<glyph unicode="&#xE04D;" horiz-adv-x="513" d="M236,245C170,245 134,288 134,373C134,452 178,500 234,500C301,500 350,450 360,321C322,265 277,245 236,245 z M52,-33C100,-70 144,-88 211,-88C375,-88 471,42 471,269C471,466 379,588 232,588C121,588 28,502 28,373C28,238 97,162 215,162C264,162 324,189 361,236C354,64 291,6 203,6C161,6 128,20 96,47z"/>
<glyph unicode="&#xE04E;" horiz-adv-x="532" d="M264,-12C394,-12 480,92 480,288C480,484 394,588 264,588C135,588 48,484 48,288C48,92 135,-12 264,-12 z M264,78C196,78 158,159 158,288C158,417 196,498 264,498C333,498 370,417 370,288C370,159 333,78 264,78z"/>
<glyph unicode="&#xE04F;" horiz-adv-x="390" d="M162,0l115,0l0,576l-86,0C151,552 108,535 44,524l0,-73l118,0z"/>
<glyph unicode="&#xE050;" horiz-adv-x="508" d="M46,0l410,0l0,98l-130,0C295,98 253,94 220,91C346,209 429,294 429,396C429,510 353,587 234,587C147,587 94,551 36,488l64,-63C134,463 170,496 220,496C286,496 318,453 318,391C318,303 222,209 46,67z"/>
<glyph unicode="&#xE051;" horiz-adv-x="513" d="M24,2C69,-48 137,-88 240,-88C362,-88 463,-16 463,100C463,186 406,243 331,262l0,4C400,294 442,346 442,417C442,525 358,588 236,588C160,588 99,556 45,508l59,-72C143,473 182,496 232,496C290,496 326,462 326,409C326,350 285,302 160,302l0,-84C305,218 347,172 347,107C347,47 299,6 230,6C166,6 117,37 79,76z"/>
<glyph unicode="&#xE052;" horiz-adv-x="532" d="M140,178l116,184C274,396 292,433 308,467l4,0C310,430 307,373 307,336l0,-158 z M495,178l-80,0l0,398l-137,0l-252,-409l0,-79l281,0l0,-164l108,0l0,164l80,0z"/>
<glyph unicode="&#xE053;" horiz-adv-x="513" d="M24,2C71,-46 138,-88 241,-88C358,-88 465,-7 465,136C465,274 374,338 265,338C232,338 208,331 181,318l13,160l240,0l0,98l-340,0l-19,-321l55,-35C168,244 191,255 232,255C302,255 349,210 349,133C349,54 297,6 226,6C162,6 115,38 77,74z"/>
<glyph unicode="&#xE054;" horiz-adv-x="532" d="M282,76C220,76 175,124 163,237C198,291 241,310 277,310C340,310 377,272 377,197C377,119 335,76 282,76 z M473,576C435,616 380,648 303,648C173,648 53,546 53,299C53,85 159,-12 284,-12C392,-12 484,70 484,197C484,330 408,394 298,394C253,394 197,366 160,320C165,495 230,554 310,554C348,554 388,534 411,506z"/>
<glyph unicode="&#xE055;" horiz-adv-x="503" d="M154,-76l117,0C282,178 310,317 457,505l0,71l-413,0l0,-98l287,0C210,305 166,154 154,-76z"/>
<glyph unicode="&#xE056;" horiz-adv-x="533" d="M150,175C150,224 179,265 219,294C305,259 372,234 372,165C372,106 328,70 267,70C202,70 150,112 150,175 z M307,359C236,387 179,415 179,479C179,534 217,566 266,566C325,566 360,525 360,469C360,429 341,393 307,359 z M49,163C49,60 141,-12 265,-12C394,-12 480,63 480,161C480,246 429,293 370,326l0,4C411,360 455,413 455,476C455,579 382,648 268,648C158,648 76,582 76,479C76,412 115,365 164,330l0,-4C104,294 49,242 49,163z"/>
<glyph unicode="&#xE057;" horiz-adv-x="532" d="M244,245C178,245 142,288 142,373C142,452 186,500 242,500C309,500 358,450 368,321C330,265 285,245 244,245 z M60,-33C108,-70 152,-88 219,-88C383,-88 479,42 479,269C479,466 387,588 240,588C129,588 36,502 36,373C36,238 105,162 223,162C272,162 332,189 369,236C362,64 299,6 211,6C169,6 136,20 104,47z"/>
<glyph unicode="." horiz-adv-x="275" d="M63,66C63,21 96,-12 138,-12C180,-12 212,21 212,66C212,111 180,144 138,144C96,144 63,111 63,66z"/>
<glyph unicode="," horiz-adv-x="275" d="M72,-182C171,-148 228,-72 228,26C228,100 196,144 142,144C100,144 65,116 65,73C65,28 100,2 139,2C142,2 145,2 148,2C148,-49 111,-94 47,-119z"/>
<glyph unicode=":" horiz-adv-x="275" d="M63,408C63,363 96,330 138,330C180,330 212,363 212,408C212,453 180,486 138,486C96,486 63,453 63,408 z M63,66C63,21 96,-12 138,-12C180,-12 212,21 212,66C212,111 180,144 138,144C96,144 63,111 63,66z"/>
<glyph unicode=";" horiz-adv-x="275" d="M138,330C180,330 212,363 212,408C212,453 180,486 138,486C96,486 63,453 63,408C63,363 96,330 138,330 z M72,-182C171,-148 228,-72 228,26C228,100 196,144 142,144C100,144 65,116 65,73C65,28 100,2 139,2C142,2 145,2 148,2C148,-49 111,-94 47,-119z"/>
<glyph unicode="&#x2026;" horiz-adv-x="964" d="M85,66C85,21 118,-12 160,-12C202,-12 234,21 234,66C234,111 202,144 160,144C118,144 85,111 85,66 z M418,66C418,21 451,-12 493,-12C535,-12 567,21 567,66C567,111 535,144 493,144C451,144 418,111 418,66 z M752,66C752,21 784,-12 826,-12C868,-12 900,21 900,66C900,111 868,144 826,144C784,144 752,111 752,66z"/>
<glyph unicode="!" horiz-adv-x="315" d="M119,215l77,0l16,341l4,114l-116,0l3,-114 z M83,66C83,21 116,-12 158,-12C200,-12 232,21 232,66C232,111 200,144 158,144C116,144 83,111 83,66z"/>
<glyph unicode="&#xA1;" horiz-adv-x="315" d="M196,276l-77,0l-16,-341l-3,-114l116,0l-4,114 z M232,426C232,470 200,503 158,503C116,503 83,470 83,426C83,380 116,347 158,347C200,347 232,380 232,426z"/>
<glyph unicode="?" horiz-adv-x="444" d="M157,215l101,0C244,344 400,389 400,516C400,625 323,682 215,682C142,682 83,646 40,595l64,-59C133,568 166,588 207,588C258,588 288,556 288,508C288,418 136,361 157,215 z M134,66C134,21 166,-12 208,-12C250,-12 283,21 283,66C283,111 250,144 208,144C166,144 134,111 134,66z"/>
<glyph unicode="&#xBF;" horiz-adv-x="444" d="M288,276l-102,0C200,147 45,102 45,-25C45,-134 122,-191 230,-191C302,-191 361,-154 405,-104l-65,59C311,-76 278,-97 238,-97C186,-97 156,-64 156,-17C156,73 308,130 288,276 z M310,426C310,470 278,503 236,503C194,503 162,470 162,426C162,380 194,347 236,347C278,347 310,380 310,426z"/>
<glyph unicode="'" horiz-adv-x="275" d="M104,392l66,0l23,183l3,113l-118,0l4,-113z"/>
<glyph unicode="&quot;" horiz-adv-x="482" d="M104,392l66,0l23,183l3,113l-118,0l4,-113 z M312,392l65,0l23,183l4,113l-119,0l4,-113z"/>
<glyph unicode="&#x2018;" horiz-adv-x="275" d="M180,689C98,646 56,580 56,493C56,423 84,382 134,382C172,382 200,409 200,451C200,490 170,513 134,513C131,513 128,513 125,512C125,571 153,606 208,638z"/>
<glyph unicode="&#x2019;" horiz-adv-x="275" d="M95,391C178,434 220,500 220,587C220,657 192,698 141,698C103,698 76,671 76,629C76,590 106,567 141,567C144,567 147,567 150,568C150,509 122,474 67,442z"/>
<glyph unicode="&#x201C;" horiz-adv-x="482" d="M180,689C98,646 56,580 56,493C56,423 84,382 134,382C172,382 200,409 200,451C200,490 170,513 134,513C131,513 128,513 125,512C125,571 153,606 208,638 z M388,689C305,646 263,580 263,493C263,423 291,382 342,382C380,382 407,409 407,451C407,490 377,513 342,513C339,513 335,513 332,512C332,571 360,606 416,638z"/>
<glyph unicode="&#x201D;" horiz-adv-x="482" d="M95,391C178,434 220,500 220,587C220,657 192,698 141,698C103,698 76,671 76,629C76,590 106,567 141,567C144,567 147,567 150,568C150,509 122,474 67,442 z M302,391C385,434 427,500 427,587C427,657 399,698 348,698C310,698 283,671 283,629C283,590 313,567 348,567C351,567 354,567 357,568C357,509 329,474 274,442z"/>
<glyph unicode="&#x201A;" horiz-adv-x="275" d="M95,-157C178,-114 220,-48 220,39C220,109 192,150 141,150C103,150 76,123 76,81C76,42 106,19 141,19C144,19 147,19 150,20C150,-39 122,-74 67,-106z"/>
<glyph unicode="&#x201E;" horiz-adv-x="482" d="M95,-157C178,-114 220,-48 220,39C220,109 192,150 141,150C103,150 76,123 76,81C76,42 106,19 141,19C144,19 147,19 150,20C150,-39 122,-74 67,-106 z M302,-157C385,-114 427,-48 427,39C427,109 399,150 348,150C310,150 283,123 283,81C283,42 313,19 348,19C351,19 354,19 357,20C357,-39 329,-74 274,-106z"/>
<glyph unicode="&#x2039;" horiz-adv-x="282" d="M182,61l46,36l-115,155l115,154l-46,37l-135,-149l0,-84z"/>
<glyph unicode="&#x203A;" horiz-adv-x="282" d="M54,97l45,-36l136,149l0,84l-136,149l-45,-37l114,-154z"/>
<glyph unicode="&#xAB;" horiz-adv-x="455" d="M182,61l46,36l-115,155l115,154l-46,37l-135,-149l0,-84 z M356,61l45,36l-114,155l114,154l-45,37l-136,-149l0,-84z"/>
<glyph unicode="&#xBB;" horiz-adv-x="455" d="M54,97l45,-36l136,149l0,84l-136,149l-45,-37l114,-154 z M228,97l45,-36l135,149l0,84l-135,149l-45,-37l114,-154z"/>
<glyph unicode="-" horiz-adv-x="322" d="M42,210l238,0l0,84l-238,0z"/>
<glyph unicode="&#xAD;" horiz-adv-x="322" d="M42,210l238,0l0,84l-238,0z"/>
<glyph unicode="&#x2013;" horiz-adv-x="480" d="M42,214l396,0l0,76l-396,0z"/>
<glyph unicode="&#x2014;" horiz-adv-x="800" d="M42,214l716,0l0,76l-716,0z"/>
<glyph unicode="&#x2012;" horiz-adv-x="513" d="M42,214l429,0l0,76l-429,0z"/>
<glyph unicode="&#x2015;" horiz-adv-x="800" d="M42,214l716,0l0,76l-716,0z"/>
<glyph unicode="&#xB7;" horiz-adv-x="275" d="M63,321C63,276 96,243 138,243C180,243 212,276 212,321C212,366 180,399 138,399C96,399 63,366 63,321z"/>
<glyph unicode="&#x2022;" horiz-adv-x="325" d="M162,133C230,133 285,187 285,263C285,338 230,393 162,393C95,393 40,338 40,263C40,187 95,133 162,133z"/>
<glyph unicode="_" horiz-adv-x="500" d="M12,-64l0,-69l476,0l0,69z"/>
<glyph unicode="(" horiz-adv-x="324" d="M209,-178l72,32C206,-18 171,131 171,278C171,425 206,574 281,702l-72,32C126,598 77,454 77,278C77,102 126,-42 209,-178z"/>
<glyph unicode=")" horiz-adv-x="324" d="M43,-146l72,-32C198,-42 247,102 247,278C247,454 198,598 115,734l-72,-32C118,574 153,425 153,278C153,131 118,-18 43,-146z"/>
<glyph unicode="[" horiz-adv-x="324" d="M90,-152l196,0l0,63l-109,0l0,734l109,0l0,63l-196,0z"/>
<glyph unicode="]" horiz-adv-x="324" d="M38,-89l0,-63l196,0l0,860l-196,0l0,-63l109,0l0,-734z"/>
<glyph unicode="{" horiz-adv-x="324" d="M263,-89C215,-89 202,-69 202,-9C202,48 207,99 207,163C207,233 187,264 140,276l0,4C187,292 207,322 207,393C207,457 202,508 202,565C202,625 215,645 263,645l23,0l0,63l-54,0C148,708 109,676 109,570C109,498 118,454 118,388C118,352 99,314 32,313l0,-70C99,242 118,204 118,167C118,102 109,58 109,-14C109,-120 148,-152 232,-152l54,0l0,63z"/>
<glyph unicode="}" horiz-adv-x="324" d="M38,-89l0,-63l54,0C176,-152 215,-120 215,-14C215,58 206,102 206,167C206,204 225,242 292,243l0,70C225,314 206,352 206,388C206,454 215,498 215,570C215,676 176,708 92,708l-54,0l0,-63l23,0C109,645 122,625 122,565C122,508 117,457 117,393C117,322 137,292 184,280l0,-4C137,264 117,233 117,163C117,99 122,48 122,-9C122,-69 109,-89 61,-89z"/>
<glyph unicode="/" horiz-adv-x="344" d="M12,-160l78,0l233,870l-78,0z"/>
<glyph unicode="|" horiz-adv-x="255" d="M89,-250l77,0l0,1000l-77,0z"/>
<glyph unicode="\" horiz-adv-x="344" d="M255,-160l78,0l-234,870l-78,0z"/>
<glyph unicode="&#xA6;" horiz-adv-x="255" d="M89,302l77,0l0,448l-77,0 z M89,209l0,-459l77,0l0,459z"/>
<glyph unicode="*" horiz-adv-x="438" d="M143,384l76,87l75,-87l51,37l-58,98l103,45l-19,60l-110,-25l-11,113l-63,0l-11,-113l-109,25l-19,-60l102,-45l-58,-98z"/>
<glyph unicode="&#x2020;" horiz-adv-x="482" d="M194,-80l94,0l-6,544l152,-6l0,94l-152,-7l6,167l-94,0l7,-167l-152,7l0,-94l152,6z"/>
<glyph unicode="&#x2021;" horiz-adv-x="482" d="M49,80l152,7l-7,-167l94,0l-6,167l152,-7l0,94l-152,-9l6,151l-6,151l152,-9l0,94l-152,-7l6,167l-94,0l7,-167l-152,7l0,-94l152,9l-7,-151l7,-151l-152,9z"/>
<glyph unicode="&#xA7;" horiz-adv-x="513" d="M140,342C140,375 157,397 187,415C268,371 373,350 373,275C373,240 358,219 327,203C247,248 140,268 140,342 z M426,626C386,657 328,687 258,687C152,687 94,625 94,545C94,511 105,484 124,463C74,434 41,388 41,334C41,148 310,164 310,68C310,36 285,12 238,12C192,12 155,31 122,64l-68,-60C97,-47 166,-74 238,-74C348,-74 415,-11 415,73C415,106 405,132 389,153C441,184 472,223 472,284C472,466 198,460 198,550C198,579 218,600 264,600C304,600 341,580 372,553z"/>
<glyph unicode="&#xB6;" horiz-adv-x="599" d="M387,-80l116,0l0,734l-116,0 z M295,212l37,0l0,442l-44,0C149,654 40,598 40,436C40,284 152,212 295,212z"/>
<glyph unicode="&#xA9;" horiz-adv-x="747" d="M47,324C47,119 198,-10 374,-10C549,-10 700,119 700,324C700,529 549,654 374,654C198,654 47,529 47,324 z M105,324C105,493 224,603 374,603C523,603 642,493 642,324C642,155 523,42 374,42C224,42 105,155 105,324 z M196,323C196,201 277,126 384,126C439,126 480,149 517,180l-39,56C451,214 425,197 387,197C323,197 282,246 282,323C282,392 323,443 391,443C422,443 444,430 469,406l45,50C482,488 444,514 385,514C286,514 196,440 196,323z"/>
<glyph unicode="&#x2117;" horiz-adv-x="746" d="M246,138l86,0l0,103l56,0C475,241 548,285 548,378C548,467 477,502 388,502l-142,0 z M332,304l0,133l46,0C432,437 463,419 463,376C463,326 433,304 378,304 z M47,324C47,119 198,-10 374,-10C549,-10 700,119 700,324C700,529 549,654 374,654C198,654 47,529 47,324 z M105,324C105,493 224,603 374,603C523,603 642,493 642,324C642,155 523,42 374,42C224,42 105,155 105,324z"/>
<glyph unicode="&#xAE;" horiz-adv-x="443" d="M221,315C328,315 414,397 414,514C414,632 328,714 221,714C115,714 28,632 28,514C28,397 115,315 221,315 z M221,358C137,358 75,421 75,514C75,608 137,672 221,672C305,672 367,608 367,514C367,421 305,358 221,358 z M144,417l50,0l0,65l34,0l33,-65l53,0l-44,79C294,506 307,528 307,551C307,598 271,616 227,616l-83,0 z M194,518l0,60l24,0C243,578 254,565 254,548C254,530 240,518 217,518z"/>
<glyph unicode="&#x2122;" horiz-adv-x="660" d="M313,364l76,0l0,116l-9,110l4,0l62,-179l55,0l62,179l4,0l-9,-110l0,-116l76,0l0,312l-93,0l-41,-101l-24,-73l-4,0l-24,73l-42,101l-93,0 z M96,364l78,0l0,241l94,0l0,71l-265,0l0,-71l93,0z"/>
<glyph unicode="&#x2120;" horiz-adv-x="660" d="M140,352C212,352 256,399 256,449C256,497 233,522 193,539l-44,20C124,570 109,579 109,595C109,611 121,625 147,625C170,625 195,611 216,596l37,50C227,668 190,685 151,685C83,685 38,644 38,591C38,542 67,517 100,502l44,-22C170,468 184,462 184,442C184,423 170,412 146,412C115,412 87,427 64,449l-42,-49C56,369 96,352 140,352 z M313,364l76,0l0,116l-9,110l4,0l62,-179l55,0l62,179l4,0l-9,-110l0,-116l76,0l0,312l-93,0l-41,-101l-24,-73l-4,0l-24,73l-42,101l-93,0z"/>
<glyph unicode="@" horiz-adv-x="875" d="M50,204C50,-40 218,-164 416,-164C486,-164 549,-148 609,-114l-27,64C538,-74 481,-91 425,-91C262,-91 130,11 130,208C130,437 300,586 475,586C664,586 750,462 750,310C750,191 685,117 623,117C574,117 556,150 573,218l43,211l-73,0l-13,-41l-2,0C510,422 484,437 450,437C334,437 253,312 253,198C253,107 306,52 379,52C422,52 470,80 500,120l2,0C511,70 555,44 612,44C710,44 826,135 826,314C826,517 693,658 484,658C249,658 50,478 50,204 z M342,205C342,272 384,361 453,361C476,361 493,350 508,326l-26,-147C452,142 427,127 403,127C366,127 342,151 342,205z"/>
<glyph unicode="&#xE058;" horiz-adv-x="806" d="M50,292C50,71 204,-29 374,-29C435,-29 487,-18 540,10l-29,60C475,50 427,40 383,40C248,40 128,115 128,295C128,496 278,626 436,626C605,626 681,525 681,393C681,277 622,216 572,216C534,216 521,247 536,313l43,186l-73,0l-14,-41l-2,0C473,492 447,507 415,507C306,507 232,394 232,285C232,206 280,152 343,152C387,152 435,181 463,220l2,0C473,173 508,143 561,143C662,143 757,232 757,397C757,574 634,695 446,695C230,695 50,536 50,292 z M368,226C340,226 320,248 320,292C320,352 358,434 417,434C441,434 454,424 468,400l-25,-124C414,241 391,226 368,226z"/>
<glyph unicode="#" horiz-adv-x="513" d="M88,0l70,0l24,195l117,0l-23,-195l70,0l23,195l94,0l0,76l-85,0l16,129l89,0l0,76l-80,0l21,174l-68,0l-23,-174l-117,0l21,174l-69,0l-22,-174l-91,0l0,-76l81,0l-16,-129l-85,0l0,-76l77,0 z M190,271l16,129l118,0l-16,-129z"/>
<glyph unicode="&#xE059;" horiz-adv-x="372" d="M186,428C278,428 342,504 342,636C342,767 278,842 186,842C94,842 30,767 30,636C30,504 94,428 186,428 z M186,495C144,495 113,538 113,636C113,734 144,775 186,775C228,775 259,734 259,636C259,538 228,495 186,495z"/>
<glyph unicode="&#xE05A;" horiz-adv-x="372" d="M168,440l87,0l0,390l-69,0C156,808 131,796 82,788l0,-54l86,0z"/>
<glyph unicode="&#xE05B;" horiz-adv-x="372" d="M48,440l279,0l0,73l-141,0C255,586 310,644 310,713C310,796 255,842 173,842C117,842 68,813 33,764l50,-46C105,749 131,770 160,770C201,770 226,743 226,699C226,645 159,583 48,488z"/>
<glyph unicode="&#xE05C;" horiz-adv-x="372" d="M31,506C63,458 117,428 183,428C261,428 328,475 328,547C328,596 293,628 251,642C289,662 313,691 313,735C313,802 253,842 183,842C125,842 85,819 47,776l50,-44C117,757 142,775 169,775C205,775 228,755 228,724C228,687 193,664 136,664l0,-51C205,613 243,592 243,553C243,516 213,495 176,495C139,495 109,513 85,548z"/>
<glyph unicode="&#xE05D;" horiz-adv-x="372" d="M122,594l51,89l45,79l4,0l-5,-113l0,-55 z M352,594l-58,0l0,236l-104,0l-152,-251l0,-44l179,0l0,-95l77,0l0,95l58,0z"/>
<glyph unicode="&#xE05E;" horiz-adv-x="372" d="M31,506C64,458 116,428 185,428C269,428 330,484 330,563C330,645 273,692 203,692C187,692 167,688 149,682l8,74l156,0l0,74l-225,0l-18,-191l39,-27C129,628 148,639 175,639C215,639 245,612 245,567C245,526 216,495 177,495C138,495 110,513 85,548z"/>
<glyph unicode="&#xE05F;" horiz-adv-x="372" d="M196,495C158,495 127,525 120,591C145,617 167,627 192,627C233,627 255,601 255,561C255,519 229,495 196,495 z M322,806C299,824 267,842 216,842C110,842 40,764 40,629C40,506 100,428 199,428C275,428 333,486 333,563C333,638 288,687 211,687C176,687 145,674 120,649C127,731 163,775 221,775C248,775 268,764 288,750z"/>
<glyph unicode="&#xE060;" horiz-adv-x="372" d="M124,440l91,0C222,574 242,666 334,783l0,47l-284,0l0,-73l187,0C164,652 132,568 124,440z"/>
<glyph unicode="&#xE061;" horiz-adv-x="372" d="M121,546C121,573 136,598 164,615C210,595 250,584 250,545C250,514 221,488 185,488C147,488 121,515 121,546 z M205,670C165,685 134,701 134,735C134,761 157,780 185,780C214,780 238,762 238,732C238,711 227,690 205,670 z M42,538C42,478 100,428 185,428C268,428 329,477 329,540C329,588 299,621 257,643l0,4C286,665 316,696 316,737C316,802 259,842 185,842C114,842 56,801 56,737C56,696 80,670 114,647l0,-4C78,622 42,585 42,538z"/>
<glyph unicode="&#xE062;" horiz-adv-x="372" d="M178,643C138,643 115,669 115,709C115,751 141,775 174,775C213,775 244,745 250,678C225,653 202,643 178,643 z M48,464C72,446 103,428 154,428C260,428 330,506 330,641C330,764 271,842 171,842C95,842 37,784 37,707C37,632 83,583 159,583C193,583 225,596 250,620C243,539 207,495 150,495C122,495 102,506 83,520z"/>
<glyph unicode="&#xE063;" horiz-adv-x="253" d="M153,356l63,27C168,463 146,546 146,635C146,724 168,807 216,887l-63,27C96,830 64,751 64,635C64,519 96,440 153,356z"/>
<glyph unicode="&#xE064;" horiz-adv-x="253" d="M37,383l63,-27C157,440 189,519 189,635C189,751 157,830 100,914l-63,-27C85,807 106,724 106,635C106,546 85,463 37,383z"/>
<glyph unicode="&#xE065;" horiz-adv-x="193" d="M42,488C42,455 65,432 96,432C128,432 151,455 151,488C151,520 128,544 96,544C65,544 42,520 42,488z"/>
<glyph unicode="&#xE066;" horiz-adv-x="193" d="M51,317C120,339 161,392 161,459C161,514 138,544 98,544C68,544 42,523 42,491C42,458 69,440 97,440C99,440 100,440 102,440C102,402 76,379 32,363z"/>
<glyph unicode="&#xE067;" horiz-adv-x="372" d="M186,-243C278,-243 342,-167 342,-35C342,96 278,171 186,171C94,171 30,96 30,-35C30,-167 94,-243 186,-243 z M186,-176C144,-176 113,-134 113,-35C113,63 144,104 186,104C228,104 259,63 259,-35C259,-134 228,-176 186,-176z"/>
<glyph unicode="&#xE068;" horiz-adv-x="372" d="M168,-231l87,0l0,390l-69,0C156,137 131,125 82,117l0,-54l86,0z"/>
<glyph unicode="&#xE069;" horiz-adv-x="372" d="M48,-231l279,0l0,73l-141,0C255,-86 310,-27 310,42C310,125 255,171 173,171C117,171 68,142 33,93l50,-46C105,78 131,99 160,99C201,99 226,72 226,28C226,-26 159,-88 48,-184z"/>
<glyph unicode="&#xE06A;" horiz-adv-x="372" d="M31,-166C63,-213 117,-243 183,-243C261,-243 328,-196 328,-124C328,-76 293,-43 251,-29C289,-9 313,20 313,64C313,130 253,171 183,171C125,171 85,148 47,105l50,-44C117,86 142,104 169,104C205,104 228,84 228,52C228,16 193,-7 136,-7l0,-51C205,-58 243,-79 243,-118C243,-155 213,-176 176,-176C139,-176 109,-158 85,-124z"/>
<glyph unicode="&#xE06B;" horiz-adv-x="372" d="M122,-78l51,90l45,79l4,0l-5,-113l0,-56 z M352,-78l-58,0l0,237l-104,0l-152,-251l0,-44l179,0l0,-95l77,0l0,95l58,0z"/>
<glyph unicode="&#xE06C;" horiz-adv-x="372" d="M31,-166C64,-213 116,-243 185,-243C269,-243 330,-187 330,-108C330,-26 273,21 203,21C187,21 167,17 149,11l8,74l156,0l0,74l-225,0l-18,-191l39,-28C129,-43 148,-32 175,-32C215,-32 245,-59 245,-104C245,-145 216,-176 177,-176C138,-176 110,-158 85,-124z"/>
<glyph unicode="&#xE06D;" horiz-adv-x="372" d="M196,-176C158,-176 127,-146 120,-80C145,-55 167,-44 192,-44C233,-44 255,-70 255,-110C255,-152 229,-176 196,-176 z M322,135C299,153 267,171 216,171C110,171 40,93 40,-42C40,-166 100,-243 199,-243C275,-243 333,-185 333,-108C333,-34 288,16 211,16C176,16 145,3 120,-22C127,60 163,104 221,104C248,104 268,93 288,79z"/>
<glyph unicode="&#xE06E;" horiz-adv-x="372" d="M124,-231l91,0C222,-97 242,-5 334,112l0,47l-284,0l0,-73l187,0C164,-20 132,-103 124,-231z"/>
<glyph unicode="&#xE06F;" horiz-adv-x="372" d="M121,-125C121,-98 136,-74 164,-56C210,-76 250,-87 250,-126C250,-158 221,-184 185,-184C147,-184 121,-156 121,-125 z M205,-1C165,14 134,30 134,64C134,90 157,109 185,109C214,109 238,91 238,61C238,40 227,19 205,-1 z M42,-133C42,-193 100,-243 185,-243C268,-243 329,-194 329,-131C329,-83 299,-50 257,-28l0,4C286,-6 316,25 316,66C316,131 259,171 185,171C114,171 56,130 56,66C56,25 80,-1 114,-24l0,-4C78,-49 42,-86 42,-133z"/>
<glyph unicode="&#xE070;" horiz-adv-x="372" d="M178,-28C138,-28 115,-2 115,38C115,80 141,104 174,104C213,104 244,74 250,7C225,-18 202,-28 178,-28 z M48,-207C72,-226 103,-243 154,-243C260,-243 330,-165 330,-30C330,93 271,171 171,171C95,171 37,112 37,36C37,-39 83,-88 159,-88C193,-88 225,-75 250,-52C242,-133 207,-176 150,-176C122,-176 102,-165 83,-151z"/>
<glyph unicode="&#xE071;" horiz-adv-x="253" d="M153,-316l63,28C168,-208 146,-125 146,-36C146,53 168,136 216,216l-63,27C96,158 64,80 64,-36C64,-152 96,-231 153,-316z"/>
<glyph unicode="&#xE072;" horiz-adv-x="253" d="M37,-288l63,-28C157,-231 189,-152 189,-36C189,80 157,158 100,243l-63,-27C85,136 106,53 106,-36C106,-125 85,-208 37,-288z"/>
<glyph unicode="&#xE073;" horiz-adv-x="193" d="M42,-184C42,-216 65,-239 96,-239C128,-239 151,-216 151,-184C151,-151 128,-127 96,-127C65,-127 42,-151 42,-184z"/>
<glyph unicode="&#xE074;" horiz-adv-x="193" d="M51,-354C120,-332 161,-280 161,-212C161,-157 138,-127 98,-127C68,-127 42,-148 42,-180C42,-213 69,-231 97,-231C99,-231 100,-231 102,-231C102,-269 76,-293 32,-308z"/>
<glyph unicode="&#xE075;" horiz-adv-x="372" d="M186,-12C278,-12 342,64 342,196C342,327 278,402 186,402C94,402 30,327 30,196C30,64 94,-12 186,-12 z M186,55C144,55 113,98 113,196C113,294 144,335 186,335C228,335 259,294 259,196C259,98 228,55 186,55z"/>
<glyph unicode="&#xE076;" horiz-adv-x="372" d="M168,0l87,0l0,390l-69,0C156,368 131,356 82,348l0,-54l86,0z"/>
<glyph unicode="&#xE077;" horiz-adv-x="372" d="M48,0l279,0l0,73l-141,0C255,146 310,204 310,273C310,356 255,402 173,402C117,402 68,373 33,324l50,-46C105,309 131,330 160,330C201,330 226,303 226,259C226,205 159,143 48,48z"/>
<glyph unicode="&#xE078;" horiz-adv-x="372" d="M31,66C63,18 117,-12 183,-12C261,-12 328,35 328,107C328,156 293,188 251,202C289,222 313,251 313,295C313,362 253,402 183,402C125,402 85,379 47,336l50,-44C117,317 142,335 169,335C205,335 228,315 228,284C228,247 193,224 136,224l0,-51C205,173 243,152 243,113C243,76 213,55 176,55C139,55 109,73 85,108z"/>
<glyph unicode="&#xE079;" horiz-adv-x="372" d="M122,154l51,89l45,79l4,0l-5,-113l0,-55 z M352,154l-58,0l0,236l-104,0l-152,-251l0,-44l179,0l0,-95l77,0l0,95l58,0z"/>
<glyph unicode="&#xE07A;" horiz-adv-x="372" d="M31,66C64,18 116,-12 185,-12C269,-12 330,44 330,123C330,205 273,252 203,252C187,252 167,248 149,242l8,74l156,0l0,74l-225,0l-18,-191l39,-27C129,188 148,199 175,199C215,199 245,172 245,127C245,86 216,55 177,55C138,55 110,73 85,108z"/>
<glyph unicode="&#xE07B;" horiz-adv-x="372" d="M196,55C158,55 127,85 120,151C145,177 167,187 192,187C233,187 255,161 255,121C255,79 229,55 196,55 z M322,366C299,384 267,402 216,402C110,402 40,324 40,189C40,66 100,-12 199,-12C275,-12 333,46 333,123C333,198 288,247 211,247C176,247 145,234 120,209C127,291 163,335 221,335C248,335 268,324 288,310z"/>
<glyph unicode="&#xE07C;" horiz-adv-x="372" d="M124,0l91,0C222,134 242,226 334,343l0,47l-284,0l0,-73l187,0C164,212 132,128 124,0z"/>
<glyph unicode="&#xE07D;" horiz-adv-x="372" d="M121,106C121,133 136,158 164,175C210,155 250,144 250,105C250,74 221,48 185,48C147,48 121,75 121,106 z M205,230C165,245 134,261 134,295C134,321 157,340 185,340C214,340 238,322 238,292C238,271 227,250 205,230 z M42,98C42,38 100,-12 185,-12C268,-12 329,37 329,100C329,148 299,181 257,203l0,4C286,225 316,256 316,297C316,362 259,402 185,402C114,402 56,361 56,297C56,256 80,230 114,207l0,-4C78,182 42,145 42,98z"/>
<glyph unicode="&#xE07E;" horiz-adv-x="372" d="M178,203C138,203 115,229 115,269C115,311 141,335 174,335C213,335 244,305 250,238C225,213 202,203 178,203 z M48,24C72,6 103,-12 154,-12C260,-12 330,66 330,201C330,324 271,402 171,402C95,402 37,344 37,267C37,192 83,143 159,143C193,143 225,156 250,180C243,99 207,55 150,55C122,55 102,66 83,80z"/>
<glyph unicode="&#xE07F;" horiz-adv-x="253" d="M153,-84l63,27C168,23 146,106 146,195C146,284 168,367 216,447l-63,27C96,390 64,311 64,195C64,79 96,0 153,-84z"/>
<glyph unicode="&#xE080;" horiz-adv-x="253" d="M37,-57l63,-27C157,0 189,79 189,195C189,311 157,390 100,474l-63,-27C85,367 106,284 106,195C106,106 85,23 37,-57z"/>
<glyph unicode="&#xE081;" horiz-adv-x="193" d="M42,48C42,15 65,-8 96,-8C128,-8 151,15 151,48C151,80 128,104 96,104C65,104 42,80 42,48z"/>
<glyph unicode="&#xE082;" horiz-adv-x="193" d="M51,-123C120,-101 161,-48 161,19C161,74 138,104 98,104C68,104 42,83 42,51C42,18 69,0 97,0C99,0 100,0 102,0C102,-38 76,-61 32,-77z"/>
<glyph unicode="&#xE083;" horiz-adv-x="372" d="M186,252C278,252 342,328 342,460C342,591 278,666 186,666C94,666 30,591 30,460C30,328 94,252 186,252 z M186,319C144,319 113,362 113,460C113,558 144,599 186,599C228,599 259,558 259,460C259,362 228,319 186,319z"/>
<glyph unicode="&#xE084;" horiz-adv-x="372" d="M168,264l87,0l0,390l-69,0C156,632 131,620 82,612l0,-54l86,0z"/>
<glyph unicode="&#xE085;" horiz-adv-x="372" d="M48,264l279,0l0,73l-141,0C255,410 310,468 310,537C310,620 255,666 173,666C117,666 68,637 33,588l50,-46C105,573 131,594 160,594C201,594 226,567 226,523C226,469 159,407 48,312z"/>
<glyph unicode="&#xE086;" horiz-adv-x="372" d="M31,330C63,282 117,252 183,252C261,252 328,299 328,371C328,420 293,452 251,466C289,486 313,515 313,559C313,626 253,666 183,666C125,666 85,643 47,600l50,-44C117,581 142,599 169,599C205,599 228,579 228,548C228,511 193,488 136,488l0,-51C205,437 243,416 243,377C243,340 213,319 176,319C139,319 109,337 85,372z"/>
<glyph unicode="&#xE087;" horiz-adv-x="372" d="M122,418l51,89l45,79l4,0l-5,-113l0,-55 z M352,418l-58,0l0,236l-104,0l-152,-251l0,-44l179,0l0,-95l77,0l0,95l58,0z"/>
<glyph unicode="&#xE088;" horiz-adv-x="372" d="M31,330C64,282 116,252 185,252C269,252 330,308 330,387C330,469 273,516 203,516C187,516 167,512 149,506l8,74l156,0l0,74l-225,0l-18,-191l39,-27C129,452 148,463 175,463C215,463 245,436 245,391C245,350 216,319 177,319C138,319 110,337 85,372z"/>
<glyph unicode="&#xE089;" horiz-adv-x="372" d="M196,319C158,319 127,349 120,415C145,441 167,451 192,451C233,451 255,425 255,385C255,343 229,319 196,319 z M322,630C299,648 267,666 216,666C110,666 40,588 40,453C40,330 100,252 199,252C275,252 333,310 333,387C333,462 288,511 211,511C176,511 145,498 120,473C127,555 163,599 221,599C248,599 268,588 288,574z"/>
<glyph unicode="&#xE08A;" horiz-adv-x="372" d="M124,264l91,0C222,398 242,490 334,607l0,47l-284,0l0,-73l187,0C164,476 132,392 124,264z"/>
<glyph unicode="&#xE08B;" horiz-adv-x="372" d="M121,370C121,397 136,422 164,439C210,419 250,408 250,369C250,338 221,312 185,312C147,312 121,339 121,370 z M205,494C165,509 134,525 134,559C134,585 157,604 185,604C214,604 238,586 238,556C238,535 227,514 205,494 z M42,362C42,302 100,252 185,252C268,252 329,301 329,364C329,412 299,445 257,467l0,4C286,489 316,520 316,561C316,626 259,666 185,666C114,666 56,625 56,561C56,520 80,494 114,471l0,-4C78,446 42,409 42,362z"/>
<glyph unicode="&#xE08C;" horiz-adv-x="372" d="M178,467C138,467 115,493 115,533C115,575 141,599 174,599C213,599 244,569 250,502C225,477 202,467 178,467 z M48,288C72,270 103,252 154,252C260,252 330,330 330,465C330,588 271,666 171,666C95,666 37,608 37,531C37,456 83,407 159,407C193,407 225,420 250,444C243,363 207,319 150,319C122,319 102,330 83,344z"/>
<glyph unicode="&#xE08D;" horiz-adv-x="253" d="M153,180l63,27C168,287 146,370 146,459C146,548 168,631 216,711l-63,27C96,654 64,575 64,459C64,343 96,264 153,180z"/>
<glyph unicode="&#xE08E;" horiz-adv-x="253" d="M37,207l63,-27C157,264 189,343 189,459C189,575 157,654 100,738l-63,-27C85,631 106,548 106,459C106,370 85,287 37,207z"/>
<glyph unicode="&#xE08F;" horiz-adv-x="193" d="M42,312C42,279 65,256 96,256C128,256 151,279 151,312C151,344 128,368 96,368C65,368 42,344 42,312z"/>
<glyph unicode="&#xE090;" horiz-adv-x="193" d="M51,141C120,163 161,216 161,283C161,338 138,368 98,368C68,368 42,347 42,315C42,282 69,264 97,264C99,264 100,264 102,264C102,226 76,203 32,187z"/>
<glyph unicode="&#xAA;" horiz-adv-x="352" d="M133,256C172,256 204,275 230,299l4,0l8,-35l67,0l0,192C309,549 266,598 184,598C132,598 83,578 45,554l30,-55C105,516 139,531 170,531C210,531 224,508 226,472C91,460 33,423 33,353C33,298 72,256 133,256 z M160,320C131,320 114,333 114,360C114,390 142,414 226,423l0,-70C203,332 183,320 160,320z"/>
<glyph unicode="&#xE091;" horiz-adv-x="380" d="M115,433C115,494 148,531 186,531C207,531 228,524 250,504l0,-146C229,334 210,324 188,324C140,324 115,359 115,433 z M30,431C30,320 82,256 166,256C202,256 231,274 255,297l4,0l7,-33l67,0l0,325l-64,0l-8,-32l-4,0C232,584 203,598 170,598C99,598 30,534 30,431z"/>
<glyph unicode="&#xBA;" horiz-adv-x="369" d="M184,256C268,256 341,319 341,426C341,535 268,598 184,598C100,598 27,535 27,426C27,319 100,256 184,256 z M184,323C137,323 112,365 112,426C112,489 137,531 184,531C231,531 256,489 256,426C256,365 231,323 184,323z"/>
<glyph unicode="&#xE092;" horiz-adv-x="352" d="M133,256C172,256 204,275 230,299l4,0l8,-35l67,0l0,192C309,549 266,598 184,598C132,598 83,578 45,554l30,-55C105,516 139,531 170,531C210,531 224,508 226,472C91,460 33,423 33,353C33,298 72,256 133,256 z M160,320C131,320 114,333 114,360C114,390 142,414 226,423l0,-70C203,332 183,320 160,320z"/>
<glyph unicode="&#xE093;" horiz-adv-x="380" d="M47,264l64,0l7,34l4,0C148,270 181,256 211,256C284,256 350,320 350,433C350,532 302,598 220,598C186,598 154,580 127,556l3,54l0,120l-83,0 z M130,348l0,147C153,518 175,530 198,530C243,530 265,495 265,432C265,359 233,323 194,323C174,323 152,330 130,348z"/>
<glyph unicode="&#xE094;" horiz-adv-x="310" d="M186,256C237,256 272,275 295,294l-34,54C245,334 226,323 195,323C146,323 112,365 112,427C112,488 148,531 196,531C219,531 235,523 252,509l38,54C272,580 238,598 189,598C103,598 27,534 27,427C27,318 94,256 186,256z"/>
<glyph unicode="&#xE095;" horiz-adv-x="380" d="M166,256C202,256 231,274 255,297l3,0l7,-33l68,0l0,466l-83,0l0,-114l4,-54C230,584 203,598 168,598C99,598 30,534 30,433C30,320 82,256 166,256 z M188,323C139,323 115,359 115,433C115,494 148,531 186,531C207,531 228,524 250,504l0,-146C229,334 210,323 188,323z"/>
<glyph unicode="&#xE096;" horiz-adv-x="341" d="M190,256C232,256 273,270 306,292l-29,51C254,328 228,320 200,320C149,320 112,349 106,406l207,0C316,421 317,428 317,444C317,518 280,598 180,598C97,598 26,531 26,427C26,319 98,256 190,256 z M105,456C112,506 141,533 181,533C229,533 246,494 246,456z"/>
<glyph unicode="&#xE097;" horiz-adv-x="217" d="M237,731C220,738 200,742 175,742C94,742 62,685 62,616l0,-26l-45,-4l0,-61l45,0l0,-261l83,0l0,261l64,0l0,65l-64,0l0,30C145,657 160,677 186,677C200,677 212,674 221,671z"/>
<glyph unicode="&#xE098;" horiz-adv-x="352" d="M95,219C95,233 104,246 119,258C133,254 150,254 163,254l43,0C242,254 261,246 261,224C261,198 226,175 176,175C126,175 95,191 95,219 z M26,206C26,148 84,122 162,122C273,122 341,172 341,237C341,295 300,318 220,318l-58,0C123,318 110,327 110,345C110,358 116,366 125,374C141,367 155,366 168,366C238,366 295,404 295,477C295,496 288,516 279,527l57,0l0,62l-116,0C205,595 187,598 168,598C97,598 35,556 35,480C35,442 56,411 79,395l0,-4C59,377 43,355 43,331C43,305 55,288 72,277l0,-4C42,256 26,234 26,206 z M168,418C136,418 113,441 113,480C113,519 136,540 168,540C198,540 222,519 222,480C222,441 198,418 168,418z"/>
<glyph unicode="&#xE099;" horiz-adv-x="375" d="M47,264l83,0l0,224C156,514 177,527 200,527C242,527 250,502 250,456l0,-192l84,0l0,203C334,545 306,598 231,598C187,598 150,573 125,547l5,63l0,120l-83,0z"/>
<glyph unicode="&#xE09A;" horiz-adv-x="177" d="M89,643C118,643 140,662 140,689C140,716 118,735 89,735C59,735 38,716 38,689C38,662 59,643 89,643 z M47,264l83,0l0,326l-83,0z"/>
<glyph unicode="&#xE09B;" horiz-adv-x="180" d="M25,124C104,124 132,177 132,250l0,340l-83,0l0,-344C49,208 41,190 13,190C1,190 -7,192 -14,195l-16,-63C-15,127 -1,124 25,124 z M91,643C120,643 142,662 142,689C142,716 120,735 91,735C61,735 40,716 40,689C40,662 61,643 91,643z"/>
<glyph unicode="&#xE09C;" horiz-adv-x="354" d="M47,264l83,0l0,81l46,55l83,-136l91,0l-127,190l116,136l-91,0l-114,-144l-4,0l0,284l-83,0z"/>
<glyph unicode="&#xE09D;" horiz-adv-x="184" d="M47,354C47,294 67,256 127,256C148,256 160,259 171,264l-11,61C154,323 151,323 147,323C137,323 130,330 130,350l0,380l-83,0z"/>
<glyph unicode="&#xE09E;" horiz-adv-x="568" d="M47,264l83,0l0,225C156,515 175,527 194,527C233,527 244,502 244,456l0,-192l84,0l0,225C353,515 373,527 392,527C431,527 442,502 442,456l0,-192l83,0l0,203C525,545 494,598 422,598C378,598 344,570 315,540C299,578 269,598 224,598C180,598 150,574 124,545l-3,0l-7,45l-67,0z"/>
<glyph unicode="&#xE09F;" horiz-adv-x="376" d="M47,264l83,0l0,224C156,514 177,527 201,527C242,527 250,502 250,456l0,-192l84,0l0,203C334,545 306,598 231,598C187,598 151,574 124,545l-3,0l-8,45l-66,0z"/>
<glyph unicode="&#xE0A0;" horiz-adv-x="369" d="M184,256C268,256 341,319 341,426C341,535 268,598 184,598C100,598 27,535 27,426C27,319 100,256 184,256 z M184,323C137,323 112,365 112,426C112,489 137,531 184,531C231,531 256,489 256,426C256,365 231,323 184,323z"/>
<glyph unicode="&#xE0A1;" horiz-adv-x="380" d="M47,129l83,0l0,99l-4,64C151,269 182,256 211,256C284,256 350,320 350,433C350,532 302,598 220,598C184,598 148,577 123,554l-3,0l-7,36l-66,0 z M130,348l0,147C153,518 175,530 198,530C243,530 265,495 265,432C265,359 233,323 194,323C174,323 152,330 130,348z"/>
<glyph unicode="&#xE0A2;" horiz-adv-x="380" d="M250,129l83,0l0,461l-64,0l-8,-34l-3,0C233,584 204,598 170,598C99,598 30,533 30,427C30,320 83,256 168,256C199,256 232,272 254,294l-4,-56 z M188,324C139,324 115,360 115,428C115,494 149,530 186,530C207,530 229,521 250,503l0,-147C229,333 210,324 188,324z"/>
<glyph unicode="&#xE0A3;" horiz-adv-x="256" d="M47,264l84,0l0,196C151,507 181,523 208,523C220,523 233,520 242,518l15,72C248,594 235,598 217,598C182,598 150,576 124,532l-2,0l-8,58l-67,0z"/>
<glyph unicode="&#xE0A4;" horiz-adv-x="290" d="M17,300C50,275 98,256 143,256C224,256 272,300 272,359C272,419 223,440 180,456C145,470 111,478 111,503C111,521 126,536 155,536C182,536 203,524 227,508l39,50C238,579 202,598 153,598C79,598 33,554 33,499C33,444 81,419 124,402C160,388 194,378 194,354C194,333 177,318 145,318C114,318 85,331 54,353z"/>
<glyph unicode="&#xE0A5;" horiz-adv-x="246" d="M60,378C60,306 89,256 167,256C195,256 219,262 238,268l-16,60C211,323 200,322 189,322C160,322 144,340 144,378l0,146l82,0l0,66l-82,0l0,88l-70,0l-10,-88l-50,-4l0,-62l46,0z"/>
<glyph unicode="&#xE0A6;" horiz-adv-x="377" d="M148,256C192,256 228,281 253,307l3,0l9,-43l66,0l0,326l-83,0l0,-225C223,338 201,326 178,326C136,326 128,351 128,396l0,194l-84,0l0,-205C44,308 74,256 148,256z"/>
<glyph unicode="&#xE0A7;" horiz-adv-x="338" d="M121,264l97,0l112,326l-80,0l-49,-164l-29,-99l-3,0l-29,99l-49,164l-83,0z"/>
<glyph unicode="&#xE0A8;" horiz-adv-x="505" d="M102,264l96,0l36,145l18,91l2,0l19,-91l36,-145l98,0l82,326l-77,0l-36,-164l-18,-95l-4,0l-20,95l-45,164l-70,0l-43,-164l-19,-95l-4,0l-17,95l-36,164l-84,0z"/>
<glyph unicode="&#xE0A9;" horiz-adv-x="328" d="M8,264l87,0l33,60l29,53l4,0l33,-53l36,-60l89,0l-103,160l98,166l-88,0l-29,-59l-24,-51l-4,0l-29,51l-34,59l-90,0l98,-156z"/>
<glyph unicode="&#xE0AA;" horiz-adv-x="336" d="M44,205l-15,-64C43,137 56,135 74,135C149,135 184,180 213,255l115,335l-80,0l-44,-153C195,406 185,376 178,344l-4,0C164,377 156,406 146,437l-54,153l-84,0l130,-320l-6,-17C122,222 101,200 68,200C61,200 55,201 44,205z"/>
<glyph unicode="&#xE0AB;" horiz-adv-x="301" d="M23,264l261,0l0,66l-157,0l152,214l0,46l-238,0l0,-66l134,0l-152,-215z"/>
<glyph unicode="&#xE0AC;" horiz-adv-x="341" d="M168,643l63,0l-59,97l-83,0 z M190,260C232,260 273,274 306,296l-29,51C254,332 228,324 200,324C149,324 112,353 106,410l207,0C316,425 317,432 317,448C317,522 280,602 180,602C97,602 26,535 26,431C26,323 98,260 190,260 z M105,460C112,510 141,537 181,537C229,537 246,498 246,460z"/>
<glyph unicode="&#xE0AD;" horiz-adv-x="341" d="M129,643l63,0l79,97l-83,0 z M190,260C232,260 273,274 306,296l-29,51C254,332 228,324 200,324C149,324 112,353 106,410l207,0C316,425 317,432 317,448C317,522 280,602 180,602C97,602 26,535 26,431C26,323 98,260 190,260 z M105,460C112,510 141,537 181,537C229,537 246,498 246,460z"/>
<glyph unicode="&#xE0AE;" horiz-adv-x="341" d="M162,256C246,256 314,322 314,427C314,532 253,598 159,598C118,598 78,583 45,561l29,-51C98,525 122,533 150,533C202,533 229,502 234,450l-206,0C24,435 23,428 23,412C23,336 62,256 162,256 z M161,320C113,320 94,356 94,400l141,0C230,346 201,320 161,320z"/>
<glyph unicode="&#xE0AF;" horiz-adv-x="380" d="M115,433C115,494 148,531 186,531C207,531 228,524 250,504l0,-146C229,334 210,324 188,324C140,324 115,359 115,433 z M30,431C30,320 82,256 166,256C202,256 231,274 255,297l4,0l7,-33l67,0l0,325l-64,0l-8,-32l-4,0C232,584 203,598 170,598C99,598 30,534 30,431z"/>
<glyph unicode="&#xE0B0;" horiz-adv-x="384" d="M82,214l-29,-55C90,135 137,122 174,122C276,122 335,173 335,262l0,327l-66,0l-7,-31l-2,0C234,585 206,597 172,597C101,597 32,534 32,434C32,339 85,275 169,275C202,275 229,290 255,312l-2,-38l0,-10C253,222 227,188 175,188C146,188 112,196 82,214 z M189,343C142,343 117,377 117,435C117,494 149,529 188,529C208,529 232,522 253,503l0,-126C231,353 212,343 189,343z"/>
<glyph unicode="&#xE0B1;" horiz-adv-x="177" d="M47,264l83,0l0,466l-83,0z"/>
<glyph unicode="&#xB0;" horiz-adv-x="348" d="M175,413C249,413 310,468 310,549C310,630 249,685 175,685C101,685 40,630 40,549C40,468 101,413 175,413 z M175,472C133,472 104,504 104,549C104,595 133,627 175,627C217,627 246,595 246,549C246,504 217,472 175,472z"/>
<glyph unicode="&#xA4;" horiz-adv-x="513" d="M82,93l69,70C182,142 219,132 256,132C293,132 331,142 362,163l69,-70l59,60l-63,63C449,247 462,285 462,329C462,374 449,412 427,443l63,63l-59,60l-69,-70C331,516 294,527 256,527C219,527 181,516 150,496l-68,70l-59,-60l62,-63C63,412 50,374 50,329C50,285 63,247 85,216l-62,-63 z M154,329C154,399 200,445 256,445C313,445 358,399 358,329C358,260 313,214 256,214C200,214 154,260 154,329z"/>
<glyph unicode="$" horiz-adv-x="513" d="M443,568C406,607 362,638 298,646l0,100l-80,0l0,-102C128,628 70,562 70,469C70,281 342,300 342,168C342,114 310,82 245,82C191,82 144,107 97,144l-52,-78C90,24 157,-4 218,-10l0,-100l80,0l0,103C397,11 453,81 453,176C453,378 181,354 181,474C181,526 214,554 268,554C316,554 347,535 384,501z"/>
<glyph unicode="&#xA3;" horiz-adv-x="513" d="M206,98l0,4C242,140 259,177 259,236C259,251 258,264 256,278l137,0l0,74l-154,0C230,384 222,415 222,448C222,515 259,554 321,554C359,554 386,536 411,507l64,63C435,618 384,648 311,648C193,648 111,574 111,454C111,421 121,387 132,352l-12,0l-67,-5l0,-69l100,0C155,264 157,251 157,237C157,164 115,103 51,71l0,-71l425,0l0,98z"/>
<glyph unicode="&#xA5;" horiz-adv-x="513" d="M18,636l154,-306l-131,0l0,-59l157,0l0,-59l-157,0l0,-60l157,0l0,-152l116,0l0,152l158,0l0,60l-158,0l0,59l158,0l0,59l-132,0l155,306l-116,0l-64,-151C297,441 279,397 260,352l-4,0C236,397 219,441 201,485l-64,151z"/>
<glyph unicode="&#x20AC;" horiz-adv-x="513" d="M440,141C410,100 378,78 335,78C267,78 220,132 202,225l193,0l0,61l-200,0C194,297 194,308 194,320C194,329 194,337 195,345l240,0l0,61l-234,0C217,502 265,558 337,558C375,558 405,537 431,507l65,63C458,618 400,648 340,648C208,648 112,559 85,405l-63,-4l0,-56l57,0C78,336 78,326 78,316C78,305 78,295 79,285l-57,-4l0,-56l63,0C112,72 205,-12 328,-12C401,-12 459,22 505,81z"/>
<glyph unicode="&#xA2;" horiz-adv-x="513" d="M269,162C208,180 173,234 173,308C173,382 208,435 269,455 z M423,196C399,176 369,158 335,155l0,308C362,460 386,448 409,428l54,71C433,529 390,553 335,556l0,98l-66,0l0,-101C150,534 61,448 61,308C61,165 144,78 269,62l0,-99l66,0l0,98C383,67 432,88 471,123z"/>
<glyph unicode="&#x192;" horiz-adv-x="513" d="M478,648C459,657 423,666 396,666C277,666 226,600 210,460l-5,-49l-19,0l-72,-5l0,-80l81,0l-20,-182C163,36 143,-4 88,-5C72,-5 56,-2 42,4l-18,-85C40,-90 69,-96 104,-97C227,-97 267,-7 281,113l24,213l124,0l0,85l-114,0l7,59C329,527 352,573 404,573C426,573 442,566 455,561z"/>
<glyph unicode="&#x20A1;" horiz-adv-x="513" d="M305,556C313,557 321,558 329,558C338,558 346,557 354,555l-56,-475C280,83 265,90 251,100 z M212,143C187,185 174,245 174,320C174,429 203,507 259,540 z M432,141C406,106 377,85 341,79l54,456C407,526 418,514 429,501l65,63C470,595 440,618 406,633l14,113l-43,0l-12,-101C354,647 343,648 332,648C327,648 321,648 316,648l12,98l-44,0l-12,-104C142,615 58,497 58,316C58,167 112,64 197,17l-15,-127l44,0l13,109C254,-6 270,-9 287,-11l-12,-99l43,0l12,99C397,-7 452,26 497,81z"/>
<glyph unicode="&#x20A4;" horiz-adv-x="513" d="M206,98l0,4C240,138 257,173 259,226l134,0l0,62l-139,0C251,306 246,324 242,341l151,0l0,62l-166,0C224,418 222,433 222,448C222,515 259,554 321,554C359,554 386,536 411,507l64,63C435,618 384,648 311,648C193,648 111,574 111,454C111,437 114,420 118,403l-6,0l-59,-5l0,-57l83,0C141,323 147,306 151,288l-27,0l-71,-6l0,-56l104,0C153,158 112,101 51,71l0,-71l425,0l0,98z"/>
<glyph unicode="&#x20A6;" horiz-adv-x="513" d="M353,288l-45,0l-16,53l-1,2l57,0 z M369,92l-4,0l-43,146l35,0 z M165,288l0,1l-4,54l46,0l14,-47l3,-8 z M144,544l4,0l45,-152l-36,0 z M504,343l0,49l-70,0l0,244l-86,0l0,-244l-74,0l-84,244l-111,0l0,-244l-72,-5l0,-44l72,0l0,-55l-72,-5l0,-45l72,0l0,-238l86,0l0,238l76,0l82,-238l111,0l0,238l70,0l0,50l-70,0l0,55z"/>
<glyph unicode="&#x20A7;" horiz-adv-x="513" d="M183,303l0,95l150,0C322,337 280,303 212,303 z M212,562C280,562 321,536 333,472l-150,0l0,90 z M502,472l-60,0C426,592 335,636 221,636l-147,0l0,-165l-68,-5l0,-68l68,0l0,-398l109,0l0,228l38,0C333,228 426,283 442,398l60,0z"/>
<glyph unicode="&#x20AB;" horiz-adv-x="513" d="M79,0l379,0l0,62l-379,0 z M329,236C302,204 278,192 248,192C196,192 166,230 166,303C166,362 206,402 252,402C282,402 303,392 329,368 z M425,600l0,58l-96,0l0,-58l-145,0l0,-62l145,0l0,-24l4,-75C303,466 277,482 231,482C148,482 66,414 66,302C66,180 129,113 225,113C270,113 308,133 336,163l2,0l8,-40l79,0l0,415l76,6l0,56z"/>
</font>
</svg>
